<svg width="206" height="64" viewBox="0 0 206 64" xmlns="http://www.w3.org/2000/svg"><title>logo/feeedback@3x</title><g fill="none" fill-rule="evenodd"><path d="M204.702 29.776l-25.325-14.563L154.052.653c-1.71-.987-3.852.245-3.852 2.213v7.348H55.786V2.866c0-1.968-2.142-3.2-3.853-2.213l-25.325 14.56L1.284 29.776c-1.71.984-1.71 3.445 0 4.432l25.324 14.56L51.933 63.33c1.71.984 3.853-.245 3.853-2.216V53.77H150.2v7.345c0 1.971 2.141 3.2 3.852 2.216l25.325-14.563 25.325-14.56c1.713-.986 1.713-3.447 0-4.431" fill="#F2594B"/><g fill="#FFF"><path d="M48.203 34.01h-6.277v6.458h-3.891v-16.21h10.8v3.014h-6.91v3.733h6.278zM61.6 33.587h-6.12v3.875h7.23v3.008H51.587V24.256h11.146v3.018H55.48v3.417h6.12zM75.445 33.587h-6.12v3.875h7.23v3.008H65.43V24.256h11.146v3.018h-7.252v3.417h6.12zM83.824 32.634c2.61.457 3.46-.741 4.031-2.081.37-.854.536-1.623-.426-1.623-2.101 0-3.605 3.704-3.605 3.704m11.575 1.053c-1.927 3.42-5.388 7.15-10.835 7.15-3.945 0-5.847-1.936-5.847-5.04 0-3.788 2.868-10.484 8.936-10.484 3.208 0 5.93 2.106 4.115 6.21-1.193 2.592-3.46 4.245-8.711 3.562 0 0-.821 2.963 2.78 2.963 2.897 0 5.96-1.91 7.975-5.498.596.055 1.36.596 1.587 1.137M100.889 27.274V37.46h1.354c1.116 0 1.972-.4 2.572-1.195.6-.799.898-1.984.898-3.559v-.702c0-1.565-.298-2.744-.898-3.54-.6-.795-1.47-1.191-2.617-1.191h-1.309zm-3.89 13.195V24.256h5.199c1.427 0 2.71.325 3.849.975 1.138.648 2.027 1.566 2.665 2.751.642 1.182.965 2.51.972 3.978v.747c0 1.485-.311 2.815-.94 3.99a6.825 6.825 0 0 1-2.636 2.764c-1.136.664-2.403 1.002-3.798 1.008h-5.312zM115.988 33.576v3.888h2.55c.703 0 1.242-.165 1.62-.487.375-.322.565-.776.565-1.362 0-1.353-.67-2.032-2.008-2.039h-2.727zm0-2.56h2.03c.848-.007 1.454-.165 1.82-.47.359-.303.541-.754.541-1.35 0-.686-.195-1.18-.587-1.482-.394-.303-1.026-.45-1.895-.45h-1.909v3.752zm-3.89 9.453V24.255h5.799c2.075 0 3.656.383 4.74 1.147 1.081.766 1.624 1.877 1.624 3.33 0 .84-.193 1.556-.578 2.148-.385.596-.95 1.034-1.697 1.314.844.223 1.489.641 1.94 1.25.45.606.678 1.35.678 2.226 0 1.588-.5 2.783-1.501 3.578-1.004.799-2.49 1.205-4.452 1.22h-6.553zM131.568 34.422h3.47l-1.741-5.623-1.73 5.623zm4.4 3.018h-5.33l-.934 3.028h-4.157l5.921-16.21h3.66l5.966 16.21h-4.183l-.943-3.028zM155.516 34.98c-.051 1.126-.356 2.125-.908 2.988-.555.866-1.334 1.536-2.335 2.01-1.004.477-2.146.715-3.432.715-2.123 0-3.794-.696-5.013-2.084-1.219-1.388-1.828-3.346-1.828-5.878v-.802c0-1.588.272-2.98.824-4.171.548-1.192 1.344-2.113 2.38-2.76 1.033-.651 2.232-.976 3.592-.976 1.957 0 3.532.518 4.725 1.552 1.19 1.037 1.864 2.464 2.027 4.284h-3.881c-.029-.989-.276-1.697-.74-2.13-.466-.427-1.178-.643-2.13-.643-.973 0-1.681.364-2.13 1.092-.453.728-.687 1.887-.71 3.485v1.146c0 1.73.216 2.967.649 3.707.433.741 1.177 1.115 2.235 1.115.892 0 1.578-.213 2.05-.635.471-.425.725-1.095.754-2.016h3.871zM162.9 34.433l-1.596 1.76v4.276h-3.891V24.256h3.89v7.15l1.354-2.061 3.48-5.09h4.815l-5.456 7.173 5.456 9.041h-4.613z"/></g></g></svg>