<svg width="146" height="50" viewBox="0 0 146 50" xmlns="http://www.w3.org/2000/svg"><title>logo/loop@3x</title><g fill="none" fill-rule="evenodd"><path d="M20.833 31.25c-5.753 0-10.416-4.664-10.416-10.417V0H0v20.833C0 32.34 9.327 41.667 20.833 41.667h2.084V31.25h-2.084zM125 0c-11.157 0-20.264 8.77-20.807 19.792h-.026V50h10.416V20.833c0-5.753 4.664-10.416 10.417-10.416s10.417 4.663 10.417 10.416S130.753 31.25 125 31.25c-.714 0-1.41-.072-2.083-.209v10.522c.685.068 1.38.104 2.083.104 11.506 0 20.833-9.328 20.833-20.834S136.506 0 125 0" fill="#F2594B"/><path d="M47.917 41.667c4.726 0 9.083-1.576 12.578-4.228a25 25 0 0 1-5.219-9.234 10.384 10.384 0 0 1-7.36 3.045c-5.752 0-10.416-4.664-10.416-10.417H27.083c0 11.506 9.328 20.834 20.834 20.834" fill="#FF999D"/><path d="M89.583 20.833c0 5.753-4.663 10.417-10.416 10.417S68.75 26.586 68.75 20.833C68.75 9.327 59.423 0 47.917 0 36.41 0 27.083 9.327 27.083 20.833H37.5c0-5.753 4.664-10.416 10.417-10.416s10.416 4.663 10.416 10.416c0 11.506 9.328 20.834 20.834 20.834S100 32.339 100 20.833H89.583z" fill="#F2594B"/><path d="M79.167 0a20.738 20.738 0 0 0-12.579 4.228 25 25 0 0 1 5.219 9.234 10.384 10.384 0 0 1 7.36-3.045c5.753 0 10.416 4.663 10.416 10.416H100C100 9.327 90.673 0 79.167 0" fill="#FF999D"/></g></svg>