<svg width="645" height="137" viewBox="0 0 645 137" xmlns="http://www.w3.org/2000/svg" xmlns:xlink="http://www.w3.org/1999/xlink"><title>logo/reflame</title><defs><path id="a" d="M0 .191v87.984h37.205V.191H0z"/><path id="c" d="M0 136.964h644.855V0H0z"/></defs><g fill="none" fill-rule="evenodd"><path d="M30.74 44.484c-.797 7.287.184 14.392 1.805 20.777 1.523 6.364 4.302 13.838 7.451 21.93 12.898 28.147 1.606 49.906 1.31 49.77 1.075.295 23.951-19.097 24.567-44.48.795-7.287-.184-14.393-1.806-20.779-1.521-6.363-4.303-13.836-7.45-21.93C43.717 21.627 55.01-.133 55.306.003 54.232-.293 31.355 19.1 30.74 44.484z" fill="#F2594B"/><path d="M39.575 17.564c-.044.014-.117.082-.206.174-4.56 7.367-8.383 16.575-8.628 26.747-.799 7.287.183 14.39 1.804 20.776 1.523 6.364 4.302 13.839 7.451 21.93 12.563 27.414 2.183 48.762 1.36 49.724l.14.002c2.408-.982 23.783-19.907 24.377-44.437.795-7.285-.184-14.392-1.806-20.777-1.521-6.364-4.303-13.837-7.45-21.93-2.298-5.014-3.816-9.818-4.78-14.34-6.983-10.87-11.658-17.718-12.262-17.87" fill="#F2594B"/><g transform="translate(0 47.964)"><mask id="b" fill="#fff"><use xlink:href="#a"/></mask><path d="M35.249 80.296c.79-2.135 1.362-5.184 1.719-8.878.914-9.5-.812-19.1-5.134-28.534l-.107-.234-.095-.24c-3-7.71-6.073-15.839-7.796-23.016C22.112 12.582 21.36 6.26 21.53.191A2156.538 2156.538 0 0 0 6.797 27.225C-8.428 55.45 2.773 83.218 31.913 88.175c1.363-3.066 2.689-6.132 3.336-7.879" fill="#CC4842" mask="url(#b)"/></g><path d="M75.468 73.346a3840.728 3840.728 0 0 0-2.993-4.905c.098.388.208.78.301 1.164 2.131 8.419 2.801 16.098 2.045 23.46-.48 15.329-7.683 28.189-13.668 36.302a83.358 83.358 0 0 1-4.32 5.38C83.23 126.96 91.603 99.71 75.467 73.347" fill="#FF8680"/><path d="M79.552 17.02c-.513 3.497-3.796 5.922-7.335 5.415-3.536-.507-5.988-3.754-5.477-7.25.512-3.498 3.796-5.923 7.334-5.418 3.539.507 5.99 3.754 5.478 7.252M83.918 36.358c-.344 2.35-2.55 3.98-4.927 3.638-2.379-.34-4.026-2.522-3.682-4.87.344-2.35 2.551-3.98 4.93-3.64 2.376.341 4.023 2.522 3.68 4.872M94.187 22.95c-.217 1.482-1.608 2.509-3.108 2.295-1.499-.214-2.538-1.59-2.32-3.073.216-1.481 1.608-2.51 3.107-2.295 1.498.215 2.538 1.59 2.321 3.073" fill="#F2594B"/><path d="M177.51 85.675h-11.416v30.968h-21.093v-87.54h34.431c10.377 0 18.492 2.3 24.34 6.902 5.852 4.61 8.775 11.121 8.775 19.517 0 6.088-1.23 11.136-3.692 15.138-2.469 4.01-6.323 7.25-11.569 9.736l18.27 35.347v.9h-22.6l-15.447-30.968zm-11.416-16.23h13.338c4.008 0 7.023-1.055 9.046-3.164 2.023-2.116 3.04-5.048 3.04-8.835 0-3.77-1.024-6.74-3.07-8.889-2.039-2.147-5.047-3.224-9.016-3.224h-13.338v24.111zM259.514 117.842c-9.977 0-18.054-2.97-24.223-8.927-6.162-5.949-9.254-13.699-9.254-23.234v-1.686c0-6.649 1.23-12.529 3.7-17.616 2.462-5.087 6.062-9.027 10.785-11.813 4.723-2.794 10.338-4.179 16.83-4.179 9.13 0 16.347 2.832 21.63 8.504 5.294 5.68 7.932 13.583 7.932 23.72v7.88h-40.262c.724 3.64 2.308 6.51 4.747 8.596 2.446 2.078 5.615 3.125 9.5 3.125 6.407 0 11.415-2.248 15.023-6.734l9.254 10.943c-2.524 3.486-6.1 6.257-10.731 8.327-4.623 2.07-9.608 3.094-14.931 3.094m-2.285-51.825c-5.93 0-9.453 3.933-10.577 11.783h20.43v-1.562c.086-3.248-.737-5.765-2.46-7.542-1.723-1.786-4.185-2.679-7.393-2.679M354.788 81.77h-34.014v34.87H299.68V29.1h58.531V45.39h-37.438V65.54h34.015z" fill="#444"/><mask id="d" fill="#fff"><use xlink:href="#c"/></mask><path fill="#444" mask="url(#d)" d="M370.8 116.645h20.315V24.294H370.8zM443.9 116.645c-.715-1.324-1.354-3.271-1.923-5.834-3.723 4.687-8.93 7.035-15.623 7.035-6.13 0-11.33-1.855-15.623-5.565-4.293-3.701-6.43-8.365-6.43-13.975 0-7.058 2.607-12.383 7.814-15.993 5.2-3.61 12.777-5.41 22.716-5.41h6.246v-3.448c0-6.002-2.585-8.996-7.754-8.996-4.808 0-7.208 2.37-7.208 7.126h-20.253c0-6.287 2.676-11.39 8.023-15.315 5.346-3.925 12.17-5.887 20.461-5.887 8.292 0 14.846 2.024 19.654 6.072 4.808 4.056 7.27 9.605 7.392 16.654v28.806c.085 5.972 1 10.543 2.762 13.706v1.024H443.9zm-12.677-13.23c2.523 0 4.623-.538 6.277-1.623 1.662-1.085 2.854-2.31 3.577-3.663V87.724h-5.885c-7.054 0-10.577 3.163-10.577 9.496 0 1.847.623 3.34 1.862 4.479 1.238 1.147 2.823 1.717 4.746 1.717zM495.435 51.588l.663 7.634c4.606-5.887 10.791-8.835 18.569-8.835 8.207 0 13.76 3.27 16.645 9.797 4.409-6.526 10.778-9.797 19.108-9.797 13.185 0 19.954 7.973 20.316 23.927v42.328H550.42V75.576c0-3.324-.561-5.75-1.676-7.272-1.124-1.524-3.163-2.286-6.132-2.286-4.007 0-6.991 1.778-8.953 5.349l.062.846v44.429h-20.317V75.699c0-3.41-.538-5.872-1.623-7.395-1.084-1.524-3.146-2.286-6.192-2.286-3.885 0-6.846 1.778-8.892 5.349v45.275h-20.254V51.588h18.993zM617.455 117.842c-9.977 0-18.054-2.97-24.223-8.927-6.162-5.949-9.254-13.699-9.254-23.234v-1.686c0-6.649 1.23-12.529 3.7-17.616 2.462-5.087 6.062-9.027 10.785-11.813 4.723-2.794 10.338-4.179 16.83-4.179 9.13 0 16.347 2.832 21.63 8.504 5.294 5.68 7.932 13.583 7.932 23.72v7.88h-40.262c.724 3.64 2.308 6.51 4.747 8.596 2.446 2.078 5.615 3.125 9.5 3.125 6.407 0 11.415-2.248 15.023-6.734l9.253 10.943c-2.523 3.486-6.1 6.257-10.73 8.327-4.623 2.07-9.608 3.094-14.931 3.094m-2.285-51.825c-5.93 0-9.453 3.933-10.577 11.783h20.43v-1.562c.086-3.248-.737-5.765-2.46-7.542-1.723-1.786-4.185-2.679-7.393-2.679"/></g></svg>