<svg xmlns="http://www.w3.org/2000/svg" viewBox="0 0 137.55 148.6"><defs><style>.cls-1{fill:#fff}</style></defs><title>icon-snav-04</title><g id="レイヤー_2" data-name="レイヤー 2"><path class="cls-1" d="M131.68 46H108.1v-7c-.15-22.34-16.9-39-39.33-39S29.6 16.66 29.43 39v7H5.86A5.89 5.89 0 0 0 0 51.9v90.81a5.89 5.89 0 0 0 5.86 5.88h125.82a5.89 5.89 0 0 0 5.87-5.88V51.9a5.89 5.89 0 0 0-5.87-5.9zM73 100.9l3.13 23.72H61.47l3.14-23.72C58.47 98.69 52.9 92.88 52.9 86a15.93 15.93 0 1 1 31.85 0c0 6.88-5.59 12.69-11.75 14.9zM95.13 46H42.41v-7 .12C42.52 25.52 55.13 13 68.77 13S95 25.52 95.12 39.16v-.12z" id="レイヤー_1-2" data-name="レイヤー 1"/></g></svg>