<svg id="Layer_1" xmlns="http://www.w3.org/2000/svg" width="215" height="38.8" viewBox="0 0 215 38.8"><style>.st0{fill:#f15b4e}.st1{fill:#666}</style><path class="st0" d="M17.6.3C7.9.3 0 8.2 0 17.9c0 4.7 1.9 9 4.8 12.1l-2.3 8.7 7.7-4.8c2.2 1 4.7 1.6 7.3 1.6 9.7 0 17.6-7.9 17.6-17.6S27.2.3 17.6.3zm0 31.5c-7.7 0-13.9-6.2-13.9-13.9S9.8 4 17.6 4s13.9 6.2 13.9 13.9-6.2 13.9-13.9 13.9z"/><path class="st0" d="M26.9 24.5h-3.1v-8.4c0-.7-.2-1.3-.7-1.8-.4-.5-.9-.7-1.6-.7s-1.2.2-1.7.7c-.4.5-.6 1.1-.6 1.8v8.4H16v-8.4c0-.7-.2-1.3-.6-1.8-.4-.4-.9-.6-1.6-.6-.6 0-1.2.2-1.6.7-.4.5-.7 1.1-.7 1.8v8.4H8.3v-8.4c0-1.5.5-2.8 1.5-4 1.1-1.1 2.4-1.7 3.9-1.7s2.8.5 3.9 1.6c1-1 2.3-1.6 3.9-1.6 1.5 0 2.8.5 3.9 1.7 1 1.1 1.6 2.5 1.6 4l-.1 8.3z"/><path class="st1" d="M65.4 30.9h-3.3v-3.3c-2.4 2.7-5.2 4-8.4 4s-5.9-1.2-8.2-3.5-3.4-5.1-3.4-8.4 1.1-6 3.4-8.4 5-3.5 8.3-3.5 6 1.3 8.3 4V8.4h3.3v22.5zm-11.5-2.5c2.3 0 4.3-.8 5.9-2.5 1.6-1.6 2.5-3.7 2.5-6.1 0-2.5-.8-4.5-2.4-6.2-1.6-1.7-3.6-2.5-5.9-2.5s-4.4.9-6 2.6-2.4 3.8-2.4 6.1.8 4.4 2.5 6.1c1.5 1.6 3.5 2.5 5.8 2.5zm36.9 2.5h-3.4V20.2c0-2.5-.1-4.2-.3-5-.2-.9-.6-1.6-1-2.3-.4-.6-1-1.1-1.7-1.4-.7-.3-1.5-.4-2.6-.4-1 0-2 .2-2.9.7s-1.8 1.2-2.5 2.1c-.7.9-1.1 1.8-1.4 2.8-.2 1-.4 3-.4 5.9v8.3h-3.4V8.5h3.4v3.4c2.2-2.6 4.8-4 7.9-4 1.6 0 3.1.4 4.4 1.2s2.3 2 3 3.5c.6 1.5 1 3.7 1 6.8-.1 0-.1 11.5-.1 11.5zm27.8 0h-3.3v-3.3c-2.4 2.7-5.2 4-8.4 4s-5.9-1.2-8.2-3.5c-2.3-2.3-3.4-5.1-3.4-8.4s1.1-6 3.4-8.4c2.3-2.3 5-3.5 8.3-3.5s6 1.3 8.3 4V8.4h3.3v22.5zm-11.5-2.5c2.3 0 4.3-.8 5.9-2.5 1.6-1.6 2.5-3.7 2.5-6.1 0-2.5-.8-4.5-2.4-6.2s-3.6-2.5-5.9-2.5-4.3.8-5.9 2.6-2.4 3.8-2.4 6.1.8 4.4 2.5 6.1c1.4 1.6 3.3 2.5 5.7 2.5zm20.2 2.5h-3.4V0h3.4v30.9zm24.4-22.5l-13.3 30.4h-3.5l4.3-9.9L130 8.4h3.5l7.4 16.4L148 8.4h3.7zm13.2 3h-4.5v15.7c0 .6.1.9.2 1 .1.1.6.2 1.2.2h2v2.9c-1.3.2-2.3.3-3 .3-1.3 0-2.3-.3-2.9-1-.6-.6-.9-1.7-.9-3.1v-16h-3.9v-3h3.9V0h3.4v8.4h4.5v3zM169.8 0c.7 0 1.4.2 1.9.7s.7 1.1.7 1.8-.2 1.3-.7 1.8-1.1.7-1.8.7-1.3-.2-1.8-.8c-.5-.5-.7-1.1-.7-1.8s.2-1.3.7-1.8c.4-.4 1-.6 1.7-.6zm1.7 30.9h-3.4V8.5h3.4v22.4zm27.1-4.6c-1.2 1.7-2.7 3.1-4.6 4-1.9.9-4 1.3-6.2 1.3-3.5 0-6.3-1.1-8.7-3.4-2.3-2.3-3.5-5-3.5-8.4s1.2-6.1 3.5-8.5c2.3-2.3 5.3-3.5 9-3.5 2.2 0 4.2.5 6.1 1.4 1.8.9 3.3 2.3 4.4 4l-2.7 1.7c-2-2.6-4.6-3.9-7.9-3.9-2.6 0-4.7.8-6.4 2.4s-2.6 3.7-2.6 6.1.8 4.5 2.6 6.2c1.7 1.7 3.9 2.6 6.5 2.6 3.1 0 5.7-1.3 7.9-4l2.6 2zM215 11.1l-2.2 2.3c-1.6-1.5-3.1-2.3-4.5-2.3-.8 0-1.6.2-2.1.8-.6.5-.8 1.2-.8 2s.3 1.5 1 2.1c.6.6 1.8 1.3 3.4 2.2 1.6.8 2.9 1.8 3.8 2.9.9 1 1.3 2.3 1.3 3.8 0 1.9-.6 3.5-2 4.8-1.3 1.3-3 2-4.9 2-2.7 0-5-1.1-6.8-3.5l2.1-2.4c1.5 1.7 3 2.6 4.5 2.6 1 0 1.9-.3 2.7-1 .7-.7 1.1-1.5 1.1-2.4s-.3-1.7-1-2.3c-.7-.6-1.8-1.3-3.5-2.2s-2.9-1.7-3.7-2.7-1.2-2.3-1.2-4 .6-3 1.8-4.2 2.8-1.7 4.7-1.7c2.1 0 4.1 1 6.3 3.2z"/></svg>