<svg version="1" xmlns="http://www.w3.org/2000/svg" width="933.333" height="933.333" viewBox="0 0 700.000000 700.000000"><path d="M328.8 15.6c-.3.2-3.1.6-6.4.8-5.9.5-13.7 1.4-18.4 2.2-20.6 3.4-35.1 7-51.5 12.6-7.7 2.7-14.4 5-15 5.1-.5.2-3.2 1.3-5.9 2.5s-5.1 2.2-5.3 2.2c-1 0-24.8 12.2-31.8 16.2-26.7 15.6-55.3 39.2-76.5 63.3-33.5 38.1-58 86.4-68.9 136-2.1 9.6-2.5 12-4.1 23-1.7 11.7-1.9 13.7-2.5 23.5-1 16-.3 51.7 1.1 54.1.2.3.6 3 .9 6 2.5 22.9 11.2 55.5 21.1 79.3 2.4 5.7 12.3 25.9 15.5 31.6 3.3 5.9 10.4 17.5 10.9 18 .4.3 2.6 3.4 5 7 5.3 7.9 17.6 23.4 24.8 31.1 2.8 3.1 5.2 6.2 5.2 6.8 0 .6-1.6 6.8-3.5 13.8-3.9 14.2-17.4 64.9-18 67.3-.1.8-1 4-1.9 7.1-.9 3.1-1.8 6.5-2 7.5-.2 1.1-3.4 13-7 26.5-6.8 25.3-7.7 28.9-7.2 28.9.4 0 13.4-8.2 87.7-55 24.9-15.7 45.6-28.6 46-28.8.4-.2 6.9 2.2 14.5 5.1 12.1 4.8 27 9.7 36.9 12.3 1.7.4 3.2.8 3.5.9.9.2 11.4 2.5 14 3 10.9 2.1 14.4 2.7 21 3.6 21.2 2.8 62.7 3 75.5.4 1.1-.2 4.3-.7 7-1 17.1-2.1 54.2-11.4 65-16.4 1.1-.5 6.5-2.8 12-5.1 36.8-15.4 68.2-36.6 98-66.5 39.8-39.8 66.8-87.3 80.6-141.6 3.5-14 3.4-13.7 4.3-20.3.4-2.7.9-5.2 1.1-5.6.2-.3.7-3.5 1-7 .4-3.6.8-6.7 1-7 .6-1 1.8-22.8 1.8-33.5.1-10.2-.9-30.8-1.7-36.5-.2-1.4-.7-5.4-1.1-9-.4-3.6-.9-6.8-1.1-7.1-.2-.4-.6-2.8-.9-5.5-1-7.9-8-33.9-12.8-47.4-8-22.4-16.6-40.1-29.6-61-3.6-5.8-6.8-10.7-7.1-11-.3-.3-2.2-2.8-4.1-5.5-1.8-2.8-3.6-5.2-3.9-5.5-.3-.3-2.5-3-4.9-6-25.8-32.9-63.6-63.6-101.9-82.9-26.8-13.5-59.6-24.2-87.8-28.7-2-.3-4.6-.7-5.8-1-1.1-.2-4.8-.7-8.1-1-3.3-.3-7.1-.8-8.5-1.1-3-.6-49.7-1.3-50.2-.7zM380 79.5c1.9.3 7.6 1.3 12.5 2.1 8.8 1.4 30 6.6 34 8.3 1.1.5 6.1 2.3 11 4.1 38.9 14 78.9 43.4 106.1 78 24.6 31.1 44.3 76.4 49 112 .2 1.9.7 4.6.9 6 2.5 13.5 2.6 47.1.1 65.5-7.1 52.8-32 103.1-69.7 140.5-15 14.9-21.5 20.2-38.3 31.5-39.5 26.3-86 40.5-133.9 40.7-10.4 0-27.4-.9-31.6-1.7-1-.2-4.2-.6-7.2-1-7.4-.9-28.7-6-38.4-9.2-26.7-8.7-55.1-24-77.3-41.6-4.2-3.3-13.6-12-20.7-19.1-28.2-28.4-48.7-62.2-60.5-100.1-2.9-9.2-6.9-26.4-8.4-36.5-2.2-14.3-2.9-46.4-1.2-61 1.3-12.4 1.5-13.4 2.1-16.5 3-14.5 3.9-18.8 6.1-26.2 5.1-17.6 14.5-39.8 23.4-55.3 3.1-5.4 14.9-23 16-24 .4-.3 1.3-1.4 2.1-2.6 5.5-8.1 24.5-27.9 35.9-37.6 37-31.4 85.9-52.3 132-56.4 4.1-.3 7.7-.8 8-1.1.6-.6 43.8.4 48 1.2z"/><path d="M273.9 193.4c-.2.2-2.4.7-4.9 1-32.7 4.4-63.6 31.5-74.9 65.8-4.9 15-5.1 18.7-5.1 101.9V440h27.5c15.1 0 27.5-.3 27.5-.8.1-.4.1-34.9.2-76.7 0-69 .2-76.6 1.8-82.5 3.2-12.1 10-21.1 20.5-27.4 13.9-8.3 34.9-5.6 46 5.8 4.4 4.6 9.6 14.2 11 20.6.5 1.9.9 37.9 1.1 80 .1 42.1.3 77.4.3 78.6.1 2 .5 2 27.1 2 14.9 0 27-.2 27.1-.5 0-.4.2-35.9.3-79.1.2-56.7.6-79.3 1.4-81.3.6-1.5.9-2.7.7-2.7-.7 0 4.1-10.7 5.7-12.6 6.2-7.6 13.1-12.5 19.8-14 1.9-.4 4.2-.9 5-1.1 2.4-.5 12.2-.4 15.5.2 1.7.3 5.9 2 9.4 3.8 6.8 3.3 14.2 11 18.1 18.7 4.6 9.1 4.8 11.7 4.8 86.1.1 38.7.1 73.2.2 76.6v6.3h54.8v-78c0-93.9-.1-94-11.5-116.5-13.5-26.6-40.5-46.8-68.3-51.2-5.8-.9-23.9-1-31-.1-6.4.8-20.6 5.1-26.5 8-5.6 2.8-16.2 10.1-21.4 14.8l-4.5 3.9-4.7-4.4c-5.3-4.9-16-12-22.9-15.2-4.6-2.1-15.6-5.5-22-6.8-4-.8-27.4-1.7-28.1-1.1z"/></svg>