<svg id="icon-reason-02.svg" xmlns="http://www.w3.org/2000/svg" viewBox="0 0 93.7 74"><style>.st0,.st1{fill:#f2594b}.st1{stroke:#fff;stroke-width:3;stroke-linejoin:round}</style><path id="database" class="st0" d="M37.6 3c4.1 0 8.2.2 12.3.8 3.4.4 6.8 1.1 10.1 2.1 2.4.7 4.7 1.8 6.8 3.2 1.6 1.2 2.5 2.5 2.5 3.8v7.9c0 1.4-.8 2.6-2.5 3.8-2.1 1.4-4.4 2.5-6.8 3.2-3.3 1-6.7 1.7-10.1 2.1-8.2 1-16.5 1-24.7 0-3.4-.4-6.8-1.1-10.1-2.1-2.4-.7-4.7-1.8-6.8-3.2C6.8 23.4 6 22.2 6 20.8v-7.9c0-1.4.8-2.6 2.5-3.8 2.1-1.4 4.4-2.5 6.8-3.2 3.3-1 6.7-1.7 10.1-2.1 4-.6 8.1-.8 12.2-.8zm0 33.6c4.1 0 8.2-.2 12.3-.8 3.4-.4 6.8-1.1 10.1-2.1 2.4-.7 4.7-1.8 6.8-3.2 1.6-1.2 2.5-2.5 2.5-3.8v11.9c0 1.4-.8 2.6-2.5 3.8-2.1 1.4-4.4 2.5-6.8 3.2-3.3 1-6.7 1.7-10.1 2.1-8.2 1-16.5 1-24.7 0-3.4-.4-6.8-1.1-10.1-2.1-2.4-.7-4.7-1.7-6.8-3.2C6.8 41.2 6 39.9 6 38.6V26.7c0 1.4.8 2.6 2.5 3.8 2.1 1.4 4.4 2.5 6.8 3.2 3.3 1 6.7 1.7 10.1 2.1 4 .6 8.1.8 12.2.8zm0 17.8c4.1 0 8.2-.2 12.3-.8 3.4-.4 6.8-1.1 10.1-2.1 2.4-.7 4.7-1.8 6.8-3.2 1.6-1.2 2.5-2.5 2.5-3.8v11.9c0 1.4-.8 2.6-2.5 3.8-2.1 1.4-4.4 2.5-6.8 3.2-3.3 1-6.7 1.7-10.1 2.1-8.2 1-16.5 1-24.7 0-3.4-.4-6.8-1.1-10.1-2.1-2.4-.7-4.7-1.8-6.8-3.2C6.8 59 6 57.7 6 56.4V44.5c0 1.4.8 2.6 2.5 3.8 2.1 1.4 4.4 2.5 6.8 3.2 3.3 1 6.7 1.7 10.1 2.1 4 .6 8.1.8 12.2.8z"/><path id="tick" class="st1" d="M91.6 40.8l-30 30-18-18 7.5-7.5 10.5 10.5 22.5-22.5 7.5 7.5z"/></svg>