<svg xmlns="http://www.w3.org/2000/svg" viewBox="0 0 229 187.1"><defs><style>.cls-1,.cls-7{fill:#b3b3b3}.cls-13,.cls-15,.cls-2{fill:#ccc}.cls-3{fill:#999}.cls-4{fill:#f2f2f2}.cls-12,.cls-5,.cls-8{fill:#fff}.cls-5{stroke:#999;stroke-width:12px}.cls-13,.cls-14,.cls-15,.cls-5,.cls-6,.cls-7{stroke-miterlimit:10}.cls-14,.cls-6{fill:none}.cls-13,.cls-6,.cls-7{stroke:#b3b3b3}.cls-13,.cls-14,.cls-15,.cls-6,.cls-7{stroke-width:5px}.cls-9{fill:#fc3}.cls-10{fill:#f15b4e}.cls-11{fill:#333}.cls-12{font-size:6.16px;font-family:HiraKakuPro-W3-90ms-RKSJ-H,Hiragino Kaku Gothic Pro}.cls-14,.cls-15{stroke:#ccc}</style></defs><title>img-tool-08</title><g id="レイヤー_2" data-name="レイヤー 2"><g id="_6" data-name="6"><path class="cls-1" d="M146.39 187.1H82.61l10.45-26.72h45.33l8 26.72z"/><rect class="cls-2" y=".29" width="229" height="160" rx="8.62" ry="8.62"/><path class="cls-3" d="M9.21 0H219.1a9.9 9.9 0 0 1 9.9 9.9v128a.73.73 0 0 1-.73.73H.73a.73.73 0 0 1-.73-.73V9.21A9.21 9.21 0 0 1 9.21 0z"/><path class="cls-4" d="M18.25 11.04h192.5v116.5H18.25z"/><path class="cls-5" d="M42.17 50.71h60.95v61.7H42.17z"/><path class="cls-6" d="M42.12 43.12h57.6a6.43 6.43 0 0 1 6.43 6.43v63.52a6.43 6.43 0 0 1-6.43 6.43H43.54a6.43 6.43 0 0 1-6.43-6.43V48.13a5 5 0 0 1 5.01-5.01z"/><path class="cls-7" d="M37.12 114h69a5.5 5.5 0 0 1-5.5 5.5h-58a5.5 5.5 0 0 1-5.5-5.5z"/><path class="cls-7" d="M37.12 43.14h69v.08a6.43 6.43 0 0 1-6.43 6.43H43.54a6.43 6.43 0 0 1-6.43-6.43v-.08h.01z" transform="rotate(180 71.635 46.39)"/><circle class="cls-8" cx="41.43" cy="46.88" r="1.19"/><circle class="cls-8" cx="44.45" cy="46.88" r="1.19"/><circle class="cls-8" cx="47.46" cy="46.88" r="1.19"/><path class="cls-1" d="M39.6 109.7h64.69v1.2a6.43 6.43 0 0 1-6.43 6.43H46a6.43 6.43 0 0 1-6.43-6.43v-1.2h.03z"/><rect class="cls-9" x="58.55" y="68.92" width="26.88" height="25.84" rx="5" ry="5"/><path class="cls-10" d="M72 72.84a8.26 8.26 0 0 0-6 13.93l-1.08 4.08 3.61-2.25A8.25 8.25 0 1 0 72 72.84zm0 14.77a6.52 6.52 0 1 1 6.52-6.52A6.5 6.5 0 0 1 72 87.61z"/><path class="cls-10" d="M76.37 84.19h-1.45v-3.94a1.13 1.13 0 0 0-.33-.84.87.87 0 0 0-.75-.33 1 1 0 0 0-.8.33 1.31 1.31 0 0 0-.28.84v3.94h-1.5v-3.94a1.31 1.31 0 0 0-.28-.84 1 1 0 0 0-.75-.28.93.93 0 0 0-.75.33 1.35 1.35 0 0 0-.33.84v3.94h-1.5V80.3a2.83 2.83 0 0 1 .7-1.88 2.52 2.52 0 0 1 1.83-.8 2.48 2.48 0 0 1 1.83.75 2.51 2.51 0 0 1 1.83-.75 2.36 2.36 0 0 1 1.83.8 2.79 2.79 0 0 1 .75 1.88z"/><path class="cls-11" d="M51.77 98.43a1.23 1.23 0 0 0-.11-.18l-.21-.25-.22.3a1.18 1.18 0 0 0-.1.17h-.39l.17-.2.36-.47-.27-.46-.15-.19h.37a1 1 0 0 0 .1.17l.18.25.18-.25a1.08 1.08 0 0 0 .1-.17h.37l-.15.19-.32.42.35.45.18.21zM53.25 98.43a1.23 1.23 0 0 0-.11-.18l-.21-.25-.22.3a1.18 1.18 0 0 0-.1.17h-.39l.17-.2.36-.47-.33-.42-.15-.19h.37a1 1 0 0 0 .1.17l.18.25.18-.25a1.08 1.08 0 0 0 .1-.17h.37l-.15.19-.32.42.35.45.18.21zM54.72 98.43a1.23 1.23 0 0 0-.11-.18L54.4 98l-.22.3a1.18 1.18 0 0 0-.1.17h-.38l.17-.2.36-.47-.33-.42-.15-.19h.37a1 1 0 0 0 .1.17l.18.25.18-.25a1.08 1.08 0 0 0 .1-.17h.37l-.15.19-.32.42.35.45.18.21zM56.2 98.43a1.23 1.23 0 0 0-.11-.18l-.22-.25-.22.3a1.18 1.18 0 0 0-.1.17h-.39l.17-.2.36-.47-.33-.42-.15-.19h.37a1 1 0 0 0 .1.17l.18.25.18-.25a1.08 1.08 0 0 0 .1-.17h.37l-.15.19-.32.42.35.45.18.21zM57.67 98.43a1.23 1.23 0 0 0-.11-.18l-.21-.25-.22.3a1.18 1.18 0 0 0-.1.17h-.39l.17-.2.36-.47-.33-.42-.15-.19h.37a1 1 0 0 0 .1.17l.18.25.18-.25a1.08 1.08 0 0 0 .1-.17H58l-.15.19-.32.42.35.45.18.21zM59.14 98.43a1.23 1.23 0 0 0-.11-.18l-.21-.25-.22.3a1.18 1.18 0 0 0-.1.17h-.39l.17-.2.36-.47-.33-.42-.15-.19h.37a1 1 0 0 0 .1.17l.18.25.18-.25a1.08 1.08 0 0 0 .1-.17h.37l-.15.19-.32.42.35.45.18.21zM60.62 98.43a1.23 1.23 0 0 0-.11-.18L60.3 98l-.22.3a1.18 1.18 0 0 0-.1.17h-.39l.17-.2.36-.47-.33-.42-.15-.19H60a1 1 0 0 0 .1.17l.18.25.18-.25a1.08 1.08 0 0 0 .1-.17H61l-.15.19-.32.42.35.45.18.21zM62.09 98.43a1.23 1.23 0 0 0-.11-.18l-.21-.25-.22.3a1.18 1.18 0 0 0-.1.17h-.39l.17-.2.36-.47-.33-.42-.15-.19h.37a1 1 0 0 0 .1.17l.18.25.18-.25a1.08 1.08 0 0 0 .1-.17h.37l-.15.19-.32.42.35.45.18.21zM63.56 98.43a1.23 1.23 0 0 0-.11-.18l-.21-.25-.22.3a1.18 1.18 0 0 0-.1.17h-.39l.17-.2.36-.47-.33-.42-.15-.19H63a1 1 0 0 0 .1.17l.18.25.18-.25a1.08 1.08 0 0 0 .1-.17h.37l-.15.19-.32.42.35.45.18.21zM65 98.43a1.23 1.23 0 0 0-.11-.18l-.17-.25-.22.3a1.18 1.18 0 0 0-.1.17H64l.17-.2.36-.47-.33-.42-.15-.19h.37a1 1 0 0 0 .1.17l.18.25.18-.25a1.08 1.08 0 0 0 .1-.17h.37l-.15.19-.32.42.35.45.18.21zM66.51 98.43a1.23 1.23 0 0 0-.11-.18l-.21-.25-.22.3a1.18 1.18 0 0 0-.1.17h-.39l.17-.2.36-.47-.33-.42-.15-.19h.37a1 1 0 0 0 .1.17l.18.25.18-.25a1.08 1.08 0 0 0 .1-.17h.37l-.15.19-.32.42.35.45.18.21zM68 98.43a1.23 1.23 0 0 0-.11-.18l-.23-.25-.22.3a1.18 1.18 0 0 0-.1.17H67l.17-.2.36-.47-.33-.42-.2-.23h.37a1 1 0 0 0 .1.17l.18.25.18-.25a1.08 1.08 0 0 0 .1-.17h.37l-.15.19-.32.42.35.45.18.21zM69.46 98.43a1.23 1.23 0 0 0-.11-.18l-.21-.25-.22.3a1.18 1.18 0 0 0-.1.17h-.39l.17-.2.36-.47-.33-.42-.15-.19h.37a1 1 0 0 0 .1.17l.18.25.18-.25a1.08 1.08 0 0 0 .1-.17h.37l-.15.19-.32.42.35.45.18.21zM70.93 98.43a1.23 1.23 0 0 0-.11-.18l-.21-.25-.22.3a1.18 1.18 0 0 0-.1.17h-.39l.17-.2.36-.47-.33-.42-.1-.23h.37a1 1 0 0 0 .1.17l.18.25.18-.25a1.08 1.08 0 0 0 .1-.17h.37l-.15.19-.32.42.35.45.18.21zM72.41 98.43a1.23 1.23 0 0 0-.11-.18l-.22-.25-.22.3a1.18 1.18 0 0 0-.1.17h-.39l.17-.2.36-.47-.33-.42-.15-.19h.37a1 1 0 0 0 .1.17l.18.25.18-.25a1.08 1.08 0 0 0 .1-.17h.37l-.15.19-.32.42.35.45.18.21zM51.77 101.41a1.23 1.23 0 0 0-.11-.18l-.21-.29-.22.3a1.18 1.18 0 0 0-.1.17h-.39l.17-.2.36-.47-.33-.42-.15-.19h.37a1 1 0 0 0 .1.17l.18.25.18-.25a1.08 1.08 0 0 0 .1-.17h.37l-.15.19-.32.42.35.45.18.21zM53.25 101.41a1.23 1.23 0 0 0-.11-.18l-.21-.29-.22.3a1.18 1.18 0 0 0-.1.17h-.39l.17-.2.36-.47-.33-.42-.15-.19h.37a1 1 0 0 0 .1.17l.18.25.18-.25a1.08 1.08 0 0 0 .1-.17h.37l-.15.19-.32.42.35.45.18.21zM54.72 101.41a1.23 1.23 0 0 0-.11-.18l-.21-.29-.22.3a1.18 1.18 0 0 0-.1.17h-.38l.17-.2.36-.47-.33-.42-.15-.19h.37a1 1 0 0 0 .1.17l.18.25.18-.25a1.08 1.08 0 0 0 .1-.17h.37l-.15.19-.32.42.35.45.18.21zM56.2 101.41a1.23 1.23 0 0 0-.11-.18l-.21-.29-.22.3a1.18 1.18 0 0 0-.1.17h-.39l.17-.2.36-.47-.33-.42-.15-.19h.37a1 1 0 0 0 .1.17l.18.25.18-.25a1.08 1.08 0 0 0 .1-.17h.37l-.15.19-.32.42.35.45.18.21zM57.67 101.41a1.23 1.23 0 0 0-.11-.18l-.21-.29-.22.3a1.18 1.18 0 0 0-.1.17h-.39l.17-.2.36-.47-.33-.42-.15-.19h.37a1 1 0 0 0 .1.17l.18.25.18-.25a1.08 1.08 0 0 0 .1-.17H58l-.15.19-.32.42.35.45.18.21zM59.14 101.41a1.23 1.23 0 0 0-.11-.18l-.21-.29-.22.3a1.18 1.18 0 0 0-.1.17h-.39l.17-.2.36-.47-.33-.42-.15-.19h.37a1 1 0 0 0 .1.17l.18.25.18-.25a1.08 1.08 0 0 0 .1-.17h.37l-.15.19-.32.42.35.45.18.21zM60.62 101.41a1.23 1.23 0 0 0-.11-.18l-.21-.29-.22.3a1.18 1.18 0 0 0-.1.17h-.39l.17-.2.36-.47-.33-.42-.15-.19H60a1 1 0 0 0 .1.17l.18.25.18-.25a1.08 1.08 0 0 0 .1-.17H61l-.15.19-.32.42.35.45.18.21zM62.09 101.41a1.23 1.23 0 0 0-.11-.18l-.21-.29-.22.3a1.18 1.18 0 0 0-.1.17h-.39l.17-.2.36-.47-.33-.42-.15-.19h.37a1 1 0 0 0 .1.17l.18.25.18-.25a1.08 1.08 0 0 0 .1-.17h.37l-.15.19-.32.42.35.45.18.21zM63.56 101.41a1.23 1.23 0 0 0-.11-.18l-.21-.29-.22.3a1.18 1.18 0 0 0-.1.17h-.39l.17-.2.36-.47-.33-.42-.15-.19H63a1 1 0 0 0 .1.17l.18.25.18-.25a1.08 1.08 0 0 0 .1-.17h.37l-.15.19-.32.42.35.45.18.21zM65 101.41a1.23 1.23 0 0 0-.11-.18l-.21-.29-.22.3a1.18 1.18 0 0 0-.1.17H64l.17-.2.36-.47-.33-.42-.15-.19h.37a1 1 0 0 0 .1.17l.18.25.18-.25a1.08 1.08 0 0 0 .1-.17h.37l-.15.19-.32.42.35.45.18.21zM66.51 101.41a1.23 1.23 0 0 0-.11-.18l-.21-.29-.22.3a1.18 1.18 0 0 0-.1.17h-.39l.17-.2.36-.47-.33-.42-.15-.19h.37a1 1 0 0 0 .1.17l.18.25.18-.25a1.08 1.08 0 0 0 .1-.17h.37l-.15.19-.32.42.35.45.18.21zM68 101.41a1.23 1.23 0 0 0-.11-.18l-.21-.29-.22.3a1.18 1.18 0 0 0-.1.17H67l.17-.2.36-.47-.33-.42-.15-.19h.37a1 1 0 0 0 .1.17l.18.25.18-.25a1.08 1.08 0 0 0 .1-.17h.37l-.15.19-.32.42.35.45.18.21zM69.46 101.41a1.23 1.23 0 0 0-.11-.18l-.21-.29-.22.3a1.18 1.18 0 0 0-.1.17h-.39l.17-.2.36-.47-.33-.42-.15-.19h.37a1 1 0 0 0 .1.17l.18.25.18-.25a1.08 1.08 0 0 0 .1-.17h.37l-.15.19-.32.42.35.45.18.21zM70.93 101.41a1.23 1.23 0 0 0-.11-.18l-.21-.29-.22.3a1.18 1.18 0 0 0-.1.17h-.39l.17-.2.36-.47-.33-.42-.15-.19h.37a1 1 0 0 0 .1.17l.18.25.18-.25a1.08 1.08 0 0 0 .1-.17h.37l-.15.19-.32.42.35.45.18.21zM72.41 101.41a1.23 1.23 0 0 0-.11-.18l-.21-.29-.22.3a1.18 1.18 0 0 0-.1.17h-.39l.17-.2.36-.47-.33-.42-.15-.19h.37a1 1 0 0 0 .1.17l.18.25.18-.25a1.08 1.08 0 0 0 .1-.17h.37l-.15.19-.32.42.35.45.18.21zM73.88 101.41a1.23 1.23 0 0 0-.11-.18l-.21-.29-.22.3a1.18 1.18 0 0 0-.1.17h-.39l.17-.2.36-.47-.33-.42-.15-.19h.37a1 1 0 0 0 .1.17l.18.25.18-.25a1.08 1.08 0 0 0 .1-.17h.37l-.15.19-.32.42.35.45.18.21zM75.35 101.41a1.23 1.23 0 0 0-.11-.18l-.21-.29-.22.3a1.18 1.18 0 0 0-.1.17h-.39l.17-.2.36-.47-.33-.42-.15-.19h.37a1 1 0 0 0 .1.17l.18.25.18-.25a1.08 1.08 0 0 0 .1-.17h.37l-.15.19-.32.42.35.45.18.21zM76.83 101.41a1.23 1.23 0 0 0-.11-.18l-.21-.29-.22.3a1.18 1.18 0 0 0-.1.17h-.39l.17-.2.36-.47-.33-.42-.15-.19h.37a1 1 0 0 0 .1.17l.18.25.18-.25a1.08 1.08 0 0 0 .1-.17h.37l-.15.19-.32.42.35.45.18.21zM78.3 101.41a1.23 1.23 0 0 0-.11-.18l-.21-.29-.22.3a1.18 1.18 0 0 0-.1.17h-.39l.17-.2.36-.47-.33-.42-.15-.19h.37a1 1 0 0 0 .1.17l.18.25.18-.25a1.08 1.08 0 0 0 .1-.17h.37l-.15.19-.32.42.35.45.18.21zM79.77 101.41a1.23 1.23 0 0 0-.11-.18l-.21-.29-.22.3a1.18 1.18 0 0 0-.1.17h-.39l.17-.2.36-.47-.33-.42-.15-.19h.37a1 1 0 0 0 .1.17l.18.25.18-.25a1.08 1.08 0 0 0 .1-.17h.37l-.15.19-.32.42.35.45.18.21zM81.25 101.41a1.23 1.23 0 0 0-.11-.18l-.21-.29-.22.3a1.18 1.18 0 0 0-.1.17h-.39l.17-.2.36-.47-.33-.42-.15-.19h.37a1 1 0 0 0 .1.17l.18.25.18-.25a1.08 1.08 0 0 0 .1-.17h.37l-.15.19-.32.42.35.45.18.21zM82.72 101.41a1.23 1.23 0 0 0-.11-.18l-.21-.29-.22.3a1.18 1.18 0 0 0-.1.17h-.38l.17-.2.36-.47-.33-.42-.15-.19h.37a1 1 0 0 0 .1.17l.18.25.18-.25a1.08 1.08 0 0 0 .1-.17h.37l-.15.19-.32.42.35.45.18.21zM84.19 101.41a1.23 1.23 0 0 0-.11-.18l-.21-.29-.22.3a1.18 1.18 0 0 0-.1.17h-.39l.17-.2.36-.47-.33-.42-.15-.19h.37a1 1 0 0 0 .1.17l.18.25.18-.25a1.08 1.08 0 0 0 .1-.17h.37l-.15.19-.32.42.35.45.18.21z"/><text class="cls-12" transform="translate(97.62 48.63)">×</text><path class="cls-5" d="M128.66 50.71h57.58v62.27h-57.58z"/><path class="cls-6" d="M127.23 43.12h57.6a6.43 6.43 0 0 1 6.43 6.43v63.52a6.43 6.43 0 0 1-6.43 6.43h-56.18a6.43 6.43 0 0 1-6.43-6.43V48.13a5 5 0 0 1 5.01-5.01z"/><path class="cls-13" d="M122.22 114h69a5.5 5.5 0 0 1-5.5 5.5h-58a5.5 5.5 0 0 1-5.5-5.5z"/><path class="cls-7" d="M122.22 43.14h69v.08a6.43 6.43 0 0 1-6.43 6.43h-56.14a6.43 6.43 0 0 1-6.43-6.43v-.08z" transform="rotate(180 156.735 46.39)"/><circle class="cls-8" cx="126.54" cy="46.88" r="1.19"/><circle class="cls-8" cx="129.55" cy="46.88" r="1.19"/><circle class="cls-8" cx="132.56" cy="46.88" r="1.19"/><path class="cls-1" d="M124 109.69h64.73v1.41a6.43 6.43 0 0 1-6.43 6.43h-51.83a6.43 6.43 0 0 1-6.43-6.43v-1.41H124z"/><rect class="cls-9" x="143.65" y="68.92" width="26.88" height="25.84" rx="5" ry="5"/><path class="cls-10" d="M157.11 72.84a8.26 8.26 0 0 0-6 13.93L150 90.85l3.61-2.25a8.25 8.25 0 1 0 3.47-15.76zm0 14.77a6.52 6.52 0 1 1 6.52-6.52 6.5 6.5 0 0 1-6.52 6.52z"/><path class="cls-10" d="M161.47 84.19H160v-3.94a1.13 1.13 0 0 0-.33-.84.87.87 0 0 0-.75-.33 1 1 0 0 0-.8.33 1.31 1.31 0 0 0-.28.84v3.94h-1.5v-3.94a1.31 1.31 0 0 0-.28-.84 1 1 0 0 0-.75-.28.93.93 0 0 0-.75.33 1.35 1.35 0 0 0-.33.84v3.94h-1.5V80.3a2.83 2.83 0 0 1 .7-1.88 2.52 2.52 0 0 1 1.83-.8 2.48 2.48 0 0 1 1.83.75 2.51 2.51 0 0 1 1.83-.75 2.36 2.36 0 0 1 1.83.8 2.79 2.79 0 0 1 .75 1.88z"/><path class="cls-8" d="M187.53 47.72l-.31.31-1.43-1.43-1.42 1.4-.31-.31 1.43-1.42-1.41-1.41.31-.31 1.41 1.4 1.41-1.4.31.3-1.42 1.45z"/><path class="cls-11" d="M134.88 101.41a1.15 1.15 0 0 0-.11-.18l-.21-.29-.22.3a1.22 1.22 0 0 0-.1.17h-.39l.17-.2.36-.47-.33-.42-.15-.19h.37a1 1 0 0 0 .1.17l.18.25.18-.25a1 1 0 0 0 .1-.17h.37l-.15.19-.32.42.35.45.18.21zM136.35 101.41a1.15 1.15 0 0 0-.11-.18l-.21-.29-.22.3a1.22 1.22 0 0 0-.1.17h-.39l.17-.2.36-.47-.33-.42-.15-.19h.37a1 1 0 0 0 .1.17l.18.25.18-.25a1 1 0 0 0 .1-.17h.37l-.15.19-.32.42.35.45.18.21zM137.82 101.41a1.15 1.15 0 0 0-.11-.18l-.21-.29-.22.3a1.22 1.22 0 0 0-.1.17h-.39l.17-.2.36-.47-.33-.42-.15-.19h.37a1 1 0 0 0 .1.17l.18.25.18-.25a1 1 0 0 0 .1-.17h.37l-.15.19-.32.42.35.45.18.21zM139.3 101.41a1.15 1.15 0 0 0-.11-.18l-.21-.29-.22.3a1.22 1.22 0 0 0-.1.17h-.39l.17-.2.36-.47-.33-.42-.15-.19h.37a1 1 0 0 0 .1.17l.18.25.18-.25a1 1 0 0 0 .1-.17h.37l-.15.19-.32.42.35.45.18.21zM140.77 101.41a1.15 1.15 0 0 0-.11-.18l-.21-.29-.22.3a1.22 1.22 0 0 0-.1.17h-.39l.17-.2.36-.47-.33-.42-.15-.19h.37a1 1 0 0 0 .1.17l.18.25.18-.25a1 1 0 0 0 .1-.17h.37l-.15.19-.32.42.35.45.18.21zM142.25 101.41a1.15 1.15 0 0 0-.11-.18l-.21-.29-.22.3a1.22 1.22 0 0 0-.1.17h-.39l.17-.2.36-.47-.33-.42-.15-.19h.37a1 1 0 0 0 .1.17l.18.25.18-.25a1 1 0 0 0 .1-.17h.37l-.15.19-.32.42.35.45.18.21zM143.72 101.41a1.15 1.15 0 0 0-.11-.18l-.21-.29-.22.3a1.22 1.22 0 0 0-.1.17h-.39l.17-.2.36-.47-.33-.42-.15-.19h.37a1 1 0 0 0 .1.17l.18.25.18-.25a1 1 0 0 0 .1-.17h.37l-.15.19-.32.42.35.45.18.21zM145.19 101.41a1.15 1.15 0 0 0-.11-.18l-.21-.29-.22.3a1.22 1.22 0 0 0-.1.17h-.39l.17-.2.36-.47-.33-.42-.15-.19h.37a1 1 0 0 0 .1.17l.18.25.18-.25a1 1 0 0 0 .1-.17h.37l-.15.19-.32.42.35.45.18.21zM146.67 101.41a1.15 1.15 0 0 0-.11-.18l-.21-.29-.22.3a1.22 1.22 0 0 0-.1.17h-.39l.17-.2.36-.47-.33-.42-.15-.19h.37a1 1 0 0 0 .1.17l.18.25.18-.25a1 1 0 0 0 .1-.17h.38l-.15.19-.32.42.35.45.18.21zM148.14 101.41a1.15 1.15 0 0 0-.11-.18l-.21-.29-.22.3a1.22 1.22 0 0 0-.1.17h-.39l.17-.2.36-.47-.33-.42-.15-.19h.37a1 1 0 0 0 .1.17l.18.25.18-.25a1 1 0 0 0 .1-.17h.37l-.15.19-.32.42.35.45.18.21zM149.61 101.41a1.15 1.15 0 0 0-.11-.18l-.21-.29-.22.3a1.22 1.22 0 0 0-.1.17h-.39l.17-.2.36-.47-.33-.42-.15-.19h.37a1 1 0 0 0 .1.17l.18.25.18-.25a1 1 0 0 0 .1-.17h.37l-.15.19-.32.42.35.45.18.21zM151.09 101.41a1.15 1.15 0 0 0-.11-.18l-.21-.29-.22.3a1.22 1.22 0 0 0-.1.17h-.39l.17-.2.36-.47-.33-.42-.15-.19h.37a1 1 0 0 0 .1.17l.18.25.18-.25a1 1 0 0 0 .1-.17h.37l-.15.19-.32.42.35.45.18.21zM152.56 101.41a1.15 1.15 0 0 0-.11-.18l-.21-.29-.22.3a1.22 1.22 0 0 0-.1.17h-.39l.17-.2.36-.47-.33-.42-.15-.19h.42a1 1 0 0 0 .1.17l.18.25.18-.25a1 1 0 0 0 .1-.17h.37l-.15.19-.32.42.35.45.18.21zM154 101.41a1.15 1.15 0 0 0-.11-.18l-.21-.29-.22.3a1.22 1.22 0 0 0-.1.17H153l.17-.2.36-.47-.33-.42-.15-.19h.37a1 1 0 0 0 .1.17l.18.25.18-.25a1 1 0 0 0 .1-.17h.37l-.15.19-.32.42.35.45.18.21zM155.51 101.41a1.15 1.15 0 0 0-.11-.18l-.21-.29-.22.3a1.22 1.22 0 0 0-.1.17h-.39l.17-.2.36-.47-.33-.42-.15-.19h.37a1 1 0 0 0 .1.17l.18.25.18-.25a1 1 0 0 0 .1-.17h.37l-.15.19-.32.42.35.45.18.21zM157 101.41a1.15 1.15 0 0 0-.11-.18l-.21-.29-.22.3a1.22 1.22 0 0 0-.1.17H156l.17-.2.36-.47-.33-.42-.15-.19h.37a1 1 0 0 0 .1.17l.18.25.18-.25a1 1 0 0 0 .1-.17h.37l-.15.19-.32.42.35.45.18.21zM158.46 101.41a1.15 1.15 0 0 0-.11-.18l-.21-.29-.22.3a1.22 1.22 0 0 0-.1.17h-.39l.17-.2.36-.47-.33-.42-.15-.19h.37a1 1 0 0 0 .1.17l.18.25.18-.25a1 1 0 0 0 .1-.17h.37l-.15.19-.32.42.35.45.18.21zM159.93 101.41a1.15 1.15 0 0 0-.11-.18l-.21-.29-.22.3a1.22 1.22 0 0 0-.1.17h-.39l.17-.2.36-.47-.33-.42-.15-.19h.37a1 1 0 0 0 .1.17l.18.25.18-.25a1 1 0 0 0 .1-.17h.37l-.15.19-.32.42.35.45.18.21zM161.4 101.41a1.15 1.15 0 0 0-.11-.18l-.21-.29-.22.3a1.22 1.22 0 0 0-.1.17h-.39l.17-.2.36-.47-.33-.42-.15-.19h.37a1 1 0 0 0 .1.17l.18.25.18-.25a1 1 0 0 0 .1-.17h.37l-.15.19-.32.42.35.45.18.21zM162.88 101.41a1.15 1.15 0 0 0-.11-.18l-.21-.29-.22.3a1.22 1.22 0 0 0-.1.17h-.39l.17-.2.36-.47-.33-.42-.15-.19h.37a1 1 0 0 0 .1.17l.18.25.18-.25a1 1 0 0 0 .1-.17h.37l-.15.19-.32.42.35.45.18.21zM164.35 101.41a1.15 1.15 0 0 0-.11-.18l-.21-.29-.22.3a1.22 1.22 0 0 0-.1.17h-.39l.17-.2.36-.47-.33-.42-.15-.19h.37a1 1 0 0 0 .1.17l.18.25.18-.25a1 1 0 0 0 .1-.17h.37l-.15.19-.32.42.35.45.18.21zM165.82 101.41a1.15 1.15 0 0 0-.11-.18l-.21-.29-.22.3a1.22 1.22 0 0 0-.1.17h-.39l.17-.2.36-.47-.33-.42-.15-.19h.37a1 1 0 0 0 .1.17l.18.25.18-.25a1 1 0 0 0 .1-.17h.37l-.15.19-.32.42.35.45.18.21zM167.3 101.41a1.15 1.15 0 0 0-.11-.18l-.21-.29-.22.3a1.22 1.22 0 0 0-.1.17h-.39l.17-.2.36-.47-.33-.42-.15-.19h.37a1 1 0 0 0 .1.17l.18.25.18-.25a1 1 0 0 0 .1-.17h.37l-.15.19-.32.42.35.45.18.21z"/><path class="cls-5" d="M75.67 33.05h72.99v75.01H75.67z"/><path class="cls-14" d="M75.47 23.9h71.73a6.43 6.43 0 0 1 6.43 6.43v79.15a6.43 6.43 0 0 1-6.43 6.43H76.89a6.43 6.43 0 0 1-6.43-6.43V28.91a5 5 0 0 1 5.01-5.01z"/><path class="cls-15" d="M70.47 109.28h83.16v.2a6.43 6.43 0 0 1-6.43 6.43H76.89a6.43 6.43 0 0 1-6.43-6.43v-.2h.01z"/><path class="cls-15" d="M70.47 23.92h83.16v1.41a6.43 6.43 0 0 1-6.43 6.43H76.89a6.43 6.43 0 0 1-6.43-6.43v-1.41h.01z" transform="rotate(180 112.05 27.845)"/><path class="cls-2" d="M77.57 184h76.83a3.05 3.05 0 0 1-3.05 3.05H80.63a3.05 3.05 0 0 1-3.06-3.05z"/><circle class="cls-8" cx="75.67" cy="28.43" r="1.44"/><circle class="cls-8" cx="79.3" cy="28.43" r="1.44"/><circle class="cls-8" cx="82.93" cy="28.43" r="1.44"/><path class="cls-3" d="M73 104.09h78.1v2.62a6.43 6.43 0 0 1-6.43 6.43H79.41a6.43 6.43 0 0 1-6.41-6.43v-2.62z"/><rect class="cls-9" x="96.28" y="54.99" width="32.38" height="31.13" rx="5" ry="5"/><path class="cls-10" d="M112.5 59.71a10 10 0 0 0-7.23 16.78L104 81.4l4.35-2.71a9.94 9.94 0 1 0 4.18-19zm0 17.79a7.85 7.85 0 1 1 7.85-7.85 7.84 7.84 0 0 1-7.85 7.85z"/><path class="cls-10" d="M117.75 73.38H116v-4.75a1.36 1.36 0 0 0-.4-1 1.05 1.05 0 0 0-.9-.4 1.24 1.24 0 0 0-1 .4 1.58 1.58 0 0 0-.34 1v4.75h-1.76v-4.75a1.58 1.58 0 0 0-.34-1 1.19 1.19 0 0 0-.9-.34 1.12 1.12 0 0 0-.9.4 1.62 1.62 0 0 0-.4 1v4.75h-1.81v-4.75a3.41 3.41 0 0 1 .85-2.26 3 3 0 0 1 2.2-1 3 3 0 0 1 2.2.9 3 3 0 0 1 2.2-.9 2.84 2.84 0 0 1 2.2 1 3.36 3.36 0 0 1 .9 2.26z"/><path class="cls-11" d="M85.71 90.54a1.47 1.47 0 0 0-.14-.22l-.24-.32-.26.36a1.38 1.38 0 0 0-.12.2h-.46l.2-.24.43-.56-.39-.51-.19-.25H85a1.23 1.23 0 0 0 .12.2l.22.3.22-.3a1.31 1.31 0 0 0 .12-.2h.45l-.18.23-.39.5.42.55.21.26zM87.49 90.54a1.47 1.47 0 0 0-.14-.22L87.1 90l-.26.36a1.38 1.38 0 0 0-.12.2h-.46l.2-.24.43-.56-.39-.51-.19-.25h.45a1.23 1.23 0 0 0 .12.2l.22.3.22-.3a1.31 1.31 0 0 0 .12-.2h.45l-.18.23-.39.5.42.55.21.26zM89.26 90.54a1.47 1.47 0 0 0-.14-.22l-.24-.32-.26.36a1.38 1.38 0 0 0-.12.2H88l.2-.24.43-.56-.39-.51-.15-.25h.45a1.23 1.23 0 0 0 .12.2l.22.3.22-.3a1.31 1.31 0 0 0 .12-.2h.45l-.18.23-.39.5.42.55.21.26zM91 90.54a1.47 1.47 0 0 0-.14-.22l-.21-.32-.26.36a1.38 1.38 0 0 0-.12.2h-.47l.2-.24.43-.56-.43-.54-.14-.22h.45a1.23 1.23 0 0 0 .12.2l.22.3.22-.3A1.31 1.31 0 0 0 91 89h.45l-.18.23-.39.5.42.55.21.26zM92.81 90.54a1.47 1.47 0 0 0-.14-.22l-.24-.32-.26.36a1.38 1.38 0 0 0-.12.2h-.46l.2-.24.43-.56-.39-.51-.19-.25h.45a1.23 1.23 0 0 0 .12.2l.22.3.22-.3a1.31 1.31 0 0 0 .12-.2h.45l-.18.23-.39.5.42.55.21.26zM94.59 90.54a1.47 1.47 0 0 0-.14-.22L94.2 90l-.26.36a1.38 1.38 0 0 0-.12.2h-.46l.2-.24.43-.56-.39-.51-.19-.25h.45a1.23 1.23 0 0 0 .12.2l.22.3.22-.3a1.31 1.31 0 0 0 .12-.2H95l-.18.23-.39.5.42.55.21.26zM96.37 90.54a1.47 1.47 0 0 0-.14-.22L96 90l-.26.36a1.38 1.38 0 0 0-.12.2h-.46l.2-.24.43-.56-.39-.51-.21-.25h.45a1.23 1.23 0 0 0 .12.2l.22.3.22-.3a1.31 1.31 0 0 0 .12-.2h.45l-.18.23-.39.5.42.55.21.26zM98.14 90.54a1.47 1.47 0 0 0-.14-.22l-.25-.32-.26.36a1.38 1.38 0 0 0-.12.2h-.46l.2-.24.43-.56-.39-.51L97 89h.45a1.23 1.23 0 0 0 .12.2l.22.3.22-.3a1.31 1.31 0 0 0 .12-.2h.45l-.18.23-.39.5.42.55.21.26zM99.92 90.54a1.47 1.47 0 0 0-.14-.22l-.25-.32-.26.36a1.38 1.38 0 0 0-.12.2h-.46l.2-.24.43-.56-.39-.51-.19-.25h.45a1.23 1.23 0 0 0 .12.2l.22.3.22-.3a1.31 1.31 0 0 0 .12-.2h.45l-.18.23-.39.5.42.55.21.26zM101.69 90.54a1.47 1.47 0 0 0-.14-.22l-.25-.32-.26.36a1.38 1.38 0 0 0-.12.2h-.46l.2-.24.43-.56-.39-.51-.18-.22h.48a1.23 1.23 0 0 0 .12.2l.22.3.22-.3a1.31 1.31 0 0 0 .12-.2h.45l-.18.23-.39.5.42.55.21.26zM103.47 90.54a1.47 1.47 0 0 0-.14-.22l-.25-.34-.26.36a1.38 1.38 0 0 0-.12.2h-.46l.2-.24.43-.56-.39-.51-.18-.22h.45a1.23 1.23 0 0 0 .12.2l.22.3.22-.3a1.31 1.31 0 0 0 .12-.2h.45l-.18.23-.39.5.42.55.21.26zM105.24 90.54a1.47 1.47 0 0 0-.14-.22l-.25-.34-.26.36a1.38 1.38 0 0 0-.12.2H104l.2-.24.43-.56-.39-.51-.18-.22h.45a1.23 1.23 0 0 0 .12.2l.22.3.22-.3a1.31 1.31 0 0 0 .12-.2h.45l-.18.23-.39.5.42.55.21.26zM107 90.54a1.47 1.47 0 0 0-.14-.22l-.25-.34-.26.36a1.38 1.38 0 0 0-.12.2h-.46l.2-.24.43-.56-.39-.51-.18-.22h.45a1.23 1.23 0 0 0 .12.2l.22.3.22-.3A1.31 1.31 0 0 0 107 89h.45l-.18.23-.39.5.42.55.21.26zM108.79 90.54a1.47 1.47 0 0 0-.14-.22l-.25-.34-.26.36a1.38 1.38 0 0 0-.12.2h-.46l.2-.24.43-.56-.39-.51-.18-.22h.45a1.23 1.23 0 0 0 .12.2l.22.3.22-.3a1.31 1.31 0 0 0 .12-.2h.45l-.18.23-.39.5.42.55.21.26zM110.57 90.54a1.47 1.47 0 0 0-.14-.22l-.25-.34-.26.36a1.38 1.38 0 0 0-.12.2h-.46l.2-.24.43-.56-.39-.51-.18-.22h.45a1.23 1.23 0 0 0 .12.2l.22.3.22-.3a1.31 1.31 0 0 0 .12-.2h.47l-.18.23-.39.5.42.55.21.26zM85.71 94.12a1.47 1.47 0 0 0-.14-.22l-.25-.34-.26.36a1.38 1.38 0 0 0-.12.2h-.46l.2-.24.43-.56-.39-.51-.18-.22H85a1.23 1.23 0 0 0 .12.2l.22.3.22-.3a1.31 1.31 0 0 0 .12-.2h.45l-.18.23-.39.5.42.55.21.26zM87.49 94.12a1.47 1.47 0 0 0-.14-.22l-.25-.34-.26.36a1.38 1.38 0 0 0-.12.2h-.46l.2-.24.43-.56-.39-.51-.18-.22h.45a1.23 1.23 0 0 0 .12.2l.22.3.22-.3a1.31 1.31 0 0 0 .12-.2h.45l-.18.23-.39.5.42.55.21.26zM89.26 94.12a1.47 1.47 0 0 0-.14-.22l-.25-.34-.26.36a1.38 1.38 0 0 0-.12.2H88l.2-.24.43-.56-.39-.51-.18-.22h.45a1.23 1.23 0 0 0 .12.2l.22.3.22-.3a1.31 1.31 0 0 0 .12-.2h.45l-.18.23-.39.5.42.55.21.26zM91 94.12a1.47 1.47 0 0 0-.14-.22l-.25-.34-.26.36a1.38 1.38 0 0 0-.12.2h-.43l.2-.24.43-.56-.43-.51-.18-.22h.45a1.23 1.23 0 0 0 .12.2l.22.3.22-.3a1.31 1.31 0 0 0 .12-.2h.45l-.18.23-.39.5.42.55.21.26zM92.81 94.12a1.47 1.47 0 0 0-.14-.22l-.25-.34-.26.36a1.38 1.38 0 0 0-.12.2h-.46l.2-.24.43-.56-.39-.51-.18-.22h.45a1.23 1.23 0 0 0 .12.2l.22.3.22-.3a1.31 1.31 0 0 0 .12-.2h.45l-.18.23-.39.5.42.55.21.26zM94.59 94.12a1.47 1.47 0 0 0-.14-.22l-.25-.34-.26.36a1.38 1.38 0 0 0-.12.2h-.46l.2-.24.43-.56-.39-.51-.18-.22h.45a1.23 1.23 0 0 0 .12.2l.22.3.22-.3a1.31 1.31 0 0 0 .12-.2H95l-.18.23-.39.5.42.55.21.26zM96.37 94.12a1.47 1.47 0 0 0-.14-.22l-.23-.34-.26.36a1.38 1.38 0 0 0-.12.2h-.46l.2-.24.43-.56-.39-.51-.18-.22h.45a1.23 1.23 0 0 0 .12.2l.22.3.22-.3a1.31 1.31 0 0 0 .12-.2h.45l-.18.23-.39.5.42.55.21.26zM98.14 94.12a1.47 1.47 0 0 0-.14-.22l-.25-.34-.26.36a1.38 1.38 0 0 0-.12.2h-.46l.2-.24.43-.56-.39-.51-.15-.23h.45a1.23 1.23 0 0 0 .12.2l.22.3.22-.3a1.31 1.31 0 0 0 .12-.2h.45l-.18.23-.39.5.42.55.21.26zM99.92 94.12a1.47 1.47 0 0 0-.14-.22l-.25-.34-.26.36a1.38 1.38 0 0 0-.12.2h-.46l.2-.24.43-.56-.39-.51-.18-.22h.45a1.23 1.23 0 0 0 .12.2l.22.3.22-.3a1.31 1.31 0 0 0 .12-.2h.45l-.18.23-.39.5.42.55.21.26zM101.69 94.12a1.47 1.47 0 0 0-.14-.22l-.25-.34-.26.36a1.38 1.38 0 0 0-.12.2h-.46l.2-.24.43-.56-.39-.51-.18-.22h.48a1.23 1.23 0 0 0 .12.2l.22.3.22-.3a1.31 1.31 0 0 0 .12-.2h.45l-.18.23-.39.5.42.55.21.26zM103.47 94.12a1.47 1.47 0 0 0-.14-.22l-.25-.34-.26.36a1.38 1.38 0 0 0-.12.2h-.46l.2-.24.43-.56-.39-.51-.18-.22h.45a1.23 1.23 0 0 0 .12.2l.22.3.22-.3a1.31 1.31 0 0 0 .12-.2h.45l-.18.23-.39.5.42.55.21.26zM105.24 94.12a1.47 1.47 0 0 0-.14-.22l-.25-.34-.26.36a1.38 1.38 0 0 0-.12.2H104l.2-.24.43-.56-.39-.51-.18-.22h.45a1.23 1.23 0 0 0 .12.2l.22.3.22-.3a1.31 1.31 0 0 0 .12-.2h.45l-.18.23-.39.5.42.55.21.26zM107 94.12a1.47 1.47 0 0 0-.14-.22l-.25-.34-.26.36a1.38 1.38 0 0 0-.12.2h-.46l.2-.24.43-.56-.39-.51-.18-.22h.45a1.23 1.23 0 0 0 .12.2l.22.3.22-.3a1.31 1.31 0 0 0 .12-.2h.45l-.18.23-.39.5.42.55.21.26zM108.79 94.12a1.47 1.47 0 0 0-.14-.22l-.25-.34-.26.36a1.38 1.38 0 0 0-.12.2h-.46l.2-.24.43-.56-.39-.51-.18-.22h.45a1.23 1.23 0 0 0 .12.2l.22.3.22-.3a1.31 1.31 0 0 0 .12-.2h.45l-.18.23-.39.5.42.55.21.26zM110.57 94.12a1.47 1.47 0 0 0-.14-.22l-.25-.34-.26.36a1.38 1.38 0 0 0-.12.2h-.46l.2-.24.43-.56-.39-.51-.18-.22h.45a1.23 1.23 0 0 0 .12.2l.22.3.22-.3a1.31 1.31 0 0 0 .12-.2h.47l-.18.23-.39.5.42.55.21.26zM112.34 94.12a1.47 1.47 0 0 0-.14-.22l-.25-.34-.26.36a1.38 1.38 0 0 0-.12.2h-.46l.2-.24.43-.56-.39-.51-.18-.22h.45a1.23 1.23 0 0 0 .12.2l.22.3.22-.3a1.31 1.31 0 0 0 .12-.2h.45l-.18.23-.39.5.42.55.21.26zM114.12 94.12a1.47 1.47 0 0 0-.14-.22l-.25-.34-.26.36a1.38 1.38 0 0 0-.12.2h-.46l.2-.24.43-.56-.39-.51-.18-.22h.45a1.23 1.23 0 0 0 .12.2l.22.3.22-.3a1.31 1.31 0 0 0 .12-.2h.45l-.18.23-.39.5.42.55.21.26zM115.89 94.12a1.47 1.47 0 0 0-.14-.22l-.25-.34-.26.36a1.38 1.38 0 0 0-.12.2h-.46l.2-.24.43-.56-.39-.51-.18-.22h.45a1.23 1.23 0 0 0 .12.2l.22.3.22-.3a1.31 1.31 0 0 0 .12-.2h.45l-.18.23-.39.5.42.55.21.26zM117.67 94.12a1.47 1.47 0 0 0-.14-.22l-.25-.34-.26.36a1.38 1.38 0 0 0-.12.2h-.46l.2-.24.43-.56-.39-.51-.18-.22h.45a1.23 1.23 0 0 0 .12.2l.22.3.22-.3a1.31 1.31 0 0 0 .12-.2h.45l-.18.23-.39.5.42.55.21.26zM119.45 94.12a1.47 1.47 0 0 0-.14-.22l-.25-.34-.26.36a1.38 1.38 0 0 0-.12.2h-.46l.2-.24.43-.56-.39-.51-.18-.22h.45a1.23 1.23 0 0 0 .12.2l.22.3.22-.3a1.31 1.31 0 0 0 .12-.2h.45l-.18.23-.39.5.42.55.21.26zM121.22 94.12a1.47 1.47 0 0 0-.14-.22l-.25-.34-.26.36a1.38 1.38 0 0 0-.12.2H120l.2-.24.43-.56-.39-.51-.18-.22h.45a1.23 1.23 0 0 0 .12.2l.22.3.22-.3a1.31 1.31 0 0 0 .12-.2h.45l-.18.23-.39.5.42.55.21.26zM123 94.12a1.47 1.47 0 0 0-.14-.22l-.25-.34-.26.36a1.38 1.38 0 0 0-.12.2h-.46l.2-.24.43-.56-.39-.51-.18-.22h.45a1.23 1.23 0 0 0 .12.2l.22.3.22-.3a1.31 1.31 0 0 0 .12-.2h.45l-.18.23-.39.5.42.55.21.26zM124.77 94.12a1.47 1.47 0 0 0-.14-.22l-.25-.34-.26.36a1.38 1.38 0 0 0-.12.2h-.46l.2-.24.43-.56-.39-.51-.18-.22h.4a1.23 1.23 0 0 0 .12.2l.22.3.22-.3a1.31 1.31 0 0 0 .12-.2h.45l-.18.23-.39.5.42.55.21.26z"/><path class="cls-8" d="M149.14 29.45l-.37.38-1.72-1.72-1.71 1.71-.38-.37 1.72-1.71L145 26l.37-.37 1.7 1.69 1.7-1.69.38.36-1.71 1.71z"/></g></g></svg>