<svg xmlns="http://www.w3.org/2000/svg" viewBox="0 0 236 136.05"><defs><style>.cls-1,.cls-5{fill:#fff}.cls-1,.cls-10{stroke:#ccc}.cls-1,.cls-10,.cls-2,.cls-7,.cls-8{stroke-miterlimit:10}.cls-1,.cls-7,.cls-8{stroke-width:5px}.cls-2{fill:#9ee0d9;stroke:#63a69f;stroke-width:.5px}.cls-3{fill:#fc3}.cls-4{fill:#d897d4}.cls-6{fill:#e6e6e6}.cls-10,.cls-7{fill:none}.cls-7,.cls-8{stroke:#b3b3b3}.cls-8{fill:#b3b3b3}.cls-9{fill:gray}.cls-10{stroke-width:.25px}.cls-11{fill:#f15b4e}.cls-12{fill:#666}</style></defs><title>img-tool-01</title><g id="レイヤー_2" data-name="レイヤー 2"><g id="_1" data-name="1"><path class="cls-1" d="M29.74 2.5h173.72a6.43 6.43 0 0 1 6.43 6.43v113.69a6.43 6.43 0 0 1-6.43 6.43H31.16a6.43 6.43 0 0 1-6.43-6.43V7.51a5 5 0 0 1 5.01-5.01z"/><path class="cls-2" d="M24.74 76.18L50 60.89l19.11 7.64 10.83-7.64 4.46 11.47 36.94-40.13 33.13 8.91 33.76-3.18 21.65 8.28v59.24H24.74v-29.3z"/><path class="cls-3" d="M28.34 87.01l24.21-10.83 15.92 5.41h17.2l41.41-32.17 30.57 8.71h31.21l21.02 13.27.64 33.44-185.36 3.19 3.18-21.02z"/><path class="cls-4" d="M26.43 89.55l36.31-4.46 16.56 2.23 14.02-2.23h30.57l5.1-17.51 24.2 16.88 14.02-5.89 14.01 4.61 29.3 1.91-.64 24.3-184.72-5.19 1.27-14.65z"/><path class="cls-5" transform="rotate(90 117.685 105.795)" d="M111.31 16.46h12.74v178.67h-12.74z"/><path class="cls-5" d="M25.16 16.62h14.97v93H25.16zM194.28 16.62h14.58v93h-14.58z"/><path class="cls-6" transform="rotate(90 117.345 22.985)" d="M110.97-67.17h12.74v180.31h-12.74z"/><path class="cls-7" d="M29.74 2.5h173.72a6.43 6.43 0 0 1 6.43 6.43v113.69a6.43 6.43 0 0 1-6.43 6.43H31.16a6.43 6.43 0 0 1-6.43-6.43V7.51a5 5 0 0 1 5.01-5.01z"/><path class="cls-8" d="M24.74 110.81h185.14v11.81a6.43 6.43 0 0 1-6.43 6.43H31.16a6.43 6.43 0 0 1-6.43-6.43v-11.81h.01z"/><path class="cls-8" d="M24.74 2.53h185.14v5.2a6.43 6.43 0 0 1-6.43 6.43H31.16a6.43 6.43 0 0 1-6.43-6.43v-5.2h.01z" transform="rotate(180 117.31 8.34)"/><path class="cls-9" d="M0 123.51h236v5.29a7.25 7.25 0 0 1-7.25 7.25H7.25A7.25 7.25 0 0 1 0 128.8v-5.29z"/><path class="cls-10" d="M40.13 29.36v70.12M194.28 29.36v70.12M194.39 99.32H40.13M40.13 36.9h-2.86M52.87 102.18v-2.86M65.61 102.18v-2.86M78.35 102.18v-2.86M91.09 102.18v-2.86M103.83 102.18v-2.86M116.57 102.18v-2.86M129.31 102.18v-2.86M142.05 102.18v-2.86M154.79 102.18v-2.86M167.52 102.18v-2.86M180.26 102.18v-2.86M40.13 49.64h-2.86M40.13 62.38h-2.86M40.13 75.12h-2.86M40.13 87.85h-2.86"/><path class="cls-11" d="M33.48 20a2.8 2.8 0 0 0-2 4.73l-.37 1.38 1.23-.76A2.8 2.8 0 1 0 33.48 20zm0 5a2.21 2.21 0 1 1 2.21-2.21A2.21 2.21 0 0 1 33.48 25z"/><path class="cls-11" d="M35 23.88h-.49v-1.33a.38.38 0 0 0-.11-.29.3.3 0 0 0-.25-.11.35.35 0 0 0-.27.11.44.44 0 0 0-.1.29v1.34h-.51v-1.34a.44.44 0 0 0-.1-.29.34.34 0 0 0-.25-.1.32.32 0 0 0-.25.11.46.46 0 0 0-.11.29v1.34H32v-1.34a1 1 0 0 1 .24-.64.86.86 0 0 1 .62-.27.84.84 0 0 1 .62.25.85.85 0 0 1 .62-.25.8.8 0 0 1 .62.27 1 1 0 0 1 .25.64z"/><path class="cls-12" d="M41.09 24.9h-.53v-.53a1.73 1.73 0 0 1-1.34.64 1.78 1.78 0 0 1-1.31-.56 1.81 1.81 0 0 1-.54-1.34 1.84 1.84 0 0 1 .54-1.34 1.73 1.73 0 0 1 1.32-.56 1.66 1.66 0 0 1 1.32.64v-.54h.53zm-1.83-.4a1.24 1.24 0 0 0 .94-.4 1.35 1.35 0 0 0 .4-1 1.37 1.37 0 0 0-.38-1 1.24 1.24 0 0 0-.94-.4 1.29 1.29 0 0 0-1 .41 1.39 1.39 0 0 0-.38 1 1.33 1.33 0 0 0 .4 1 1.24 1.24 0 0 0 .96.4zm5.87.4h-.54v-1.7a4.15 4.15 0 0 0 0-.8 1.27 1.27 0 0 0-.16-.37.62.62 0 0 0-.27-.22 1 1 0 0 0-.41-.06.94.94 0 0 0-.46.11 1.25 1.25 0 0 0-.62.78 5.35 5.35 0 0 0-.06.94v1.32H42v-3.56h.54v.54a1.61 1.61 0 0 1 1.26-.64 1.32 1.32 0 0 1 .7.19 1.26 1.26 0 0 1 .5.57 3 3 0 0 1 .16 1.08l-.03 1.82zm4.43 0H49v-.53a1.73 1.73 0 0 1-1.3.63 1.78 1.78 0 0 1-1.31-.56 1.81 1.81 0 0 1-.54-1.34 1.84 1.84 0 0 1 .54-1.34 1.79 1.79 0 0 1 1.32-.56 1.66 1.66 0 0 1 1.32.64v-.54h.53zm-1.83-.4a1.24 1.24 0 0 0 .94-.4 1.35 1.35 0 0 0 .4-1 1.37 1.37 0 0 0-.38-1 1.24 1.24 0 0 0-.94-.4 1.2 1.2 0 0 0-.94.41 1.41 1.41 0 0 0-.38 1 1.33 1.33 0 0 0 .4 1 1.16 1.16 0 0 0 .9.4zm3.22.4h-.55V20h.54zm3.88-3.58l-2.12 4.84h-.56l.68-1.58-1.46-3.26h.56l1.18 2.61 1.13-2.61zm2.1.48h-.72v2.5a.26.26 0 0 0 0 .16.4.4 0 0 0 .19 0h.32V25a3.39 3.39 0 0 1-.48 0 .58.58 0 0 1-.46-.16.7.7 0 0 1-.14-.49V21.8h-.62v-.48h.62V20h.54v1.34h.72zm.78-1.8a.42.42 0 0 1 .3.11.4.4 0 0 1-.29.68.35.35 0 0 1-.29-.13.42.42 0 0 1 0-.57.37.37 0 0 1 .27-.1zm.29 4.9h-.54v-3.56H58zm4.31-.73a1.89 1.89 0 0 1-.73.64 2.29 2.29 0 0 1-1 .21 1.9 1.9 0 0 1-1.38-.54 1.8 1.8 0 0 1-.56-1.34 1.86 1.86 0 0 1 .56-1.35 1.94 1.94 0 0 1 1.43-.56 2.23 2.23 0 0 1 1 .22 1.8 1.8 0 0 1 .7.64l-.43.27a1.5 1.5 0 0 0-1.26-.62 1.42 1.42 0 0 0-1 .38 1.36 1.36 0 0 0 0 2 1.42 1.42 0 0 0 1 .41 1.56 1.56 0 0 0 1.26-.64l.41.32zm2.61-2.42l-.35.37a1.11 1.11 0 0 0-.72-.37.42.42 0 0 0-.33.13.39.39 0 0 0-.13.32.42.42 0 0 0 .16.33 2.89 2.89 0 0 0 .54.35 1.84 1.84 0 0 1 .6.46.87.87 0 0 1 .21.6 1 1 0 0 1-.32.76 1.08 1.08 0 0 1-.78.32 1.29 1.29 0 0 1-1.08-.56l.33-.38a1 1 0 0 0 .72.41.63.63 0 0 0 .43-.16.53.53 0 0 0 .18-.38.46.46 0 0 0-.16-.37 3.16 3.16 0 0 0-.56-.35 1.82 1.82 0 0 1-.59-.43 1 1 0 0 1-.19-.64.89.89 0 0 1 .29-.67 1 1 0 0 1 .75-.27 1.42 1.42 0 0 1 1 .51z"/></g></g></svg>