<svg xmlns="http://www.w3.org/2000/svg" viewBox="0 0 275.83 275.83"><defs><style>.cls-1,.cls-2{fill:none;stroke:#b3b3b3;stroke-miterlimit:10}.cls-2{stroke-dasharray:3 2}.cls-3{fill:#f2594b}.cls-4{fill:#9ee0d9}.cls-5{fill:#fc3}.cls-6{fill:#fff}</style></defs><title>img-tool-05</title><g id="レイヤー_2" data-name="レイヤー 2"><g id="_8" data-name="8"><path class="cls-1" d="M71.11 70.26l1.06 1.06"/><path class="cls-2" d="M73.58 72.74L203.8 202.96"/><path class="cls-1" d="M204.51 203.66l1.06 1.07M205.57 70.26l-1.06 1.06"/><path class="cls-2" d="M203.1 72.74L72.88 202.96"/><path class="cls-1" d="M72.17 203.66l-1.06 1.07M233.42 137.49h-1.5"/><path class="cls-2" d="M229.92 137.49H45.76"/><path class="cls-1" d="M44.76 137.49h-1.5M138.34 232.57v-1.5"/><path class="cls-2" d="M138.34 229.07V44.91"/><path class="cls-1" d="M138.34 43.91v-1.5"/><circle class="cls-3" cx="138.69" cy="138.8" r="33.75"/><circle class="cls-4" cx="21.42" cy="137.92" r="21.42"/><circle class="cls-4" cx="254.42" cy="137.92" r="21.42"/><circle class="cls-4" cx="138.09" cy="21.42" r="21.42" transform="rotate(-90 137.995 21.485)"/><circle class="cls-4" cx="137.78" cy="254.42" r="21.42" transform="rotate(-89.94 137.765 254.411)"/><circle class="cls-5" cx="56.06" cy="55.02" r="21.42" transform="rotate(-44.64 56.057 55.02)"/><circle class="cls-5" cx="219.77" cy="220.81" r="21.42" transform="rotate(-44.64 219.76 220.81)"/><circle class="cls-5" cx="219.77" cy="55.02" r="21.42" transform="rotate(-45.36 219.777 55.023)"/><circle class="cls-5" cx="56.06" cy="220.81" r="21.42" transform="rotate(-45.36 56.062 220.818)"/><path class="cls-6" d="M154.2 127.82a5.76 5.76 0 0 0-1.81-2.2 13.51 13.51 0 0 0-4.72-2.19 24.45 24.45 0 0 0-6.36-.8 21.8 21.8 0 0 0-9.09 1.79 9.15 9.15 0 0 0-2.93 2.07 5 5 0 0 0-.87 1.34 3.85 3.85 0 0 0-.32 1.53v2.1l1.82 1.38v-.3a11.66 11.66 0 0 0 4.31 2.3 23.58 23.58 0 0 0 7.09 1 21.56 21.56 0 0 0 9-1.77 9.62 9.62 0 0 0 2.4-1.57v4.1a3.47 3.47 0 0 1-.56.84 9.5 9.5 0 0 1-4.16 2.37 22.23 22.23 0 0 1-6.67 1c-.65 0-1.27 0-1.89-.08l-1.59 1.21a25.93 25.93 0 0 0 3.49.23 21.57 21.57 0 0 0 9-1.77 9.62 9.62 0 0 0 2.4-1.57v4.1a3.48 3.48 0 0 1-.56.84 9.51 9.51 0 0 1-4.16 2.37 22.24 22.24 0 0 1-6.67 1 20.44 20.44 0 0 1-8.23-1.56l-1.22.93a15 15 0 0 0 2.37 1 23.59 23.59 0 0 0 7.09 1 21.57 21.57 0 0 0 9-1.77 9.63 9.63 0 0 0 2.4-1.57v3.13a2 2 0 0 1-.17.81 4 4 0 0 1-1.25 1.49 11.77 11.77 0 0 1-4.08 1.87 22.66 22.66 0 0 1-5.88.74 20 20 0 0 1-8.31-1.62 7.37 7.37 0 0 1-2.35-1.63 3.17 3.17 0 0 1-.56-.85 2 2 0 0 1-.17-.81v-.32l-1.69 1.28a4.06 4.06 0 0 0 .19.57 5.77 5.77 0 0 0 1.81 2.2 13.51 13.51 0 0 0 4.72 2.19 24.47 24.47 0 0 0 6.36.8 21.79 21.79 0 0 0 9.09-1.79 9.13 9.13 0 0 0 2.93-2.07 5 5 0 0 0 .87-1.34 3.84 3.84 0 0 0 .32-1.53v-18.93a3.84 3.84 0 0 0-.39-1.54zm-1.5 2.51a3.47 3.47 0 0 1-.56.84 9.5 9.5 0 0 1-4.16 2.37 22.24 22.24 0 0 1-6.67 1 20.25 20.25 0 0 1-8.41-1.64 7.6 7.6 0 0 1-2.42-1.69 3.48 3.48 0 0 1-.57-.84v-1a2 2 0 0 1 .17-.81 4 4 0 0 1 1.25-1.49 11.76 11.76 0 0 1 4.08-1.87 22.65 22.65 0 0 1 5.88-.74 20 20 0 0 1 8.31 1.62 7.35 7.35 0 0 1 2.4 1.62 3.18 3.18 0 0 1 .56.85 2 2 0 0 1 .17.81v1z"/><path class="cls-6" d="M135.48 140.38L125 132.43v4.16h-6.14v7.58H125v4.16l10.48-7.95zM131.07 16.74a.87.87 0 0 1 .88.88V22h-.88v5.27H130V22h-.44v5.27h-1.1V22h-.88v-4.38a.87.87 0 0 1 .88-.88zm0-2.2a1.31 1.31 0 1 0-.38.93 1.27 1.27 0 0 0 .38-.93zM140.28 14.37a1.45 1.45 0 0 1 1.46 1.46v7.32h-1.46v8.78h-1.83v-8.78h-.73v8.78h-1.83v-8.78h-1.46v-7.31a1.45 1.45 0 0 1 1.46-1.46zm0-3.66a2.2 2.2 0 1 0-3.75 1.56 2.2 2.2 0 0 0 3.75-1.56zM148.12 16.74a.87.87 0 0 1 .88.88V22h-.88v5.27H147V22h-.44v5.27h-1.1V22h-.88v-4.38a.87.87 0 0 1 .88-.88zm0-2.2a1.31 1.31 0 1 0-.38.93 1.27 1.27 0 0 0 .38-.93zM67.83 228.32a1.36 1.36 0 0 1 .5 1 1.38 1.38 0 0 1-.43 1.06l-2.42 2.42a1.38 1.38 0 0 1-1.06.43 1.36 1.36 0 0 1-1-.5l-9.45-11a7.13 7.13 0 0 1-1.53.6 6.62 6.62 0 0 1-1.7.22A6.75 6.75 0 0 1 48 222a6.85 6.85 0 0 1-3.66-3.66 6.76 6.76 0 0 1-.54-2.69 7.26 7.26 0 0 1 .07-1 6.73 6.73 0 0 1 .22-1l4 4a1.56 1.56 0 0 0 2.15 0l2.44-2.44a1.56 1.56 0 0 0 0-2.15l-4-4a6.71 6.71 0 0 1 1-.21 7.27 7.27 0 0 1 1-.07 6.75 6.75 0 0 1 2.69.54 6.85 6.85 0 0 1 3.66 3.66 6.76 6.76 0 0 1 .54 2.69 6.61 6.61 0 0 1-.22 1.7 7.11 7.11 0 0 1-.6 1.53zM55.47 43.11A11.36 11.36 0 0 1 60 44a11.67 11.67 0 0 1 6.21 6.21 11.7 11.7 0 0 1 0 9A11.67 11.67 0 0 1 60 65.49a11.7 11.7 0 0 1-9 0 11.67 11.67 0 0 1-6.21-6.21 11.7 11.7 0 0 1 0-9A11.67 11.67 0 0 1 50.95 44a11.36 11.36 0 0 1 4.52-.89zm-6.6 7.76h-2.71a9.63 9.63 0 0 0-.5 1.53 11.44 11.44 0 0 0-.25 1.6h3.1q0-.8.12-1.59t.25-1.54zm-2.72 7.76h2.72q-.15-.73-.24-1.52t-.12-1.59h-3.1a11.43 11.43 0 0 0 .25 1.58 9.62 9.62 0 0 0 .5 1.54zm2.18-11q-.39.39-.74.81a8.45 8.45 0 0 0-.64.89h2.33a14.32 14.32 0 0 1 .8-2 9.1 9.1 0 0 1 1-1.66 9.66 9.66 0 0 0-1.48.86 10 10 0 0 0-1.26 1.09zM47 60.19a8.35 8.35 0 0 0 .64.89q.35.42.74.81A10 10 0 0 0 49.65 63a9.66 9.66 0 0 0 1.48.86 9.08 9.08 0 0 1-1-1.66 14.27 14.27 0 0 1-.8-2zm7.74-9.31h-4.26q-.17.75-.28 1.53a14.45 14.45 0 0 0-.14 1.59h4.64zm-4.63 4.66a14.44 14.44 0 0 0 .13 1.58q.11.78.28 1.53h4.18v-3.1zm1.79-8.2a9.15 9.15 0 0 0-.5.93 11.28 11.28 0 0 0-.42 1.06h3.72v-4.54a2.93 2.93 0 0 0-.53.21 4 4 0 0 0-.51.3 5.45 5.45 0 0 0-.95.86 7.67 7.67 0 0 0-.85 1.17zm2.8 12.85h-3.76a11.23 11.23 0 0 0 .42 1.06 9.09 9.09 0 0 0 .5.93 7.65 7.65 0 0 0 .85 1.18 5.41 5.41 0 0 0 .95.86 3.89 3.89 0 0 0 .51.3 2.89 2.89 0 0 0 .53.21zm1.55-10.87H60q-.19-.56-.42-1.06a9.34 9.34 0 0 0-.5-.93 7.7 7.7 0 0 0-.85-1.18 5.46 5.46 0 0 0-.95-.86 4.07 4.07 0 0 0-.51-.3 2.94 2.94 0 0 0-.53-.21zm4.22 1.55h-4.22V54h4.63a14.57 14.57 0 0 0-.13-1.58q-.11-.79-.28-1.55zm-4.22 7.76h4.22q.17-.75.28-1.53a14.56 14.56 0 0 0 .13-1.58h-4.63zm2.84 3.54a9.29 9.29 0 0 0 .5-.93q.23-.5.42-1.06h-3.76v4.54a2.91 2.91 0 0 0 .53-.21 4 4 0 0 0 .51-.3 5.42 5.42 0 0 0 .95-.86 7.68 7.68 0 0 0 .85-1.17zM64 49.32a8.52 8.52 0 0 0-.64-.89q-.36-.43-.76-.81a10.08 10.08 0 0 0-1.31-1.1 9.7 9.7 0 0 0-1.48-.86 9.12 9.12 0 0 1 1 1.66 14.44 14.44 0 0 1 .8 2zm-1.4 12.57q.39-.39.74-.81a8.42 8.42 0 0 0 .64-.89h-2.32a14.39 14.39 0 0 1-.8 2 9.11 9.11 0 0 1-1 1.66 9.7 9.7 0 0 0 1.43-.85 10 10 0 0 0 1.31-1.11zM62.43 54h3.1a11.44 11.44 0 0 0-.25-1.58 9.73 9.73 0 0 0-.5-1.53h-2.71q.15.73.24 1.52t.12 1.59zm-.36 4.66h2.72a9.72 9.72 0 0 0 .5-1.53 11.43 11.43 0 0 0 .25-1.58h-3.1q0 .8-.12 1.59t-.25 1.5zM147.48 247.55a18.11 18.11 0 0 1 1.67 1q.81.56 1.57 1.18t1.47 1.31l-2.07 2.07a17.5 17.5 0 0 0-2.67-2.19 17.94 17.94 0 0 0-3-1.62 16.61 16.61 0 0 0-3.26-1 18 18 0 0 0-6.88 0 16.64 16.64 0 0 0-3.26 1 18 18 0 0 0-3 1.62 17.5 17.5 0 0 0-2.67 2.19l-2.07-2.07q.71-.68 1.47-1.31t1.57-1.18a18 18 0 0 1 1.67-1q.87-.47 1.78-.85t1.93-.68q1-.3 2-.5a19.56 19.56 0 0 1 2-.31q1-.1 2.05-.1t2.05.1a19.52 19.52 0 0 1 2 .31q1 .21 2 .5t1.93.68q.86.38 1.72.85zm-17.82 5.82a13.74 13.74 0 0 1 2.5-1.33 15 15 0 0 1 2.72-.82 14.6 14.6 0 0 1 5.74 0 15 15 0 0 1 2.72.82 13.78 13.78 0 0 1 2.5 1.33 15.81 15.81 0 0 1 2.23 1.82l-2.07 2.08a11.62 11.62 0 0 0-3.78-2.53 11.83 11.83 0 0 0-2.18-.66 11.64 11.64 0 0 0-4.58 0 11.8 11.8 0 0 0-2.18.66 11.62 11.62 0 0 0-3.78 2.53l-2.07-2.07a15.82 15.82 0 0 1 2.23-1.83zm11.48 4.08a8.61 8.61 0 0 1 2.78 1.89l-2.05 2.05a5.91 5.91 0 0 0-1.86-1.25 5.86 5.86 0 0 0-4.53 0 5.89 5.89 0 0 0-1.86 1.25l-2.05-2.05a8.72 8.72 0 0 1 9.57-1.89zm-4.42 5.55a1.49 1.49 0 1 1-.42 1 1.41 1.41 0 0 1 .42-1zM212.33 229.79h18.33v2.73h-21v-21.87h2.62zm1.88-2a2.13 2.13 0 0 1 0-2.91 1.86 1.86 0 0 1 1.39-.6h.16l2.13-3.68a1.75 1.75 0 0 1-.25-.51 2.1 2.1 0 0 1-.08-.6 2 2 0 0 1 .57-1.45 1.92 1.92 0 0 1 2.78 0 2 2 0 0 1 .57 1.45 2.14 2.14 0 0 1-.08.6 1.75 1.75 0 0 1-.25.51l2.13 3.68h.29l3.5-6.37a1.91 1.91 0 0 1-.26-.53 2.09 2.09 0 0 1-.09-.62 2 2 0 0 1 .57-1.45 1.92 1.92 0 0 1 2.78 0 2.13 2.13 0 0 1 0 2.91 1.85 1.85 0 0 1-1.39.6h-.12l-3.5 6.37a1.92 1.92 0 0 1 .26.53 2.09 2.09 0 0 1 .09.62 2 2 0 0 1-.57 1.45 1.92 1.92 0 0 1-2.78 0 2 2 0 0 1-.57-1.45 2.1 2.1 0 0 1 .08-.6 1.75 1.75 0 0 1 .25-.51l-2.13-3.68h-.33l-2.13 3.68a1.75 1.75 0 0 1 .25.51 2.1 2.1 0 0 1 .08.6 2 2 0 0 1-.57 1.45 1.92 1.92 0 0 1-2.78 0zM31.81 134.15a5 5 0 0 1 2.73 1.76 5 5 0 0 1-3.91 8.15h-3.2l-6.53 6.76-6.53-6.76h-2.62a5.6 5.6 0 0 1-5.15-7.76 5.39 5.39 0 0 1 1.19-1.77 5.89 5.89 0 0 1 1.78-1.19 5.37 5.37 0 0 1 2.17-.45h.5l.48.06v-.26a2.83 2.83 0 0 1 0-.29 3.83 3.83 0 0 1 3.86-3.83 3.76 3.76 0 0 1 3 1.5 6.9 6.9 0 0 1 2.35-1.91 6.92 6.92 0 0 1 5.67-.16 7 7 0 0 1 2.16 1.42 6.81 6.81 0 0 1 1.48 2.13 6.67 6.67 0 0 1 .57 2.6zM20.9 147.74l5.53-5.53h-3.68v-5.53h-3.69v5.53h-3.68zM260.46 128.94a6 6 0 0 1 2.4.48 6.13 6.13 0 0 1 3.27 3.27 6 6 0 0 1 .48 2.4 7.53 7.53 0 0 1-1.2 4.29 19.61 19.61 0 0 1-3 3.44q-1.77 1.65-3.81 3.45a22.34 22.34 0 0 0-3.73 4.35 23.35 23.35 0 0 0-3.83-4.33q-2-1.77-3.8-3.4a18.22 18.22 0 0 1-2.92-3.42 7.87 7.87 0 0 1-1.17-4.38 6 6 0 0 1 .48-2.4 6.14 6.14 0 0 1 3.27-3.27 6 6 0 0 1 2.4-.48 4.65 4.65 0 0 1 1.76.34 6.36 6.36 0 0 1 1.57.92 7.53 7.53 0 0 1 1.29 1.32 8.32 8.32 0 0 1 .94 1.52 8.28 8.28 0 0 1 .94-1.52 7.53 7.53 0 0 1 1.29-1.32 6.36 6.36 0 0 1 1.57-.92 4.64 4.64 0 0 1 1.8-.34zM219.54 55.71l8.79-4.39a10.45 10.45 0 0 1 .76 2.09 9.84 9.84 0 0 1-.49 6.12 9.85 9.85 0 0 1-5.23 5.23 9.92 9.92 0 0 1-7.65 0 9.84 9.84 0 0 1-5.23-5.23 9.92 9.92 0 0 1 0-7.65 9.84 9.84 0 0 1 5.23-5.23 9.6 9.6 0 0 1 3.83-.77zm10.2-7.19l-8.79 4.39v-9.83a9.68 9.68 0 0 1 2.77.4 9.84 9.84 0 0 1 2.46 1.11 9.74 9.74 0 0 1 2 1.72 10.25 10.25 0 0 1 1.55 2.21z"/></g></g></svg>