<svg xmlns="http://www.w3.org/2000/svg" viewBox="0 0 240.55 178.57"><defs><style>.cls-1,.cls-2,.cls-6{fill:none}.cls-1{stroke:#999;stroke-width:12px}.cls-1,.cls-2,.cls-3,.cls-6{stroke-miterlimit:10}.cls-2,.cls-3{stroke:#b3b3b3;stroke-width:5px}.cls-3{fill:#b3b3b3}.cls-4{fill:#fff}.cls-5{fill:#e6e6e6}.cls-6{stroke:#000;stroke-width:.5px}.cls-7{fill:#fc3}.cls-8{fill:#f15b4e}.cls-9{fill:#999}</style></defs><title>img-tool-02</title><g id="レイヤー_2" data-name="レイヤー 2"><g id="_2" data-name="2"><path class="cls-1" d="M6.36 19.75h226.3v141.5H6.36z"/><path class="cls-2" d="M7.51 2.5h224.11A6.43 6.43 0 0 1 238 8.93v160.71a6.43 6.43 0 0 1-6.43 6.43H8.93a6.43 6.43 0 0 1-6.43-6.43V7.51A5 5 0 0 1 7.51 2.5z"/><path class="cls-3" d="M2.5 163.56H238v6.08a6.43 6.43 0 0 1-6.43 6.43H8.93a6.43 6.43 0 0 1-6.43-6.43v-6.08z"/><path class="cls-3" d="M2.5 2.53H238v8.37a6.43 6.43 0 0 1-6.43 6.43H8.93A6.43 6.43 0 0 1 2.5 10.9V2.53z" transform="rotate(180 120.275 9.93)"/><circle class="cls-4" cx="13.23" cy="10.38" r="2.38"/><circle class="cls-4" cx="19.23" cy="10.38" r="2.38"/><circle class="cls-4" cx="25.23" cy="10.38" r="2.38"/><path class="cls-5" d="M19.23 46.79h201.38v12.25H19.23z"/><path d="M26.17 54.46v-4.37h.78a1.71 1.71 0 0 1 1.05.27 1.06 1.06 0 0 1 .35.9 1.39 1.39 0 0 1-.14.65.73.73 0 0 1-.41.36l.7 2.19h-.62l-.63-2h-.47v2zm.63-2.5h.16a.89.89 0 0 0 .59-.17.84.84 0 0 0 0-1.08.89.89 0 0 0-.59-.17h-.16zM28.8 54.46l.94-4.37h.63l.94 4.38h-.62l-.23-1.09h-.78l-.23 1.09zm.94-1.56h.63l-.32-1.9zM31.85 54.46v-4.37h.47l1.09 2.71v-2.71H34v4.38h-.44l-1.12-2.91v2.91zM34.86 54.46v-4.37h.63V52l.94-1.87h.78l-.94 1.72 1.1 2.66h-.78l-.78-2-.31.63v1.41zM31.48 77.46V74H31v-.47a1.06 1.06 0 0 0 .63-.47h.47v4.38zM79.69 77.51a.55.55 0 0 1-.44-.23.79.79 0 0 1-.18-.51 1.06 1.06 0 0 1 .08-.41 1.3 1.3 0 0 1 .16-.3 1 1 0 0 1 .29-.23l.3-.16.36-.14h.07v-.22a.83.83 0 0 0-.07-.37.3.3 0 0 0-.48 0 .63.63 0 0 0-.08.31v.08h-.62a1 1 0 0 1 .25-.72 1 1 0 0 1 1.37 0 1 1 0 0 1 .25.71v1.41a3 3 0 0 0 .08.78h-.62l-.1-.51-.08.15-.09.13a.55.55 0 0 1-.12.12l-.15.07a.57.57 0 0 1-.18.04zM80 77a.24.24 0 0 0 .13 0l.09-.08.08-.1v-.92l-.13.08-.14.09-.13.1a.67.67 0 0 0-.12.12.61.61 0 0 0-.07.14.48.48 0 0 0 0 .17q-.02.4.29.4zM81.67 77.46v-3.12h.63v.34l.23-.19a1 1 0 0 1 .24-.13.92.92 0 0 1 .33-.06.41.41 0 0 1 .32.15.54.54 0 0 1 .12.36v2.66h-.62v-2.35a.47.47 0 0 0 0-.24.21.21 0 0 0-.19-.07.4.4 0 0 0-.16 0l-.12.06-.15.13v2.47zM84.84 77.51a.55.55 0 0 1-.44-.23.79.79 0 0 1-.18-.51 1.06 1.06 0 0 1 .08-.41 1.3 1.3 0 0 1 .16-.3 1 1 0 0 1 .29-.23l.3-.16.36-.14h.07v-.22a.83.83 0 0 0-.07-.37.3.3 0 0 0-.48 0 .63.63 0 0 0-.08.31v.08h-.62a1 1 0 0 1 .25-.72 1 1 0 0 1 1.37 0 1 1 0 0 1 .25.71v1.41a3 3 0 0 0 .08.78h-.62l-.1-.51-.08.15-.09.13a.55.55 0 0 1-.12.12l-.15.07a.57.57 0 0 1-.18.04zm.31-.51a.24.24 0 0 0 .13 0l.09-.08.08-.1v-.92l-.13.08-.14.09-.13.1a.67.67 0 0 0-.12.12.61.61 0 0 0-.07.14.48.48 0 0 0 0 .17q-.02.4.29.4zM86.83 77.46v-4.37h.63v4.38zM88.13 78.24v-.47a1.45 1.45 0 0 0 .3 0 .3.3 0 0 0 .17-.09.29.29 0 0 0 .07-.14 1.07 1.07 0 0 0 0-.21l-.71-3h.63q.36 2 .39 2.19.05-.33.12-.69l.15-.81.13-.69H90l-.78 3.28a.7.7 0 0 1-.33.48 1.43 1.43 0 0 1-.7.14zM91.41 77.51a.68.68 0 0 1-.54-.19.85.85 0 0 1-.17-.57v-1.94h-.31v-.47h.31v-1.1h.63v1.09h.47v.47h-.47v1.82a.57.57 0 0 0 .05.28.22.22 0 0 0 .21.09h.21v.51zM92.48 73.87v-.62h.63v.63zm0 3.59v-3.12h.63v3.13zM94.68 77.51a1 1 0 0 1-.39-.08.72.72 0 0 1-.27-.2.94.94 0 0 1-.16-.31 2 2 0 0 1-.08-.38 4.38 4.38 0 0 1 0-.44v-.41a4.38 4.38 0 0 1 0-.44 2 2 0 0 1 .08-.38 1 1 0 0 1 .16-.31.72.72 0 0 1 .27-.2 1 1 0 0 1 .39-.08.86.86 0 0 1 .71.27 1.3 1.3 0 0 1 .23.79v.08H95v-.09a1.51 1.51 0 0 0 0-.21 1 1 0 0 0 0-.18.28.28 0 0 0-.09-.14.26.26 0 0 0-.16 0 .23.23 0 0 0-.16.06.33.33 0 0 0-.1.16 1.18 1.18 0 0 0 0 .21 2.15 2.15 0 0 0 0 .25v.91a2.3 2.3 0 0 0 0 .24 1.09 1.09 0 0 0 0 .2.32.32 0 0 0 .1.15.24.24 0 0 0 .15.05.3.3 0 0 0 .14 0 .25.25 0 0 0 .09-.08.38.38 0 0 0 .05-.12 1 1 0 0 0 0-.15v-.25h.63v.08a1.81 1.81 0 0 1-.06.44 1 1 0 0 1-.16.33.69.69 0 0 1-.29.22 1.12 1.12 0 0 1-.46.01zM97 77.51a.84.84 0 0 1-.62-.23 1.19 1.19 0 0 1-.32-.6l.47-.16q.17.47.47.47a.28.28 0 0 0 .31-.31.47.47 0 0 0-.16-.36l-.62-.47-.18-.13-.14-.15a.65.65 0 0 1-.11-.2.77.77 0 0 1 0-.24.75.75 0 0 1 .26-.61 1 1 0 0 1 .68-.21 1 1 0 0 1 .37.06.76.76 0 0 1 .27.18 1.08 1.08 0 0 1 .18.26 1.42 1.42 0 0 1 .11.32l-.47.16-.07-.16-.1-.13a.41.41 0 0 0-.14-.12.35.35 0 0 0-.17 0 .28.28 0 0 0-.31.31.33.33 0 0 0 .16.26l.63.47.18.16a1.42 1.42 0 0 1 .15.18.77.77 0 0 1 .11.23.94.94 0 0 1 0 .27.75.75 0 0 1-.26.61 1 1 0 0 1-.68.14zM131.48 77.46V74H131v-.47a1.06 1.06 0 0 0 .63-.47h.47v4.38zM133.95 77.51a1.06 1.06 0 0 1-.61-.17 1 1 0 0 1-.37-.46 1.76 1.76 0 0 1-.12-.67v-1.87a1.49 1.49 0 0 1 .27-.95 1.14 1.14 0 0 1 1.64 0 1.49 1.49 0 0 1 .27.95v1.88a1.47 1.47 0 0 1-.28.94 1 1 0 0 1-.8.35zm0-.51q.47 0 .47-.78v-1.88-.24a1.24 1.24 0 0 0 0-.21.57.57 0 0 0-.08-.18.36.36 0 0 0-.14-.11.49.49 0 0 0-.4 0 .36.36 0 0 0-.14.11.57.57 0 0 0-.08.18 1.24 1.24 0 0 0 0 .21v2.12a1.82 1.82 0 0 0 0 .28 1 1 0 0 0 .07.25.41.41 0 0 0 .15.18.39.39 0 0 0 .15.07zM136.93 77.46v-1.12h-1.25v-.7l1.09-2.56h.78v2.66h.45v.59h-.48v1.12zm-.62-1.71h.63v-1.88zM138.67 78.09l-.16-.31a.27.27 0 0 0 .31-.31h-.31v-.62h.63V77.66a.89.89 0 0 1 0 .18.38.38 0 0 1-.14.16.35.35 0 0 1-.13.08.56.56 0 0 1-.2.01zM140.83 77.51a1 1 0 0 1-.83-.33 1.58 1.58 0 0 1-.25-1h.63v.32a1 1 0 0 0 0 .19.48.48 0 0 0 .07.16.36.36 0 0 0 .12.1.41.41 0 0 0 .19 0h.16l.12-.05a.29.29 0 0 0 .09-.09l.06-.11a.53.53 0 0 0 0-.14v-.15-.17V75.81v-.18-.16a.85.85 0 0 0 0-.15.57.57 0 0 0-.05-.12.3.3 0 0 0-.08-.09l-.06-.01h-.16a.42.42 0 0 0-.29.11.63.63 0 0 0-.18.25h-.53v-2.37h1.93v.63h-1.37v1.06a1.21 1.21 0 0 1 .63-.16 1 1 0 0 1 .38.06.74.74 0 0 1 .27.18.88.88 0 0 1 .17.28 1.59 1.59 0 0 1 .1.35 2.8 2.8 0 0 1 0 .41 4 4 0 0 1 0 .51 2.11 2.11 0 0 1-.1.44 1.08 1.08 0 0 1-.2.35.86.86 0 0 1-.32.23 1.16 1.16 0 0 1-.5.08zM143.74 77.46v-1.12h-1.25v-.7l1.09-2.56h.78v2.66h.48v.59h-.48v1.12zm-.62-1.71h.63v-1.88zM146.47 77.51a1.06 1.06 0 0 1-.61-.17 1 1 0 0 1-.37-.46 1.76 1.76 0 0 1-.12-.67v-1.87a1.49 1.49 0 0 1 .27-.95 1.14 1.14 0 0 1 1.64 0 1.49 1.49 0 0 1 .27.95v1.88a1.47 1.47 0 0 1-.28.94 1 1 0 0 1-.8.35zm0-.51q.47 0 .47-.78v-1.88-.24a1.24 1.24 0 0 0 0-.21.57.57 0 0 0-.08-.18.36.36 0 0 0-.14-.11.49.49 0 0 0-.4 0 .36.36 0 0 0-.14.11.57.57 0 0 0-.08.18 1.24 1.24 0 0 0 0 .21v2.12a1.82 1.82 0 0 0 0 .28 1 1 0 0 0 .07.25.41.41 0 0 0 .15.18.39.39 0 0 0 .15.07zM182.16 77.51a1 1 0 0 1-.83-.33 1.58 1.58 0 0 1-.25-1h.63v.32a1 1 0 0 0 0 .19.46.46 0 0 0 .07.16.35.35 0 0 0 .12.1.42.42 0 0 0 .19 0h.16l.12-.05a.29.29 0 0 0 .09-.09l.06-.11a.5.5 0 0 0 0-.14v-.15a1.66 1.66 0 0 0 0-.17V75.81v-.18-.16a.76.76 0 0 0 0-.15.62.62 0 0 0-.05-.12.29.29 0 0 0-.08-.09l-.12-.06h-.16a.42.42 0 0 0-.29.11.64.64 0 0 0-.18.25h-.53v-2.32h1.93v.63h-1.37v1.06a1.21 1.21 0 0 1 .63-.16 1 1 0 0 1 .38.06.75.75 0 0 1 .27.18.9.9 0 0 1 .17.28 1.54 1.54 0 0 1 .09.35 2.79 2.79 0 0 1 0 .41 4 4 0 0 1 0 .51 2 2 0 0 1-.11.44 1.08 1.08 0 0 1-.2.35.87.87 0 0 1-.32.23 1.16 1.16 0 0 1-.42.08zM184.93 77.51a1 1 0 0 1-.83-.33 1.58 1.58 0 0 1-.25-1h.63v.32a1 1 0 0 0 0 .19.46.46 0 0 0 .07.16.35.35 0 0 0 .12.1.42.42 0 0 0 .19 0h.16l.12-.05a.29.29 0 0 0 .09-.09l.06-.11a.5.5 0 0 0 0-.14v-.15a1.66 1.66 0 0 0 0-.17V75.81v-.18-.16a.76.76 0 0 0 0-.15.62.62 0 0 0-.05-.12.29.29 0 0 0-.08-.09l-.12-.06h-.16a.42.42 0 0 0-.29.11.64.64 0 0 0-.18.25h-.53v-2.32h1.93v.63h-1.37v1.06a1.21 1.21 0 0 1 .63-.16 1 1 0 0 1 .38.06.75.75 0 0 1 .27.18.9.9 0 0 1 .17.28 1.54 1.54 0 0 1 .09.35 2.79 2.79 0 0 1 0 .41 4 4 0 0 1 0 .51 2 2 0 0 1-.11.44 1.08 1.08 0 0 1-.2.35.87.87 0 0 1-.32.23 1.16 1.16 0 0 1-.42.08zM186.72 78.09l-.16-.31a.27.27 0 0 0 .31-.31h-.31v-.62h.63V77.66a.89.89 0 0 1 0 .18.38.38 0 0 1-.08.14.34.34 0 0 1-.13.08.56.56 0 0 1-.26.03zM187.75 77.46v-.62l1.1-1.56.09-.12.06-.16.08-.12.07-.13.06-.13a.87.87 0 0 0 0-.15v-.15a1.32 1.32 0 0 0 0-.18.77.77 0 0 0-.12-.44.43.43 0 0 0-.58-.12.42.42 0 0 0-.15.18 1.09 1.09 0 0 0-.07.25 1.71 1.71 0 0 0 0 .28v.16h-.62v-.16a1.52 1.52 0 0 1 .26-1 1 1 0 0 1 .83-.34 1.06 1.06 0 0 1 .81.3 1.18 1.18 0 0 1 .28.84 1.93 1.93 0 0 1 0 .38 1.45 1.45 0 0 1-.11.34c-.05.11-.1.2-.14.27l-.18.27-1.09 1.41h1.56v.63zM190.73 77.46l.8-3.85h-1.15v-.52h1.75v.3l-.8 4.07zM193.81 77.51a1.06 1.06 0 0 1-.61-.17 1 1 0 0 1-.37-.46 1.76 1.76 0 0 1-.12-.67v-1.87a1.49 1.49 0 0 1 .27-.95 1.14 1.14 0 0 1 1.64 0 1.49 1.49 0 0 1 .27.95v1.88a1.47 1.47 0 0 1-.28.94 1 1 0 0 1-.8.35zm0-.51q.47 0 .47-.78v-1.88-.24a1.24 1.24 0 0 0 0-.21.57.57 0 0 0-.08-.18.36.36 0 0 0-.14-.11.49.49 0 0 0-.4 0 .36.36 0 0 0-.14.11.57.57 0 0 0-.08.18 1.24 1.24 0 0 0 0 .21v2.12a1.82 1.82 0 0 0 0 .28 1 1 0 0 0 .07.25.41.41 0 0 0 .15.18.39.39 0 0 0 .15.07zM19.48 41.46V38h.75a1.7 1.7 0 0 1 .43.05 1 1 0 0 1 .33.15.67.67 0 0 1 .22.27 1 1 0 0 1 .08.4.78.78 0 0 1-.14.5.81.81 0 0 1-.43.25 1 1 0 0 1 .47.3.91.91 0 0 1 .16.57.93.93 0 0 1-1 1zm.5-2h.25a.55.55 0 0 0 .63-.62.59.59 0 0 0 0-.18.54.54 0 0 0-.06-.13.27.27 0 0 0-.11-.09l-.13-.06H20zm0 1.63h.25a.63.63 0 1 0 0-1.25H20zM22.2 41.46V38h.63a1.37 1.37 0 0 1 .84.22.85.85 0 0 1 .28.72 1.11 1.11 0 0 1-.11.52.59.59 0 0 1-.33.29l.56 1.75h-.5l-.5-1.62h-.37v1.63zm.5-2h.13a.71.71 0 0 0 .47-.13.67.67 0 0 0 0-.86.71.71 0 0 0-.47-.13h-.13zM24.84 41.46V38h1.38v.38h-.87v1.13H26v.38h-.62v1.25h.88v.38zM26.79 41.46l.75-3.5H28l.75 3.5h-.5l-.19-.87h-.62l-.19.88zm.75-1.25H28l-.25-1.5zM29.55 41.46V38H30v1.5l.8-1.5h.63l-.75 1.38.88 2.13h-.62l-.62-1.62-.25.5v1.13zM32.21 41.46V38H33a.84.84 0 0 1 1 1v1.38a1.31 1.31 0 0 1-.23.85 1 1 0 0 1-.77.27zm.5-.37h.5a.29.29 0 0 0 .14-.08l.09-.11a.44.44 0 0 0 0-.17v-.19-1.43-.15-.13a.91.91 0 0 0 0-.12v-.1a.25.25 0 0 0 0-.09l-.06-.07-.09-.05h-.53zM35.81 41.5a1.16 1.16 0 0 1-.45-.08.69.69 0 0 1-.3-.23 1 1 0 0 1-.16-.36 2.06 2.06 0 0 1-.05-.48v-1.28a2 2 0 0 1 .05-.48 1 1 0 0 1 .16-.36.68.68 0 0 1 .3-.23 1.2 1.2 0 0 1 .45-.08.88.88 0 0 1 .74.29 1.37 1.37 0 0 1 .23.85v1.27a2 2 0 0 1-.05.48 1.06 1.06 0 0 1-.16.36.7.7 0 0 1-.3.24 1.13 1.13 0 0 1-.46.09zm-.36-.57a.5.5 0 0 0 .73 0 .88.88 0 0 0 .1-.47v-1.52a.83.83 0 0 0-.1-.46.52.52 0 0 0-.73 0 .83.83 0 0 0-.1.46v1.52a.88.88 0 0 0 .09.47zM38.08 41.46L37.46 38H38l.25 1.63.13 1 .12-1 .21-1.63h.5l.25 1.63.12 1 .13-1L40 38h.5l-.62 3.5h-.5l-.25-1.62-.12-1-.12 1-.25 1.63zM41.21 41.46V38h.38l.88 2.16V38H43v3.5h-.36l-.89-2.33v2.33zM43.94 41.59v-3.75h1v.25h-.5v3.25h.5v.25zM45.7 41.46l.75-3.5H47l.75 3.5h-.5l-.25-.87h-.62l-.19.88zm.75-1.25H47l-.25-1.5zM48.46 41.46V38h.88q.88 0 .88 1a.79.79 0 0 1-.87.88H49v1.63zm.5-2H49.37a.52.52 0 0 0 .19-.07.3.3 0 0 0 .12-.15.76.76 0 0 0 0-.25 1.38 1.38 0 0 0 0-.3.37.37 0 0 0-.29-.29 1.34 1.34 0 0 0-.31 0H49zM51 41.46V38h.63a1.37 1.37 0 0 1 .84.22.85.85 0 0 1 .28.72 1.11 1.11 0 0 1-.11.52.59.59 0 0 1-.33.29l.56 1.75h-.5l-.5-1.62h-.37v1.63zm.5-2h.13a.71.71 0 0 0 .47-.13.67.67 0 0 0 0-.86.71.71 0 0 0-.47-.13h-.12zM53.51 41.46V41l.88-1.25.07-.09.07-.1.06-.09.06-.1v-.1a.69.69 0 0 0 0-.12v-.12a1 1 0 0 0 0-.14.63.63 0 0 0-.1-.35.34.34 0 0 0-.46-.09.33.33 0 0 0-.12.15.86.86 0 0 0-.06.2 1.38 1.38 0 0 0 .09.2v.13h-.5V39a1.22 1.22 0 0 1 .21-.76.79.79 0 0 1 .66-.27.85.85 0 0 1 .65.24.94.94 0 0 1 .22.67 1.52 1.52 0 0 1 0 .3 1.16 1.16 0 0 1-.09.27l-.11.21-.14.21L54 41h1.25v.5zM57 41.46v-.9h-1V40l.88-2h.63v2.13h.39v.47h-.39v.9zm-.5-1.37h.5v-1.5zM58.45 40.59v-.37h.75v.38zM59.93 41.46V38h.69l.5 2.68.5-2.68h.69v3.5h-.5v-2.8l-.5 2.76h-.37l-.5-2.76v2.76zM63.06 41.46l.75-3.5h.5l.75 3.5h-.5l-.19-.87h-.63l-.19.88zm.75-1.25h.5l-.25-1.5zM66.32 41.46v-1.12L65.57 38h.5l.5 1.75.5-1.75h.5l-.75 2.38v1.13zM68.18 41.46V41l.88-1.25.07-.09.07-.1.06-.09.06-.1v-.1a.69.69 0 0 0 0-.12v-.12a1 1 0 0 0 0-.14.63.63 0 0 0-.1-.35.34.34 0 0 0-.46-.09.33.33 0 0 0-.12.15.86.86 0 0 0-.06.2 1.38 1.38 0 0 0 0 .23v.13h-.5V39a1.22 1.22 0 0 1 .21-.76.79.79 0 0 1 .66-.27.85.85 0 0 1 .65.24.94.94 0 0 1 .22.67 1.52 1.52 0 0 1 0 .3 1.16 1.16 0 0 1-.09.27l-.11.21-.14.21-.8 1.13h1.25v.5zM71.68 41.46v-.9h-1V40l.88-2h.63v2.13h.39v.47h-.39v.9zm-.5-1.37h.5v-1.5zM73.37 41.59v-.25h.5v-3.25h-.5v-.25h1v3.75zM103.48 41.46V38h.78a.84.84 0 0 1 1 1v1.38a1.31 1.31 0 0 1-.23.85 1 1 0 0 1-.77.27zm.5-.37h.49a.29.29 0 0 0 .14-.08l.09-.11a.44.44 0 0 0 0-.17v-.19-1.43-.15-.13a.91.91 0 0 0 0-.12v-.1a.25.25 0 0 0 0-.09l-.06-.07-.09-.05H104zM106.17 38.59v-.5h.5v.5zm0 2.88V39h.5v2.5zM107.63 41.46V39h.5v.28a.8.8 0 0 1 .62-.32.38.38 0 0 1 .25.04.44.44 0 0 1 .11.25.94.94 0 0 1 .27-.25.7.7 0 0 1 .36-.08h.2l.06.08v.07a.29.29 0 0 1 0 .09v2.31h-.5v-1.86-.1a.48.48 0 0 0 0-.08.12.12 0 0 0 0-.07h-.07a.41.41 0 0 0-.15 0l-.12.06-.1.08v2h-.5v-1.97a.51.51 0 0 0 0-.07.2.2 0 0 0 0-.07h-.06a.59.59 0 0 0-.37.16v2zM111.76 41.5a.74.74 0 0 1-.32-.06.57.57 0 0 1-.21-.16.8.8 0 0 1-.13-.26 1.72 1.72 0 0 1-.07-.31v-.37-.33a3.36 3.36 0 0 1 0-.35 1.47 1.47 0 0 1 .07-.29.7.7 0 0 1 .13-.23.58.58 0 0 1 .21-.15.79.79 0 0 1 .31-.06.87.87 0 0 1 .28 0 .5.5 0 0 1 .2.13.81.81 0 0 1 .13.19.9.9 0 0 1 .08.25 2.78 2.78 0 0 1 0 .29v.39h-1v.51a.7.7 0 0 0 0 .14.59.59 0 0 0 0 .12.19.19 0 0 0 .18.11.25.25 0 0 0 .13 0A.18.18 0 0 0 112 41a.56.56 0 0 0 0-.12 1.2 1.2 0 0 0 0-.15v-.11h.5v.1a1 1 0 0 1-.2.61.7.7 0 0 1-.54.17zm-.25-1.5h.5v-.15a1.67 1.67 0 0 0 0-.17.81.81 0 0 0 0-.15.23.23 0 0 0-.08-.11.22.22 0 0 0-.25 0 .24.24 0 0 0-.08.12.88.88 0 0 0 0 .15 1.71 1.71 0 0 0 0 .18zM113.35 41.46V39h.5v.27l.18-.16a.8.8 0 0 1 .19-.1.73.73 0 0 1 .26 0 .32.32 0 0 1 .26.12.43.43 0 0 1 .1.29v2.13h-.5v-1.96a.37.37 0 0 0 0-.19.16.16 0 0 0-.15-.06h-.22l-.09.07v2zM116.46 41.5a.55.55 0 0 1-.43-.15.68.68 0 0 1-.14-.46v-1.55h-.25V39h.25v-.87h.5V39h.38v.38h-.37v1.42a.45.45 0 0 0 0 .22.18.18 0 0 0 .17.07h.17v.41zM117.64 38.59v-.5h.5v.5zm0 2.88V39h.5v2.5zM120.38 41.26a.83.83 0 0 1-1.15 0 1.12 1.12 0 0 1-.17-.68v-.75a1.12 1.12 0 0 1 .17-.68.83.83 0 0 1 1.15 0 1.12 1.12 0 0 1 .17.68v.75a1.12 1.12 0 0 1-.17.68zm-.67-.19h.25a.17.17 0 0 0 0-.07v-.08a.46.46 0 0 0 0-.1v-.1-.86-.11-.1a.46.46 0 0 0 0-.1v-.08a.17.17 0 0 0 0-.07h-.32a.17.17 0 0 0 0 .07v.08a.46.46 0 0 0 0 .1V40.82a.46.46 0 0 0 0 .1V41a.17.17 0 0 0 0 .07zM121.44 41.46V39h.5v.27l.18-.16a.8.8 0 0 1 .19-.1.73.73 0 0 1 .26 0 .32.32 0 0 1 .26.12.43.43 0 0 1 .1.29v2.13h-.5v-1.96a.37.37 0 0 0 0-.19.16.16 0 0 0-.15-.06h-.22l-.09.07v2zM130.7 41.5a1.16 1.16 0 0 1-.42-.07.77.77 0 0 1-.29-.19.86.86 0 0 1-.18-.3 1.75 1.75 0 0 1-.09-.38 3.62 3.62 0 0 1 0-.46v-.89q0-1.29 1-1.29a1.12 1.12 0 0 1 .42.07.7.7 0 0 1 .29.21 1 1 0 0 1 .17.33 1.76 1.76 0 0 1 .07.44v.11h-.5V39v-.21a.9.9 0 0 0 0-.17.37.37 0 0 0-.08-.14.35.35 0 0 0-.13-.09.52.52 0 0 0-.19 0 .54.54 0 0 0-.26.06.38.38 0 0 0-.16.16.82.82 0 0 0-.08.23 1.67 1.67 0 0 0 0 .3V40.71a.71.71 0 0 0 .05.18.6.6 0 0 0 .09.14.35.35 0 0 0 .13.09.5.5 0 0 0 .19 0 .45.45 0 0 0 .22 0 .42.42 0 0 0 .15-.13.62.62 0 0 0 .08-.2 1.36 1.36 0 0 0 0-.24v-.39h-.5v-.37h1v1.75h-.37l-.12-.37a.52.52 0 0 1-.49.33zM132.58 41.46V38h.63a1.37 1.37 0 0 1 .84.22.85.85 0 0 1 .28.72 1.11 1.11 0 0 1-.11.52.59.59 0 0 1-.33.29l.56 1.75H134l-.5-1.62h-.37v1.63zm.5-2h.13a.71.71 0 0 0 .47-.13.67.67 0 0 0 0-.86.71.71 0 0 0-.47-.13h-.12zM135.23 41.46V38h.88q.87 0 .88 1a.79.79 0 0 1-.87.88h-.37v1.63zm.5-2H136.14a.52.52 0 0 0 .19-.07.3.3 0 0 0 .12-.15.77.77 0 0 0 0-.25 1.35 1.35 0 0 0 0-.3.39.39 0 0 0-.1-.19.39.39 0 0 0-.19-.1 1.34 1.34 0 0 0-.31 0h-.12zM143.76 41.46V38h.63a1.37 1.37 0 0 1 .84.22.85.85 0 0 1 .28.72 1.11 1.11 0 0 1-.11.52.59.59 0 0 1-.33.29l.56 1.75h-.5l-.5-1.62h-.37v1.63zm.5-2h.13a.71.71 0 0 0 .47-.13.67.67 0 0 0 0-.86.71.71 0 0 0-.47-.13h-.12zM147.09 41.5a.75.75 0 0 1-.32-.06.58.58 0 0 1-.21-.16.78.78 0 0 1-.13-.26 1.73 1.73 0 0 1-.07-.31v-.37-.33a3.38 3.38 0 0 1 0-.35 1.44 1.44 0 0 1 .07-.29.7.7 0 0 1 .13-.23.59.59 0 0 1 .21-.15.79.79 0 0 1 .31-.06.87.87 0 0 1 .28 0 .49.49 0 0 1 .2.13.78.78 0 0 1 .13.19.9.9 0 0 1 .08.25 2.77 2.77 0 0 1 0 .29v.39h-1v.51a.66.66 0 0 0 0 .14.56.56 0 0 0 0 .12.2.2 0 0 0 .07.08.2.2 0 0 0 .11 0 .25.25 0 0 0 .13 0 .18.18 0 0 0 .07-.09.57.57 0 0 0 0-.12 1.41 1.41 0 0 0 0-.15v-.11h.5v.1a1 1 0 0 1-.2.61.7.7 0 0 1-.36.23zm-.24-1.5h.5v-.15-.17a.82.82 0 0 0 0-.15.23.23 0 0 0-.07-.11.22.22 0 0 0-.25 0 .24.24 0 0 0-.08.12.88.88 0 0 0 0 .15 1.47 1.47 0 0 0 0 .18zM149.48 42.21h-.79l-.11-.06a.24.24 0 0 1-.08-.09.27.27 0 0 1 0-.12.53.53 0 0 1 .1-.33.76.76 0 0 1 .27-.22.51.51 0 0 1-.18-.08.16.16 0 0 1-.07-.14.37.37 0 0 1 0-.07v-.36a1.12 1.12 0 0 1-.25-.75 1.23 1.23 0 0 1 .08-.46.72.72 0 0 1 .25-.33.7.7 0 0 1 .41-.12.69.69 0 0 1 .24 0 .51.51 0 0 1 .17.1.82.82 0 0 1 .13.16.5.5 0 0 1 .42-.29v.41h-.34a1 1 0 0 1 .06.2 1.14 1.14 0 0 1 0 .23 1.26 1.26 0 0 1-.08.46.69.69 0 0 1-.25.32.71.71 0 0 1-.42.12h-.25a.1.1 0 0 0 0 .09.34.34 0 0 0 .13.05H149.6l.18.06a.51.51 0 0 1 .15.09.43.43 0 0 1 .1.14.48.48 0 0 1 0 .2.6.6 0 0 1 0 .24.49.49 0 0 1-.13.18.69.69 0 0 1-.19.12 1.07 1.07 0 0 1-.24.07zm0-.37H149.84l.06-.05a.14.14 0 0 0 0-.07q0-.21-.4-.26h-.41a.43.43 0 0 0-.13.16.47.47 0 0 0-.05.22.07.07 0 0 0 0 .05h.54zm-.12-1.47q.31 0 .31-.53a1.38 1.38 0 0 0 0-.2.82.82 0 0 0 0-.18.31.31 0 0 0-.1-.14.27.27 0 0 0-.31 0 .3.3 0 0 0-.1.14.87.87 0 0 0 0 .18 1.38 1.38 0 0 0 0 .2q-.16.53.19.53zM151 38.59v-.5h.5v.5zm0 2.88V39h.5v2.5zM153.73 41.26a.83.83 0 0 1-1.15 0 1.13 1.13 0 0 1-.17-.68v-.75a1.13 1.13 0 0 1 .17-.68.83.83 0 0 1 1.15 0 1.13 1.13 0 0 1 .17.68v.75a1.13 1.13 0 0 1-.17.68zm-.67-.19h.25a.17.17 0 0 0 0-.07v-.08a.46.46 0 0 0 0-.1v-.1-.86V39.65a.46.46 0 0 0 0-.1v-.08a.17.17 0 0 0 0-.07h-.32a.17.17 0 0 0 0 .07v.08a.46.46 0 0 0 0 .1V40.82a.46.46 0 0 0 0 .1V41a.17.17 0 0 0 0 .07zM154.8 41.46V39h.5v.27l.18-.16a.8.8 0 0 1 .19-.1.74.74 0 0 1 .27 0 .33.33 0 0 1 .26.12.43.43 0 0 1 .1.29v2.13h-.5v-1.96a.38.38 0 0 0 0-.19.17.17 0 0 0-.15-.06h-.22l-.09.07v2zM163.66 41.5a1.12 1.12 0 0 1-.39-.06.74.74 0 0 1-.28-.17.84.84 0 0 1-.17-.28 1.47 1.47 0 0 1-.09-.35 3.05 3.05 0 0 1 0-.42v-1a3.05 3.05 0 0 1 0-.42 1.47 1.47 0 0 1 .09-.35.83.83 0 0 1 .17-.27.75.75 0 0 1 .28-.17 1.25 1.25 0 0 1 .81 0 .66.66 0 0 1 .28.21 1 1 0 0 1 .16.33 1.78 1.78 0 0 1 .06.43v.12h-.5V39v-.18a1.46 1.46 0 0 0 0-.15.4.4 0 0 0 0-.13l-.08-.1a.27.27 0 0 0-.12-.06h-.16a.51.51 0 0 0-.21 0 .36.36 0 0 0-.14.1.43.43 0 0 0-.08.17 1.27 1.27 0 0 0 0 .2v1.49a2.26 2.26 0 0 0 0 .23 1 1 0 0 0 0 .2.59.59 0 0 0 .08.17.36.36 0 0 0 .13.11.43.43 0 0 0 .19 0 .4.4 0 0 0 .19 0 .35.35 0 0 0 .13-.11.54.54 0 0 0 .07-.17 1.27 1.27 0 0 0 0-.2v-.35h.5v.13a2.09 2.09 0 0 1 0 .48 1.08 1.08 0 0 1-.15.36.67.67 0 0 1-.29.24 1.07 1.07 0 0 1-.48.07zM165.4 38.59v-.5h.5v.5zm0 2.88V39h.5v2.5zM167.56 41.5a.55.55 0 0 1-.43-.15.68.68 0 0 1-.14-.46v-1.55h-.25V39h.26v-.87h.5V39h.38v.38h-.37v1.42a.45.45 0 0 0 0 .22.18.18 0 0 0 .17.07h.17v.41zM168.64 42.09v-.37h.24a.24.24 0 0 0 .13-.07.24.24 0 0 0 .06-.11.9.9 0 0 0 0-.17l-.55-2.37h.5l.31 1.75q0-.26.09-.56l.12-.64.1-.55h.5l-.62 2.63a.56.56 0 0 1-.26.39 1.14 1.14 0 0 1-.56.11zM58.29 54.51a1.39 1.39 0 0 1-.49-.08.92.92 0 0 1-.34-.22 1.08 1.08 0 0 1-.22-.34 1.9 1.9 0 0 1-.12-.44 3.68 3.68 0 0 1 0-.53v-1.25a3.68 3.68 0 0 1 0-.53 1.91 1.91 0 0 1 .12-.44 1.06 1.06 0 0 1 .22-.34.92.92 0 0 1 .34-.21 1.57 1.57 0 0 1 1 0 .82.82 0 0 1 .36.27 1.25 1.25 0 0 1 .2.41 2.31 2.31 0 0 1 .08.54v.14h-.62v-.14-.22a1.6 1.6 0 0 0 0-.19.49.49 0 0 0-.15-.28.35.35 0 0 0-.15-.08h-.21a.63.63 0 0 0-.26 0 .44.44 0 0 0-.17.13.53.53 0 0 0-.09.21 1.44 1.44 0 0 0 0 .25v1.86a2.62 2.62 0 0 0 0 .28 1.32 1.32 0 0 0 .05.25.73.73 0 0 0 .1.21.46.46 0 0 0 .17.14.53.53 0 0 0 .24.05.5.5 0 0 0 .24-.05.44.44 0 0 0 .16-.14.66.66 0 0 0 .09-.21 1.54 1.54 0 0 0 0-.25V52.9h.63v.16a2.63 2.63 0 0 1-.06.6 1.35 1.35 0 0 1-.19.45.85.85 0 0 1-.36.3 1.34 1.34 0 0 1-.57.1zM59.8 54.46l.94-4.37h.63l.94 4.38h-.62l-.23-1.09h-.78l-.23 1.09zm.94-1.56h.63L61 51zM62.85 54.46v-4.37h.86l.62 3.35.67-3.35h.86v4.38h-.62V51l-.62 3.45h-.52L63.47 51v3.45zM66.64 54.46v-4.37h1.09q1.09 0 1.09 1.25a1 1 0 0 1-1.09 1.09h-.47v2zm.63-2.5h.51a.64.64 0 0 0 .24-.09.37.37 0 0 0 .15-.19 1 1 0 0 0 0-.32 1.71 1.71 0 0 0 0-.38.47.47 0 0 0-.36-.37 1.7 1.7 0 0 0-.38 0h-.16zM69.11 54.46l.89-4.37h.63l.94 4.38H71l-.23-1.09H70l-.23 1.09zM70 52.9h.63l-.27-1.9zM72.19 54.46v-4.37h.63v4.38zM74.86 54.51a1.44 1.44 0 0 1-.52-.09 1 1 0 0 1-.36-.23 1.06 1.06 0 0 1-.22-.37 2.19 2.19 0 0 1-.11-.48 4.7 4.7 0 0 1 0-.58v-1.11q0-1.61 1.27-1.61a1.39 1.39 0 0 1 .53.09.87.87 0 0 1 .36.27 1.22 1.22 0 0 1 .21.41 2.2 2.2 0 0 1 .08.55v.13h-.62v-.13a2.44 2.44 0 0 0 0-.26 1.1 1.1 0 0 0 0-.22.48.48 0 0 0-.1-.17.44.44 0 0 0-.16-.11.66.66 0 0 0-.24 0 .68.68 0 0 0-.32.07.48.48 0 0 0-.2.2 1 1 0 0 0-.1.29 2.08 2.08 0 0 0 0 .37V53.18a2.53 2.53 0 0 0 0 .26.87.87 0 0 0 .07.23.74.74 0 0 0 .11.17.44.44 0 0 0 .17.12.64.64 0 0 0 .23 0 .57.57 0 0 0 .27-.06.5.5 0 0 0 .18-.16.77.77 0 0 0 .11-.25 1.81 1.81 0 0 0 .05-.3v-.49h-.62v-.46h1.25v2.18h-.47l-.23-.42a.65.65 0 0 1-.62.51zM76.81 54.46v-4.37h.47l1.09 2.71v-2.71H79v4.38h-.44l-1.12-2.91v2.91zM131.17 54.46v-4.37h1a1 1 0 0 1 1.25 1.25v1.72a1.64 1.64 0 0 1-.29 1.06 1.2 1.2 0 0 1-1 .34zm.63-.47h.34a1 1 0 0 0 .26 0 .35.35 0 0 0 .18-.1.82.82 0 0 0 .11-.14.55.55 0 0 0 .05-.21v-.23-1.78-.19-.17a1 1 0 0 0 0-.15v-.13a.32.32 0 0 0-.05-.11l-.08-.08a.3.3 0 0 0-.11-.06h-.67zM133.86 54.46l.94-4.37h.63l.94 4.38h-.62l-.23-1.09h-.78l-.23 1.09zm.94-1.56h.63l-.32-1.9zM138.63 54.43a1.71 1.71 0 0 1-1 0 1 1 0 0 1-.36-.21 1 1 0 0 1-.23-.34 1.87 1.87 0 0 1-.12-.44 3.69 3.69 0 0 1 0-.54v-2.81h.63v3.15a1.75 1.75 0 0 0 0 .29.73.73 0 0 0 .1.25.49.49 0 0 0 .18.15.71.71 0 0 0 .57 0 .49.49 0 0 0 .18-.15.73.73 0 0 0 .1-.25 1.75 1.75 0 0 0 0-.29v-3.15h.63v2.81a3.69 3.69 0 0 1 0 .54 1.87 1.87 0 0 1-.12.44 1 1 0 0 1-.23.34 1 1 0 0 1-.33.21zM181.17 54.46v-4.37h.47l1.09 2.71v-2.71h.63v4.38h-.44l-1.12-2.91v2.91zM184.18 54.46v-4.37h1.72v.47h-1.09V52h.78v.47h-.78V54h1.09v.47zM187 54.46l-.78-4.37h.63l.31 2 .16 1.25.15-1.25.31-2h.63l.31 2 .15 1.25.16-1.25.31-2h.63l-.78 4.38h-.62l-.31-2-.16-1.25-.16 1.25-.31 2zM193.42 54.43a1.71 1.71 0 0 1-1 0 1 1 0 0 1-.36-.21 1 1 0 0 1-.23-.34 1.82 1.82 0 0 1-.12-.44 3.56 3.56 0 0 1 0-.54v-2.81h.63v3.15a1.86 1.86 0 0 0 0 .29.75.75 0 0 0 .1.25.49.49 0 0 0 .18.15.62.62 0 0 0 .29.06.63.63 0 0 0 .29-.06.49.49 0 0 0 .18-.15.69.69 0 0 0 .1-.25 1.57 1.57 0 0 0 0-.29v-3.15h.63v2.81a3.55 3.55 0 0 1 0 .54 1.82 1.82 0 0 1-.12.44 1 1 0 0 1-.23.34 1 1 0 0 1-.34.21zM195.75 54.51a.85.85 0 0 1-.62-.23 1.19 1.19 0 0 1-.32-.6l.47-.16q.17.47.47.47a.29.29 0 0 0 .31-.31.47.47 0 0 0-.16-.36l-.62-.47-.18-.13-.14-.15a.65.65 0 0 1-.11-.2.78.78 0 0 1 0-.24.75.75 0 0 1 .26-.61 1 1 0 0 1 .68-.21 1 1 0 0 1 .37.06.77.77 0 0 1 .27.18 1.1 1.1 0 0 1 .18.26 1.42 1.42 0 0 1 .11.32l-.47.16-.07-.16-.09-.15a.41.41 0 0 0-.13-.12.36.36 0 0 0-.17 0 .29.29 0 0 0-.31.31.33.33 0 0 0 .16.26l.63.47.18.16.14.18a.74.74 0 0 1 .11.23.91.91 0 0 1 0 .27.75.75 0 0 1-.26.61 1 1 0 0 1-.69.16zM198.15 54.51a.92.92 0 0 1-.39-.08.72.72 0 0 1-.27-.2 1 1 0 0 1-.16-.32 2.17 2.17 0 0 1-.08-.39 4.56 4.56 0 0 1 0-.46v-.41-.43a1.81 1.81 0 0 1 .09-.37.92.92 0 0 1 .16-.29.73.73 0 0 1 .27-.18 1 1 0 0 1 .38-.07 1.08 1.08 0 0 1 .35.05.63.63 0 0 1 .25.16 1 1 0 0 1 .17.24 1.11 1.11 0 0 1 .1.31 3.42 3.42 0 0 1 0 .36v.48h-1.25v.64a.94.94 0 0 0 0 .18.82.82 0 0 0 .05.15.24.24 0 0 0 .09.1.25.25 0 0 0 .14 0 .31.31 0 0 0 .16 0 .22.22 0 0 0 .09-.11.68.68 0 0 0 0-.15 1.36 1.36 0 0 0 0-.19v-.13h.62v.12a1.2 1.2 0 0 1-.25.76.87.87 0 0 1-.52.23zm-.31-1.92h.62v-.19a1.91 1.91 0 0 0 0-.22 1.15 1.15 0 0 0 0-.19.3.3 0 0 0-.09-.14.27.27 0 0 0-.32 0 .29.29 0 0 0-.1.15 1 1 0 0 0 0 .19 2 2 0 0 0 0 .22zM199.75 54.46v-3.12h.63v.42a1 1 0 0 1 .28-.32.65.65 0 0 1 .4-.14h.1v.7a.94.94 0 0 0-.35-.07.43.43 0 0 0-.32.12.42.42 0 0 0-.12.31v2.11zM202.46 54.51a.84.84 0 0 1-.62-.23 1.18 1.18 0 0 1-.32-.6l.47-.16q.17.47.47.47a.29.29 0 0 0 .31-.31.47.47 0 0 0-.16-.36l-.62-.47-.18-.13-.14-.15a.65.65 0 0 1-.11-.2.85.85 0 0 1 .22-.86 1 1 0 0 1 .68-.21 1 1 0 0 1 .37.06.76.76 0 0 1 .28.18 1.07 1.07 0 0 1 .18.26 1.47 1.47 0 0 1 .11.32l-.47.16-.07-.16-.09-.15a.42.42 0 0 0-.14-.12.35.35 0 0 0-.17 0 .28.28 0 0 0-.31.31.33.33 0 0 0 .16.26l.63.47.18.16a1.38 1.38 0 0 1 .15.18.78.78 0 0 1 .11.23.94.94 0 0 1 0 .27.75.75 0 0 1-.26.61 1 1 0 0 1-.66.17z"/><path class="cls-6" d="M126.36 37.75v4.17M140.36 37.75v4.17M159.36 37.75v4.17"/><rect class="cls-7" x="54.18" y="65.89" width="19.5" height="18.75" rx="5" ry="5"/><path class="cls-8" d="M63.95 68.74a6 6 0 0 0-4.35 10.1l-.78 3 2.62-1.63a6 6 0 1 0 2.52-11.43zm0 10.72a4.73 4.73 0 1 1 4.73-4.73 4.72 4.72 0 0 1-4.73 4.72z"/><path class="cls-8" d="M67.11 77h-1.05v-2.89a.82.82 0 0 0-.24-.61.63.63 0 0 0-.54-.24.75.75 0 0 0-.58.24 1 1 0 0 0-.2.61V77h-1.1v-2.89a1 1 0 0 0-.2-.61.72.72 0 0 0-.54-.2.68.68 0 0 0-.54.24 1 1 0 0 0-.24.61V77h-1.1v-2.85a2.05 2.05 0 0 1 .51-1.36 1.83 1.83 0 0 1 1.33-.58 1.8 1.8 0 0 1 1.33.54 1.82 1.82 0 0 1 1.33-.54 1.71 1.71 0 0 1 1.33.58 2 2 0 0 1 .54 1.36z"/><path d="M31 101.46v-.62l1.1-1.56.09-.12.11-.16.08-.12.07-.13.06-.13a.87.87 0 0 0 0-.15v-.15a1.24 1.24 0 0 0 0-.18.78.78 0 0 0-.12-.44.43.43 0 0 0-.58-.12.42.42 0 0 0-.15.18 1.09 1.09 0 0 0-.07.25 1.71 1.71 0 0 0 0 .28v.16H31v-.16a1.53 1.53 0 0 1 .26-1 1 1 0 0 1 .83-.34 1.06 1.06 0 0 1 .81.3 1.18 1.18 0 0 1 .28.84 1.93 1.93 0 0 1 0 .38 1.48 1.48 0 0 1-.11.34c-.05.11-.1.2-.14.27l-.18.27-1.09 1.41h1.56v.63zM79.69 101.51a.55.55 0 0 1-.44-.23.79.79 0 0 1-.18-.51 1.05 1.05 0 0 1 .08-.41 1.29 1.29 0 0 1 .16-.3 1 1 0 0 1 .29-.23l.3-.16.36-.14h.07v-.22a.83.83 0 0 0-.07-.37.3.3 0 0 0-.48 0 .62.62 0 0 0-.08.31v.08h-.62a1 1 0 0 1 .25-.72 1 1 0 0 1 1.37 0 1 1 0 0 1 .25.71v1.41a3.05 3.05 0 0 0 .08.78h-.62l-.08-.47-.08.15-.09.13a.56.56 0 0 1-.12.12l-.15.07a.56.56 0 0 1-.2 0zM80 101a.24.24 0 0 0 .13 0l.09-.08.08-.1v-.92l-.13.08-.14.09-.13.1a.67.67 0 0 0-.12.12.59.59 0 0 0-.07.14.48.48 0 0 0 0 .17q-.02.4.29.4zM81.67 101.46v-3.12h.63v.34l.23-.19a1 1 0 0 1 .24-.13.9.9 0 0 1 .33-.06.41.41 0 0 1 .32.15.53.53 0 0 1 .12.36v2.66h-.62v-2.35a.47.47 0 0 0 0-.24.2.2 0 0 0-.19-.07.4.4 0 0 0-.16 0l-.12.06-.15.13v2.47zM84.84 101.51a.55.55 0 0 1-.44-.23.79.79 0 0 1-.18-.51 1.05 1.05 0 0 1 .08-.41 1.29 1.29 0 0 1 .16-.3 1 1 0 0 1 .29-.23l.3-.16.36-.14h.07v-.22a.83.83 0 0 0-.07-.37.3.3 0 0 0-.48 0 .62.62 0 0 0-.08.31v.08h-.62a1 1 0 0 1 .25-.72 1 1 0 0 1 1.37 0 1 1 0 0 1 .25.71v1.41a3.05 3.05 0 0 0 .08.78h-.62l-.08-.47-.08.15-.09.13a.56.56 0 0 1-.12.12l-.15.07a.56.56 0 0 1-.2 0zm.31-.51a.24.24 0 0 0 .13 0l.09-.08.08-.1v-.92l-.13.08-.14.09-.13.1a.67.67 0 0 0-.12.12.59.59 0 0 0-.07.14.48.48 0 0 0 0 .17q-.02.4.29.4zM86.83 101.46v-4.37h.63v4.38zM88.13 102.24v-.47a1.49 1.49 0 0 0 .3 0 .31.31 0 0 0 .17-.09.29.29 0 0 0 .07-.14 1.07 1.07 0 0 0 0-.21l-.71-3h.63q.36 2 .39 2.19.05-.33.12-.69l.15-.81.13-.69H90l-.78 3.28a.71.71 0 0 1-.33.48 1.43 1.43 0 0 1-.7.14zM91.41 101.51a.68.68 0 0 1-.54-.19.85.85 0 0 1-.17-.57v-1.94h-.31v-.47h.31v-1.1h.63v1.09h.47v.47h-.47v1.82a.57.57 0 0 0 .05.28.22.22 0 0 0 .21.09h.21v.51zM92.48 97.87v-.62h.63v.63zm0 3.59v-3.12h.63v3.13zM94.68 101.51a.94.94 0 0 1-.39-.08.72.72 0 0 1-.27-.2 1 1 0 0 1-.16-.31 2 2 0 0 1-.08-.38 4.39 4.39 0 0 1 0-.44v-.41a4.38 4.38 0 0 1 0-.44 2 2 0 0 1 .08-.38 1 1 0 0 1 .16-.31.72.72 0 0 1 .27-.2 1 1 0 0 1 .39-.08.86.86 0 0 1 .71.27 1.3 1.3 0 0 1 .23.79v.08H95v-.09a1.51 1.51 0 0 0 0-.21 1 1 0 0 0 0-.18.28.28 0 0 0-.09-.14.26.26 0 0 0-.16 0 .23.23 0 0 0-.16.06.33.33 0 0 0-.1.16 1.18 1.18 0 0 0 0 .21 2.14 2.14 0 0 0 0 .25v.91a2.31 2.31 0 0 0 0 .24 1.1 1.1 0 0 0 0 .2.32.32 0 0 0 .1.14.24.24 0 0 0 .15.05.3.3 0 0 0 .14 0 .24.24 0 0 0 .09-.08.38.38 0 0 0 .05-.12 1 1 0 0 0 0-.15v-.25h.63v.08a1.81 1.81 0 0 1-.06.44 1 1 0 0 1-.16.33.69.69 0 0 1-.29.22 1.13 1.13 0 0 1-.46.02zM97 101.51a.85.85 0 0 1-.62-.23 1.2 1.2 0 0 1-.32-.6l.47-.16q.17.47.47.47a.28.28 0 0 0 .31-.31.47.47 0 0 0-.16-.36l-.62-.47-.18-.13-.14-.15a.65.65 0 0 1-.11-.2.77.77 0 0 1 0-.24.75.75 0 0 1 .26-.61 1 1 0 0 1 .68-.21 1 1 0 0 1 .37.06.76.76 0 0 1 .27.18 1.09 1.09 0 0 1 .18.26 1.42 1.42 0 0 1 .11.32l-.47.16-.07-.16-.1-.13a.42.42 0 0 0-.14-.12.35.35 0 0 0-.17 0 .28.28 0 0 0-.31.31.33.33 0 0 0 .16.26l.63.47.18.16a1.42 1.42 0 0 1 .15.18.76.76 0 0 1 .11.23.94.94 0 0 1 0 .27.75.75 0 0 1-.26.61 1 1 0 0 1-.68.14zM135.18 101.51a1 1 0 0 1-.84-.33 1.54 1.54 0 0 1-.26-1 1.6 1.6 0 0 1 .11-.66.94.94 0 0 1 .36-.41 1 1 0 0 1-.31-.39 1.46 1.46 0 0 1-.1-.58 1.24 1.24 0 0 1 .26-.84 1.15 1.15 0 0 1 1.54 0 1.24 1.24 0 0 1 .26.84 1.49 1.49 0 0 1-.1.58 1 1 0 0 1-.31.39 1 1 0 0 1 .36.41 1.59 1.59 0 0 1 .11.65 1.54 1.54 0 0 1-.26 1 1 1 0 0 1-.82.34zM135 101a.47.47 0 0 0 .21 0 .47.47 0 0 0 .21 0 .38.38 0 0 0 .14-.11.5.5 0 0 0 .08-.17 1.05 1.05 0 0 0 0-.21v-.24a1.72 1.72 0 0 0 0-.28 1 1 0 0 0-.07-.24.38.38 0 0 0-.14-.17.43.43 0 0 0-.23-.06.44.44 0 0 0-.24.06.4.4 0 0 0-.15.17.93.93 0 0 0-.07.23 1.73 1.73 0 0 0 0 .28v.24a1.2 1.2 0 0 0 0 .21.51.51 0 0 0 .08.17.37.37 0 0 0 .18.12zm.21-2.08a.35.35 0 0 0 .2-.06.33.33 0 0 0 .12-.16 1 1 0 0 0 .05-.21 2.13 2.13 0 0 0 0-.25q0-.63-.39-.62c-.26 0-.39.21-.39.63a2 2 0 0 0 0 .25 1 1 0 0 0 .05.21.33.33 0 0 0 .12.16.36.36 0 0 0 .21 0zM137.26 101.46V98h-.47v-.47a1.06 1.06 0 0 0 .63-.47h.47v4.38zM138.74 102.09l-.16-.31a.33.33 0 0 0 .24-.07.33.33 0 0 0 .07-.24h-.31v-.62h.63V101.66a.9.9 0 0 1 0 .18.38.38 0 0 1-.08.14.34.34 0 0 1-.13.08.55.55 0 0 1-.26.03zM140.88 101.51a1.06 1.06 0 0 1-.81-.3 1.18 1.18 0 0 1-.28-.84v-.16h.63v.25a1.17 1.17 0 0 0 0 .21.5.5 0 0 0 .08.17.36.36 0 0 0 .14.11.48.48 0 0 0 .21 0 .48.48 0 0 0 .21 0 .35.35 0 0 0 .14-.11.5.5 0 0 0 .08-.17 1.25 1.25 0 0 0 0-.21v-.25a1 1 0 0 0-.15-.58.55.55 0 0 0-.48-.2v-.62a.52.52 0 0 0 .63-.62.86.86 0 0 0-.1-.47.4.4 0 0 0-.37-.16.5.5 0 0 0-.21 0 .37.37 0 0 0-.14.11.49.49 0 0 0-.08.17 1.19 1.19 0 0 0 0 .21v.25h-.62v-.16a1.18 1.18 0 0 1 .28-.84 1.25 1.25 0 0 1 1.63 0 1.18 1.18 0 0 1 .28.84 1 1 0 0 1-.17.61.85.85 0 0 1-.46.33.82.82 0 0 1 .46.38 1.42 1.42 0 0 1 .16.71 1.52 1.52 0 0 1-.26 1 1 1 0 0 1-.8.34zM143.63 101.51a1.06 1.06 0 0 1-.61-.17 1 1 0 0 1-.37-.46 1.75 1.75 0 0 1-.12-.67v-1.87a1.49 1.49 0 0 1 .27-.95 1.14 1.14 0 0 1 1.64 0 1.49 1.49 0 0 1 .27.95v1.88a1.47 1.47 0 0 1-.28.94 1 1 0 0 1-.8.35zm0-.51q.47 0 .47-.78v-1.88-.24a1.15 1.15 0 0 0 0-.21.6.6 0 0 0-.08-.18.37.37 0 0 0-.13-.11.49.49 0 0 0-.41 0 .36.36 0 0 0-.14.11.58.58 0 0 0-.08.18 1.16 1.16 0 0 0 0 .21v2.12a1.82 1.82 0 0 0 0 .28 1 1 0 0 0 .07.25.42.42 0 0 0 .15.18.39.39 0 0 0 .15.07zM146.47 101.51a1.06 1.06 0 0 1-.81-.3 1.17 1.17 0 0 1-.28-.84h.62a.87.87 0 0 0 .1.47.4.4 0 0 0 .37.16q.47 0 .47-.94v-.63a.67.67 0 0 1-.62.31 1 1 0 0 1-.45-.09.68.68 0 0 1-.29-.27 1.3 1.3 0 0 1-.15-.39 2.46 2.46 0 0 1 0-.5 2.4 2.4 0 0 1 .06-.56 1.54 1.54 0 0 1 .19-.46.89.89 0 0 1 .34-.32 1.16 1.16 0 0 1 .91 0 .9.9 0 0 1 .31.21 1.17 1.17 0 0 1 .21.32 1.58 1.58 0 0 1 .13.4 2.58 2.58 0 0 1 0 .45v1.37a3.73 3.73 0 0 1 0 .5 2 2 0 0 1-.11.44 1.21 1.21 0 0 1-.2.36.85.85 0 0 1-.31.23 1.05 1.05 0 0 1-.49.08zm0-2.23a.52.52 0 0 0 .47-.31v-.62a1.72 1.72 0 0 0 0-.29 1.1 1.1 0 0 0-.07-.25.42.42 0 0 0-.15-.18.39.39 0 0 0-.23-.07.4.4 0 0 0-.23.07.42.42 0 0 0-.14.18 1.09 1.09 0 0 0-.07.25 1.72 1.72 0 0 0 0 .28v.27a1.24 1.24 0 0 0 0 .14v.12a.48.48 0 0 0 0 .11v.1a.23.23 0 0 0 .06.08l.08.06h.1zM182.31 101.46v-1.12h-1.25v-.7l1.09-2.56h.78v2.66h.48v.59h-.48v1.12zm-.62-1.71h.63v-1.88zM185 101.51a1.06 1.06 0 0 1-.61-.17 1 1 0 0 1-.37-.46 1.75 1.75 0 0 1-.12-.67v-1.87a1.49 1.49 0 0 1 .27-.95 1.14 1.14 0 0 1 1.64 0 1.49 1.49 0 0 1 .27.95v1.88a1.47 1.47 0 0 1-.28.94 1 1 0 0 1-.8.35zm0-.51q.47 0 .47-.78v-1.88-.24a1.15 1.15 0 0 0 0-.21.6.6 0 0 0-.08-.18.37.37 0 0 0-.13-.11.49.49 0 0 0-.41 0 .36.36 0 0 0-.14.11.58.58 0 0 0-.08.18 1.16 1.16 0 0 0 0 .21v2.12a1.82 1.82 0 0 0 0 .28 1 1 0 0 0 .07.25.42.42 0 0 0 .15.18.39.39 0 0 0 .15.07zM186.91 102.09l-.16-.31a.33.33 0 0 0 .24-.07.33.33 0 0 0 .07-.24h-.31v-.62h.63V101.66a.83.83 0 0 1 0 .18.37.37 0 0 1-.08.14.34.34 0 0 1-.13.08.55.55 0 0 1-.26.03zM189.13 101.51a1.06 1.06 0 0 1-.41-.08.89.89 0 0 1-.31-.21 1.17 1.17 0 0 1-.21-.32 1.6 1.6 0 0 1-.13-.4 2.58 2.58 0 0 1 0-.45v-1.4a3.73 3.73 0 0 1 0-.5 2.07 2.07 0 0 1 .11-.44 1.19 1.19 0 0 1 .2-.36.86.86 0 0 1 .31-.23 1.22 1.22 0 0 1 1.25.21 1.17 1.17 0 0 1 .28.84h-.62a.86.86 0 0 0-.1-.47.4.4 0 0 0-.37-.16q-.47 0-.47.94v.63a.66.66 0 0 1 .63-.31 1 1 0 0 1 .45.09.67.67 0 0 1 .29.27 1.26 1.26 0 0 1 .15.39 2.39 2.39 0 0 1 0 .5 2.45 2.45 0 0 1-.06.56 1.53 1.53 0 0 1-.19.46.89.89 0 0 1-.34.32 1.07 1.07 0 0 1-.46.12zm-.23-.58a.43.43 0 0 0 .46 0 .41.41 0 0 0 .15-.18 1.15 1.15 0 0 0 .07-.25 1.83 1.83 0 0 0 0-.28v-.14-.14-.25a.48.48 0 0 0 0-.11v-.1a.25.25 0 0 0-.06-.08l-.08-.06h-.23a.51.51 0 0 0-.47.31v.63a1.82 1.82 0 0 0 0 .29 1.15 1.15 0 0 0 .07.25.41.41 0 0 0 .09.11zM191.91 101.51a1 1 0 0 1-.83-.33 1.58 1.58 0 0 1-.25-1h.63v.32a1 1 0 0 0 0 .19.46.46 0 0 0 .07.16.36.36 0 0 0 .12.1.42.42 0 0 0 .19 0h.16l.12-.05a.3.3 0 0 0 .09-.09l.06-.11a.51.51 0 0 0 0-.14v-.15a1.68 1.68 0 0 0 0-.17V99.81v-.18-.16a.76.76 0 0 0 0-.15.62.62 0 0 0-.05-.12.3.3 0 0 0-.08-.09l-.12-.05h-.16a.42.42 0 0 0-.29.11.64.64 0 0 0-.18.25h-.53v-2.33h1.93v.63h-1.37v1.06a1.2 1.2 0 0 1 .63-.16 1 1 0 0 1 .38.06.74.74 0 0 1 .27.18.91.91 0 0 1 .17.28 1.56 1.56 0 0 1 .09.35 2.8 2.8 0 0 1 0 .41 4 4 0 0 1 0 .51 2 2 0 0 1-.11.44 1.07 1.07 0 0 1-.2.35.87.87 0 0 1-.32.23 1.16 1.16 0 0 1-.42.08zM194.82 101.46v-1.12h-1.25v-.7l1.09-2.56h.78v2.66h.48v.59h-.48v1.12zm-.62-1.71h.63v-1.88z"/><rect class="cls-7" x="54.18" y="89.89" width="19.5" height="18.75" rx="5" ry="5"/><path class="cls-8" d="M63.95 92.74a6 6 0 0 0-4.35 10.1l-.78 3 2.62-1.63a6 6 0 1 0 2.52-11.43zm0 10.72a4.73 4.73 0 1 1 4.73-4.73 4.72 4.72 0 0 1-4.73 4.72z"/><path class="cls-8" d="M67.11 101h-1.05v-2.89a.82.82 0 0 0-.24-.61.63.63 0 0 0-.54-.24.75.75 0 0 0-.58.24 1 1 0 0 0-.2.61V101h-1.1v-2.89a1 1 0 0 0-.2-.61.72.72 0 0 0-.54-.2.68.68 0 0 0-.54.24 1 1 0 0 0-.24.61V101h-1.1v-2.85a2.05 2.05 0 0 1 .51-1.36 1.83 1.83 0 0 1 1.33-.58 1.8 1.8 0 0 1 1.33.54 1.82 1.82 0 0 1 1.33-.54 1.71 1.71 0 0 1 1.33.58 2 2 0 0 1 .54 1.36z"/><path d="M32.14 125.51a1.06 1.06 0 0 1-.81-.3 1.18 1.18 0 0 1-.28-.84v-.16h.63v.25a1.21 1.21 0 0 0 0 .21.5.5 0 0 0 .08.17.36.36 0 0 0 .14.11.55.55 0 0 0 .42 0 .36.36 0 0 0 .14-.11.5.5 0 0 0 .08-.17 1.21 1.21 0 0 0 0-.21v-.25a1 1 0 0 0-.15-.58.55.55 0 0 0-.48-.2v-.62a.52.52 0 0 0 .63-.62.87.87 0 0 0-.1-.47.4.4 0 0 0-.37-.16.49.49 0 0 0-.21 0 .37.37 0 0 0-.14.11.49.49 0 0 0-.08.17 1.23 1.23 0 0 0 0 .21v.25H31v-.16a1.17 1.17 0 0 1 .28-.84 1.25 1.25 0 0 1 1.62 0 1.18 1.18 0 0 1 .28.84 1 1 0 0 1-.17.61.85.85 0 0 1-.46.33.82.82 0 0 1 .46.38 1.42 1.42 0 0 1 .16.71 1.52 1.52 0 0 1-.26 1 1 1 0 0 1-.77.34zM79.69 125.51a.55.55 0 0 1-.44-.23.79.79 0 0 1-.18-.51 1.05 1.05 0 0 1 .08-.41 1.29 1.29 0 0 1 .16-.3 1 1 0 0 1 .29-.23l.3-.16.36-.14h.07v-.22a.83.83 0 0 0-.07-.37.3.3 0 0 0-.48 0 .62.62 0 0 0-.08.31v.08h-.62a1 1 0 0 1 .25-.72 1 1 0 0 1 1.37 0 1 1 0 0 1 .25.71v1.41a3.05 3.05 0 0 0 .08.78h-.62l-.08-.47-.08.15-.09.13a.56.56 0 0 1-.12.12l-.15.07a.56.56 0 0 1-.2 0zM80 125a.24.24 0 0 0 .13 0l.09-.08.08-.1v-.88l-.13.08-.14.09-.13.1a.67.67 0 0 0-.12.12.59.59 0 0 0-.07.14.48.48 0 0 0 0 .17q-.02.36.29.36zM81.67 125.46v-3.12h.63v.34l.23-.19a1 1 0 0 1 .24-.13.9.9 0 0 1 .33-.06.41.41 0 0 1 .32.15.53.53 0 0 1 .12.36v2.66h-.62v-2.34a.47.47 0 0 0 0-.24.2.2 0 0 0-.19-.07.4.4 0 0 0-.16 0l-.12.06-.11.09v2.47zM84.84 125.51a.55.55 0 0 1-.44-.23.79.79 0 0 1-.18-.51 1.05 1.05 0 0 1 .08-.41 1.29 1.29 0 0 1 .16-.3 1 1 0 0 1 .29-.23l.3-.16.36-.14h.07v-.22a.83.83 0 0 0-.07-.37.3.3 0 0 0-.48 0 .62.62 0 0 0-.08.31v.08h-.62a1 1 0 0 1 .25-.72 1 1 0 0 1 1.37 0 1 1 0 0 1 .25.71v1.41a3.05 3.05 0 0 0 .08.78h-.62l-.08-.47-.08.15-.09.13a.56.56 0 0 1-.12.12l-.15.07a.56.56 0 0 1-.2 0zm.31-.51a.24.24 0 0 0 .13 0l.09-.08.08-.1v-.88l-.13.08-.14.09-.13.1a.67.67 0 0 0-.12.12.59.59 0 0 0-.07.14.48.48 0 0 0 0 .17q-.02.36.29.36zM86.83 125.46v-4.37h.63v4.38zM88.13 126.24v-.47a1.49 1.49 0 0 0 .3 0 .31.31 0 0 0 .17-.09.29.29 0 0 0 .07-.14 1.07 1.07 0 0 0 0-.21l-.71-3h.63q.36 2 .39 2.19.05-.33.12-.69l.15-.81.13-.69H90l-.78 3.28a.71.71 0 0 1-.33.48 1.43 1.43 0 0 1-.7.14zM91.41 125.51a.68.68 0 0 1-.54-.19.85.85 0 0 1-.17-.57v-1.94h-.31v-.47h.31v-1.09h.63v1.09h.47v.47h-.47v1.82a.57.57 0 0 0 .05.28.22.22 0 0 0 .21.09h.21v.51zM92.48 121.87v-.62h.63v.63zm0 3.59v-3.12h.63v3.13zM94.68 125.51a.94.94 0 0 1-.39-.08.72.72 0 0 1-.27-.2 1 1 0 0 1-.16-.31 2 2 0 0 1-.08-.38 4.39 4.39 0 0 1 0-.44v-.41a4.38 4.38 0 0 1 0-.44 2 2 0 0 1 .08-.38 1 1 0 0 1 .16-.31.72.72 0 0 1 .27-.2 1 1 0 0 1 .39-.08.86.86 0 0 1 .71.27 1.3 1.3 0 0 1 .23.79v.08H95v-.09a1.51 1.51 0 0 0 0-.21 1 1 0 0 0 0-.18.28.28 0 0 0-.09-.14.26.26 0 0 0-.16 0 .23.23 0 0 0-.16.06.33.33 0 0 0-.1.16 1.18 1.18 0 0 0 0 .21 2.14 2.14 0 0 0 0 .25v.91a2.31 2.31 0 0 0 0 .24 1.1 1.1 0 0 0 0 .2.32.32 0 0 0 .1.14.24.24 0 0 0 .15.05.3.3 0 0 0 .14 0 .24.24 0 0 0 .09-.08.38.38 0 0 0 .05-.12 1 1 0 0 0 0-.15v-.25h.63v.08a1.81 1.81 0 0 1-.06.44 1 1 0 0 1-.16.33.69.69 0 0 1-.29.22 1.13 1.13 0 0 1-.46.02zM97 125.51a.85.85 0 0 1-.62-.23 1.2 1.2 0 0 1-.32-.6l.47-.16q.17.47.47.47a.28.28 0 0 0 .31-.31.47.47 0 0 0-.16-.36l-.62-.47-.18-.13-.14-.15a.65.65 0 0 1-.11-.2.77.77 0 0 1 0-.24.75.75 0 0 1 .26-.61 1 1 0 0 1 .68-.21 1 1 0 0 1 .37.06.76.76 0 0 1 .27.18 1.09 1.09 0 0 1 .18.26 1.42 1.42 0 0 1 .11.32l-.47.16-.07-.16-.09-.15a.42.42 0 0 0-.14-.12.35.35 0 0 0-.17 0 .28.28 0 0 0-.31.31.33.33 0 0 0 .16.26l.63.47.18.16a1.42 1.42 0 0 1 .15.18.76.76 0 0 1 .11.23.94.94 0 0 1 0 .27.75.75 0 0 1-.26.61 1 1 0 0 1-.69.16zM134.72 125.51a1.06 1.06 0 0 1-.41-.08.89.89 0 0 1-.31-.21 1.17 1.17 0 0 1-.21-.32 1.6 1.6 0 0 1-.13-.4 2.58 2.58 0 0 1 0-.45v-1.41a3.73 3.73 0 0 1 0-.5 2.07 2.07 0 0 1 .11-.44 1.19 1.19 0 0 1 .2-.36.86.86 0 0 1 .31-.23 1.22 1.22 0 0 1 1.25.21 1.17 1.17 0 0 1 .28.84h-.62a.86.86 0 0 0-.1-.47.4.4 0 0 0-.37-.16q-.47 0-.47.94v.63a.66.66 0 0 1 .63-.31 1 1 0 0 1 .45.09.67.67 0 0 1 .29.27 1.26 1.26 0 0 1 .15.39 2.39 2.39 0 0 1 0 .5 2.45 2.45 0 0 1-.06.56 1.53 1.53 0 0 1-.19.46.89.89 0 0 1-.34.32 1.07 1.07 0 0 1-.46.13zm-.23-.58a.43.43 0 0 0 .46 0 .41.41 0 0 0 .15-.18 1.15 1.15 0 0 0 .07-.25 1.83 1.83 0 0 0 0-.28v-.14-.14-.25a.48.48 0 0 0 0-.11v-.1a.25.25 0 0 0-.06-.08l-.08-.06h-.23a.51.51 0 0 0-.47.31v.63a1.82 1.82 0 0 0 0 .29 1.15 1.15 0 0 0 .07.25.41.41 0 0 0 .09.11zM137.56 125.51a1.05 1.05 0 0 1-.41-.08.88.88 0 0 1-.31-.21 1.17 1.17 0 0 1-.21-.32 1.6 1.6 0 0 1-.13-.4 2.58 2.58 0 0 1 0-.45v-1.41a3.72 3.72 0 0 1 0-.5 2 2 0 0 1 .11-.44 1.21 1.21 0 0 1 .2-.36.87.87 0 0 1 .31-.23 1.22 1.22 0 0 1 1.25.21 1.17 1.17 0 0 1 .28.84H138a.86.86 0 0 0-.1-.47.4.4 0 0 0-.37-.16q-.47 0-.47.94v.63a.66.66 0 0 1 .63-.31 1 1 0 0 1 .45.09.68.68 0 0 1 .29.27 1.29 1.29 0 0 1 .15.39 2.47 2.47 0 0 1 0 .5 2.4 2.4 0 0 1-.06.56 1.56 1.56 0 0 1-.19.46.9.9 0 0 1-.34.32 1.07 1.07 0 0 1-.43.13zm-.23-.58a.39.39 0 0 0 .23.07.4.4 0 0 0 .23-.07.42.42 0 0 0 .14-.18 1.1 1.1 0 0 0 .07-.25 1.72 1.72 0 0 0 0-.28v-.14-.14a1.22 1.22 0 0 0 0-.13v-.12a.48.48 0 0 0 0-.11v-.1a.23.23 0 0 0-.06-.08l-.08-.06h-.23a.51.51 0 0 0-.47.31v.63a1.71 1.71 0 0 0 0 .29 1.09 1.09 0 0 0 .07.25.41.41 0 0 0 .11.11zM139.38 126.09l-.16-.31a.32.32 0 0 0 .24-.07.33.33 0 0 0 .07-.24h-.31v-.62h.63V125.66a.83.83 0 0 1 0 .18.37.37 0 0 1-.08.14.34.34 0 0 1-.13.08.55.55 0 0 1-.26.03zM140.7 125.46l.8-3.86h-1.15v-.52h1.75v.3l-.79 4.08zM143.71 125.51a1 1 0 0 1-.84-.33 1.54 1.54 0 0 1-.26-1 1.62 1.62 0 0 1 .11-.66.93.93 0 0 1 .36-.41 1 1 0 0 1-.31-.39 1.48 1.48 0 0 1-.1-.58 1.24 1.24 0 0 1 .26-.84 1.15 1.15 0 0 1 1.54 0 1.24 1.24 0 0 1 .26.84 1.49 1.49 0 0 1-.1.58 1 1 0 0 1-.31.39 1 1 0 0 1 .36.41 1.61 1.61 0 0 1 .11.65 1.54 1.54 0 0 1-.26 1 1 1 0 0 1-.82.34zm-.21-.56a.48.48 0 0 0 .21 0 .46.46 0 0 0 .21 0 .37.37 0 0 0 .14-.11.49.49 0 0 0 .08-.17 1.32 1.32 0 0 0 0-.21v-.24a1.84 1.84 0 0 0 0-.28 1 1 0 0 0-.07-.24.38.38 0 0 0-.14-.17.49.49 0 0 0-.47 0 .39.39 0 0 0-.15.17.89.89 0 0 0-.07.23 1.85 1.85 0 0 0 0 .28v.24a1.3 1.3 0 0 0 0 .21.49.49 0 0 0 .08.17.38.38 0 0 0 .18.17zm.21-2.08a.35.35 0 0 0 .2-.06.33.33 0 0 0 .12-.16 1.07 1.07 0 0 0 .05-.21 2.12 2.12 0 0 0 0-.25c0-.42-.13-.62-.39-.62s-.4.21-.4.63a1.92 1.92 0 0 0 0 .25 1 1 0 0 0 .05.21.33.33 0 0 0 .12.16.36.36 0 0 0 .25.05zM146.47 125.51a1.06 1.06 0 0 1-.81-.3 1.17 1.17 0 0 1-.28-.84h.62a.87.87 0 0 0 .1.47.4.4 0 0 0 .37.16q.47 0 .47-.94v-.62a.67.67 0 0 1-.62.31 1 1 0 0 1-.45-.09.67.67 0 0 1-.29-.27 1.27 1.27 0 0 1-.15-.39 2.38 2.38 0 0 1 0-.5 2.45 2.45 0 0 1 .06-.56 1.51 1.51 0 0 1 .19-.46.88.88 0 0 1 .34-.32 1.16 1.16 0 0 1 .91 0 .91.91 0 0 1 .31.21 1.17 1.17 0 0 1 .21.32 1.58 1.58 0 0 1 .13.4 2.58 2.58 0 0 1 0 .45v1.41a3.74 3.74 0 0 1 0 .5 2.09 2.09 0 0 1-.11.44 1.19 1.19 0 0 1-.2.36.85.85 0 0 1-.31.23 1.06 1.06 0 0 1-.49.03zm0-2.23a.52.52 0 0 0 .47-.31v-.62a1.84 1.84 0 0 0 0-.29 1.15 1.15 0 0 0-.07-.25.42.42 0 0 0-.15-.18.44.44 0 0 0-.46 0 .42.42 0 0 0-.15.18 1.14 1.14 0 0 0-.07.25 1.83 1.83 0 0 0 0 .28v.53a.49.49 0 0 0 0 .11v.1a.25.25 0 0 0 .06.08l.08.06h.1zM182.16 125.51a1 1 0 0 1-.83-.33 1.58 1.58 0 0 1-.25-1h.63v.32a1 1 0 0 0 0 .19.46.46 0 0 0 .07.16.36.36 0 0 0 .12.1.42.42 0 0 0 .19 0h.16l.12-.05a.3.3 0 0 0 .09-.09l.06-.11a.51.51 0 0 0 0-.14v-.15a1.68 1.68 0 0 0 0-.17V123.81v-.18-.16a.76.76 0 0 0 0-.15.62.62 0 0 0-.05-.12.3.3 0 0 0-.08-.09l-.12-.05h-.16a.42.42 0 0 0-.29.11.64.64 0 0 0-.18.25h-.53v-2.36h1.93v.63h-1.37v1.06a1.2 1.2 0 0 1 .63-.16 1 1 0 0 1 .38.06.74.74 0 0 1 .27.18.91.91 0 0 1 .17.28 1.56 1.56 0 0 1 .09.35 2.8 2.8 0 0 1 0 .41 4 4 0 0 1 0 .51 2 2 0 0 1-.11.44 1.07 1.07 0 0 1-.2.35.87.87 0 0 1-.32.23 1.16 1.16 0 0 1-.42.11zM184.93 125.51a1 1 0 0 1-.83-.33 1.58 1.58 0 0 1-.25-1h.63v.32a1 1 0 0 0 0 .19.46.46 0 0 0 .07.16.36.36 0 0 0 .12.1.42.42 0 0 0 .19 0h.16l.12-.05a.3.3 0 0 0 .09-.09l.06-.11a.51.51 0 0 0 0-.14v-.15a1.68 1.68 0 0 0 0-.17V123.81v-.18-.16a.76.76 0 0 0 0-.15.62.62 0 0 0-.05-.12.3.3 0 0 0-.08-.09l-.12-.05h-.16a.42.42 0 0 0-.29.11.64.64 0 0 0-.18.25h-.53v-2.36h1.93v.63h-1.37v1.06a1.2 1.2 0 0 1 .63-.16 1 1 0 0 1 .38.06.74.74 0 0 1 .27.18.91.91 0 0 1 .17.28 1.56 1.56 0 0 1 .09.35 2.8 2.8 0 0 1 0 .41 4 4 0 0 1 0 .51 2 2 0 0 1-.11.44 1.07 1.07 0 0 1-.2.35.87.87 0 0 1-.32.23 1.16 1.16 0 0 1-.42.11zM186.72 126.09l-.16-.31a.33.33 0 0 0 .24-.07.33.33 0 0 0 .07-.24h-.31v-.62h.63V125.66a.9.9 0 0 1 0 .18.38.38 0 0 1-.08.14.34.34 0 0 1-.13.08.55.55 0 0 1-.26.03zM187.75 125.46v-.62l1.1-1.56.09-.12.06-.16.08-.12.07-.13.06-.13a.86.86 0 0 0 0-.15v-.15a1.32 1.32 0 0 0 0-.18.77.77 0 0 0-.12-.44.43.43 0 0 0-.58-.12.42.42 0 0 0-.15.18 1.09 1.09 0 0 0-.07.25 1.71 1.71 0 0 0 0 .28v.16h-.62v-.16a1.53 1.53 0 0 1 .26-1 1 1 0 0 1 .83-.34 1.06 1.06 0 0 1 .81.3 1.18 1.18 0 0 1 .28.84 1.93 1.93 0 0 1 0 .38 1.45 1.45 0 0 1-.11.34c-.05.11-.1.2-.14.27l-.18.27-1.09 1.41h1.56v.63zM190.73 125.46l.8-3.86h-1.15v-.52h1.75v.3l-.8 4.08zM193.81 125.51a1.06 1.06 0 0 1-.61-.17 1 1 0 0 1-.37-.46 1.77 1.77 0 0 1-.12-.67v-1.87a1.48 1.48 0 0 1 .27-.95 1.14 1.14 0 0 1 1.64 0 1.49 1.49 0 0 1 .27.95v1.88a1.47 1.47 0 0 1-.28.94 1 1 0 0 1-.8.35zm0-.51q.47 0 .47-.78v-1.87-.24a1.24 1.24 0 0 0 0-.21.58.58 0 0 0-.08-.18.36.36 0 0 0-.14-.11.49.49 0 0 0-.4 0 .36.36 0 0 0-.14.11.58.58 0 0 0-.08.18 1.24 1.24 0 0 0 0 .21v2.12a1.82 1.82 0 0 0 0 .28 1 1 0 0 0 .07.25.42.42 0 0 0 .15.18.39.39 0 0 0 .15.06z"/><rect class="cls-7" x="54.18" y="113.89" width="19.5" height="18.75" rx="5" ry="5"/><path class="cls-8" d="M63.95 116.74a6 6 0 0 0-4.35 10.1l-.78 3 2.62-1.63a6 6 0 1 0 2.52-11.43zm0 10.72a4.73 4.73 0 1 1 4.73-4.73 4.72 4.72 0 0 1-4.73 4.72z"/><path class="cls-8" d="M67.11 125h-1.05v-2.86a.82.82 0 0 0-.24-.61.63.63 0 0 0-.54-.24.75.75 0 0 0-.58.24 1 1 0 0 0-.2.61V125h-1.1v-2.86a1 1 0 0 0-.2-.61.72.72 0 0 0-.54-.2.68.68 0 0 0-.54.24 1 1 0 0 0-.24.61V125h-1.1v-2.86a2.05 2.05 0 0 1 .51-1.36 1.83 1.83 0 0 1 1.33-.58 1.8 1.8 0 0 1 1.33.54 1.82 1.82 0 0 1 1.33-.54 1.71 1.71 0 0 1 1.33.58 2 2 0 0 1 .54 1.36z"/><path d="M32.31 149.46v-1.12h-1.25v-.7l1.09-2.56h.78v2.66h.48v.59h-.48v1.12zm-.62-1.71h.62v-1.88zM79.69 149.51a.55.55 0 0 1-.44-.23.79.79 0 0 1-.18-.51 1.05 1.05 0 0 1 .08-.41 1.29 1.29 0 0 1 .16-.3 1 1 0 0 1 .29-.23l.3-.16.36-.14h.07v-.22a.83.83 0 0 0-.07-.37.3.3 0 0 0-.48 0 .62.62 0 0 0-.08.31v.08h-.62a1 1 0 0 1 .25-.72 1 1 0 0 1 1.37 0 1 1 0 0 1 .25.71v1.41a3.05 3.05 0 0 0 .08.78h-.62l-.08-.47-.08.15-.09.13a.56.56 0 0 1-.12.12l-.15.07a.56.56 0 0 1-.2 0zM80 149a.24.24 0 0 0 .13 0l.09-.08.08-.1v-.88l-.13.08-.14.09-.13.1a.67.67 0 0 0-.12.12.59.59 0 0 0-.07.14.48.48 0 0 0 0 .17q-.02.36.29.36zM81.67 149.46v-3.12h.63v.34l.23-.19a1 1 0 0 1 .24-.13.9.9 0 0 1 .33-.06.41.41 0 0 1 .32.15.53.53 0 0 1 .12.36v2.66h-.62v-2.34a.47.47 0 0 0 0-.24.2.2 0 0 0-.19-.07.4.4 0 0 0-.16 0l-.12.06-.11.09v2.47zM84.84 149.51a.55.55 0 0 1-.44-.23.79.79 0 0 1-.18-.51 1.05 1.05 0 0 1 .08-.41 1.29 1.29 0 0 1 .16-.3 1 1 0 0 1 .29-.23l.3-.16.36-.14h.07v-.22a.83.83 0 0 0-.07-.37.3.3 0 0 0-.48 0 .62.62 0 0 0-.08.31v.08h-.62a1 1 0 0 1 .25-.72 1 1 0 0 1 1.37 0 1 1 0 0 1 .25.71v1.41a3.05 3.05 0 0 0 .08.78h-.62l-.08-.47-.08.15-.09.13a.56.56 0 0 1-.12.12l-.15.07a.56.56 0 0 1-.2 0zm.31-.51a.24.24 0 0 0 .13 0l.09-.08.08-.1v-.88l-.13.08-.14.09-.13.1a.67.67 0 0 0-.12.12.59.59 0 0 0-.07.14.48.48 0 0 0 0 .17q-.02.36.29.36zM86.83 149.46v-4.37h.63v4.38zM88.13 150.24v-.47a1.49 1.49 0 0 0 .3 0 .31.31 0 0 0 .17-.09.29.29 0 0 0 .07-.14 1.07 1.07 0 0 0 0-.21l-.71-3h.63q.36 2 .39 2.19.05-.33.12-.69l.15-.81.13-.69H90l-.78 3.28a.71.71 0 0 1-.33.48 1.43 1.43 0 0 1-.7.14zM91.41 149.51a.68.68 0 0 1-.54-.19.85.85 0 0 1-.17-.57v-1.94h-.31v-.47h.31v-1.09h.63v1.09h.47v.47h-.47v1.82a.57.57 0 0 0 .05.28.22.22 0 0 0 .21.09h.21v.51zM92.48 145.87v-.62h.63v.63zm0 3.59v-3.12h.63v3.13zM94.68 149.51a.94.94 0 0 1-.39-.08.72.72 0 0 1-.27-.2 1 1 0 0 1-.16-.31 2 2 0 0 1-.08-.38 4.39 4.39 0 0 1 0-.44v-.41a4.38 4.38 0 0 1 0-.44 2 2 0 0 1 .08-.38 1 1 0 0 1 .16-.31.72.72 0 0 1 .27-.2 1 1 0 0 1 .39-.08.86.86 0 0 1 .71.27 1.3 1.3 0 0 1 .23.79v.08H95v-.09a1.51 1.51 0 0 0 0-.21 1 1 0 0 0 0-.18.28.28 0 0 0-.09-.14.26.26 0 0 0-.16 0 .23.23 0 0 0-.16.06.33.33 0 0 0-.1.16 1.18 1.18 0 0 0 0 .21 2.14 2.14 0 0 0 0 .25v.91a2.31 2.31 0 0 0 0 .24 1.1 1.1 0 0 0 0 .2.32.32 0 0 0 .1.14.24.24 0 0 0 .15.05.3.3 0 0 0 .14 0 .24.24 0 0 0 .09-.08.38.38 0 0 0 .05-.12 1 1 0 0 0 0-.15v-.25h.63v.08a1.81 1.81 0 0 1-.06.44 1 1 0 0 1-.16.33.69.69 0 0 1-.29.22 1.13 1.13 0 0 1-.46.02zM97 149.51a.85.85 0 0 1-.62-.23 1.2 1.2 0 0 1-.32-.6l.47-.16q.17.47.47.47a.28.28 0 0 0 .31-.31.47.47 0 0 0-.16-.36l-.62-.47-.18-.13-.14-.15a.65.65 0 0 1-.11-.2.77.77 0 0 1 0-.24.75.75 0 0 1 .26-.61 1 1 0 0 1 .68-.21 1 1 0 0 1 .37.06.76.76 0 0 1 .27.18 1.09 1.09 0 0 1 .18.26 1.42 1.42 0 0 1 .11.32l-.47.16-.07-.16-.09-.15a.42.42 0 0 0-.14-.12.35.35 0 0 0-.17 0 .28.28 0 0 0-.31.31.33.33 0 0 0 .16.26l.63.47.18.16a1.42 1.42 0 0 1 .15.18.76.76 0 0 1 .11.23.94.94 0 0 1 0 .27.75.75 0 0 1-.26.61 1 1 0 0 1-.69.16zM135.18 149.51a1 1 0 0 1-.84-.33 1.54 1.54 0 0 1-.26-1 1.6 1.6 0 0 1 .11-.66.94.94 0 0 1 .36-.41 1 1 0 0 1-.31-.39 1.46 1.46 0 0 1-.1-.58 1.24 1.24 0 0 1 .26-.84 1.15 1.15 0 0 1 1.54 0 1.24 1.24 0 0 1 .26.84 1.49 1.49 0 0 1-.1.58 1 1 0 0 1-.31.39 1 1 0 0 1 .36.41 1.59 1.59 0 0 1 .11.65 1.54 1.54 0 0 1-.26 1 1 1 0 0 1-.82.34zM135 149a.47.47 0 0 0 .21 0 .47.47 0 0 0 .21 0 .38.38 0 0 0 .14-.11.5.5 0 0 0 .08-.17 1.05 1.05 0 0 0 0-.21v-.24a1.72 1.72 0 0 0 0-.28 1 1 0 0 0-.07-.24.38.38 0 0 0-.14-.17.43.43 0 0 0-.23-.06.44.44 0 0 0-.24.06.4.4 0 0 0-.15.17.93.93 0 0 0-.07.23 1.73 1.73 0 0 0 0 .28v.24a1.2 1.2 0 0 0 0 .21.51.51 0 0 0 .08.17.37.37 0 0 0 .18.12zm.21-2.08a.35.35 0 0 0 .2-.06.33.33 0 0 0 .12-.16 1 1 0 0 0 .05-.21 2.13 2.13 0 0 0 0-.25q0-.63-.39-.62c-.26 0-.39.21-.39.63a2 2 0 0 0 0 .25 1 1 0 0 0 .05.21.33.33 0 0 0 .12.16.36.36 0 0 0 .21 0zM137.26 149.46V146h-.47v-.47a1.06 1.06 0 0 0 .63-.47h.47v4.38zM138.74 150.09l-.16-.31a.33.33 0 0 0 .24-.07.33.33 0 0 0 .07-.24h-.31v-.62h.63V149.66a.9.9 0 0 1 0 .18.38.38 0 0 1-.08.14.34.34 0 0 1-.13.08.55.55 0 0 1-.26.03zM140.88 149.51a1.06 1.06 0 0 1-.81-.3 1.18 1.18 0 0 1-.28-.84v-.16h.63v.25a1.17 1.17 0 0 0 0 .21.5.5 0 0 0 .08.17.36.36 0 0 0 .14.11.48.48 0 0 0 .21 0 .48.48 0 0 0 .21 0 .35.35 0 0 0 .14-.11.5.5 0 0 0 .08-.17 1.25 1.25 0 0 0 0-.21v-.25a1 1 0 0 0-.15-.58.55.55 0 0 0-.48-.2v-.62a.52.52 0 0 0 .63-.62.86.86 0 0 0-.1-.47.4.4 0 0 0-.37-.16.5.5 0 0 0-.21 0 .37.37 0 0 0-.14.11.49.49 0 0 0-.08.17 1.19 1.19 0 0 0 0 .21v.25h-.62v-.16a1.18 1.18 0 0 1 .28-.84 1.25 1.25 0 0 1 1.63 0 1.18 1.18 0 0 1 .28.84 1 1 0 0 1-.17.61.85.85 0 0 1-.46.33.82.82 0 0 1 .46.38 1.42 1.42 0 0 1 .16.71 1.52 1.52 0 0 1-.26 1 1 1 0 0 1-.8.34zM143.63 149.51a1.06 1.06 0 0 1-.61-.17 1 1 0 0 1-.37-.46 1.75 1.75 0 0 1-.12-.67v-1.87a1.49 1.49 0 0 1 .27-.95 1.14 1.14 0 0 1 1.64 0 1.49 1.49 0 0 1 .27.95v1.88a1.47 1.47 0 0 1-.28.94 1 1 0 0 1-.8.35zm0-.51q.47 0 .47-.78v-1.87-.24a1.15 1.15 0 0 0 0-.21.6.6 0 0 0-.08-.18.37.37 0 0 0-.13-.11.49.49 0 0 0-.41 0 .36.36 0 0 0-.14.11.58.58 0 0 0-.08.18 1.16 1.16 0 0 0 0 .21v2.12a1.82 1.82 0 0 0 0 .28 1 1 0 0 0 .07.25.42.42 0 0 0 .15.18.39.39 0 0 0 .15.06zM146.47 149.51a1.06 1.06 0 0 1-.81-.3 1.17 1.17 0 0 1-.28-.84h.62a.87.87 0 0 0 .1.47.4.4 0 0 0 .37.16q.47 0 .47-.94v-.62a.67.67 0 0 1-.62.31 1 1 0 0 1-.45-.09.68.68 0 0 1-.29-.27 1.3 1.3 0 0 1-.15-.39 2.46 2.46 0 0 1 0-.5 2.4 2.4 0 0 1 .06-.56 1.54 1.54 0 0 1 .19-.46.89.89 0 0 1 .34-.32 1.16 1.16 0 0 1 .91 0 .9.9 0 0 1 .31.21 1.17 1.17 0 0 1 .21.32 1.58 1.58 0 0 1 .13.4 2.58 2.58 0 0 1 0 .45v1.41a3.73 3.73 0 0 1 0 .5 2 2 0 0 1-.11.44 1.21 1.21 0 0 1-.2.36.85.85 0 0 1-.31.23 1.05 1.05 0 0 1-.49.03zm0-2.23a.52.52 0 0 0 .47-.31v-.62a1.72 1.72 0 0 0 0-.29 1.1 1.1 0 0 0-.07-.25.42.42 0 0 0-.15-.18.39.39 0 0 0-.23-.07.4.4 0 0 0-.23.07.42.42 0 0 0-.14.18 1.09 1.09 0 0 0-.07.25 1.72 1.72 0 0 0 0 .28v.27a1.24 1.24 0 0 0 0 .14v.12a.48.48 0 0 0 0 .11v.1a.23.23 0 0 0 .06.08l.08.06h.1zM182.31 149.46v-1.12h-1.25v-.7l1.09-2.56h.78v2.66h.48v.59h-.48v1.12zm-.62-1.71h.63v-1.88zM185 149.51a1.06 1.06 0 0 1-.61-.17 1 1 0 0 1-.37-.46 1.75 1.75 0 0 1-.12-.67v-1.87a1.49 1.49 0 0 1 .27-.95 1.14 1.14 0 0 1 1.64 0 1.49 1.49 0 0 1 .27.95v1.88a1.47 1.47 0 0 1-.28.94 1 1 0 0 1-.8.35zm0-.51q.47 0 .47-.78v-1.87-.24a1.15 1.15 0 0 0 0-.21.6.6 0 0 0-.08-.18.37.37 0 0 0-.13-.11.49.49 0 0 0-.41 0 .36.36 0 0 0-.14.11.58.58 0 0 0-.08.18 1.16 1.16 0 0 0 0 .21v2.12a1.82 1.82 0 0 0 0 .28 1 1 0 0 0 .07.25.42.42 0 0 0 .15.18.39.39 0 0 0 .15.06zM186.91 150.09l-.16-.31a.33.33 0 0 0 .24-.07.33.33 0 0 0 .07-.24h-.31v-.62h.63V149.66a.83.83 0 0 1 0 .18.37.37 0 0 1-.08.14.34.34 0 0 1-.13.08.55.55 0 0 1-.26.03zM189.13 149.51a1.06 1.06 0 0 1-.41-.08.89.89 0 0 1-.31-.21 1.17 1.17 0 0 1-.21-.32 1.6 1.6 0 0 1-.13-.4 2.58 2.58 0 0 1 0-.45v-1.41a3.73 3.73 0 0 1 0-.5 2.07 2.07 0 0 1 .11-.44 1.19 1.19 0 0 1 .2-.36.86.86 0 0 1 .31-.23 1.22 1.22 0 0 1 1.25.21 1.17 1.17 0 0 1 .28.84h-.62a.86.86 0 0 0-.1-.47.4.4 0 0 0-.37-.16q-.47 0-.47.94v.63a.66.66 0 0 1 .63-.31 1 1 0 0 1 .45.09.67.67 0 0 1 .29.27 1.26 1.26 0 0 1 .15.39 2.39 2.39 0 0 1 0 .5 2.45 2.45 0 0 1-.06.56 1.53 1.53 0 0 1-.19.46.89.89 0 0 1-.34.32 1.07 1.07 0 0 1-.46.13zm-.23-.58a.43.43 0 0 0 .46 0 .41.41 0 0 0 .15-.18 1.15 1.15 0 0 0 .07-.25 1.83 1.83 0 0 0 0-.28v-.14-.14-.25a.48.48 0 0 0 0-.11v-.1a.25.25 0 0 0-.06-.08l-.08-.06h-.23a.51.51 0 0 0-.47.31v.63a1.82 1.82 0 0 0 0 .29 1.15 1.15 0 0 0 .07.25.41.41 0 0 0 .09.11zM191.91 149.51a1 1 0 0 1-.83-.33 1.58 1.58 0 0 1-.25-1h.63v.32a1 1 0 0 0 0 .19.46.46 0 0 0 .07.16.36.36 0 0 0 .12.1.42.42 0 0 0 .19 0h.16l.12-.05a.3.3 0 0 0 .09-.09l.06-.11a.51.51 0 0 0 0-.14v-.15a1.68 1.68 0 0 0 0-.17V147.81v-.18-.16a.76.76 0 0 0 0-.15.62.62 0 0 0-.05-.12.3.3 0 0 0-.08-.09l-.12-.05h-.16a.42.42 0 0 0-.29.11.64.64 0 0 0-.18.25h-.53v-2.36h1.93v.63h-1.37v1.06a1.2 1.2 0 0 1 .63-.16 1 1 0 0 1 .38.06.74.74 0 0 1 .27.18.91.91 0 0 1 .17.28 1.56 1.56 0 0 1 .09.35 2.8 2.8 0 0 1 0 .41 4 4 0 0 1 0 .51 2 2 0 0 1-.11.44 1.07 1.07 0 0 1-.2.35.87.87 0 0 1-.32.23 1.16 1.16 0 0 1-.42.11zM194.82 149.46v-1.12h-1.25v-.7l1.09-2.56h.78v2.66h.48v.59h-.48v1.12zm-.62-1.71h.63v-1.88z"/><rect class="cls-7" x="54.18" y="137.89" width="19.5" height="18.75" rx="5" ry="5"/><path class="cls-8" d="M63.95 140.74a6 6 0 0 0-4.35 10.1l-.78 3 2.62-1.63a6 6 0 1 0 2.52-11.43zm0 10.72a4.73 4.73 0 1 1 4.73-4.73 4.72 4.72 0 0 1-4.73 4.72z"/><path class="cls-8" d="M67.11 149h-1.05v-2.86a.82.82 0 0 0-.24-.61.63.63 0 0 0-.54-.24.75.75 0 0 0-.58.24 1 1 0 0 0-.2.61V149h-1.1v-2.86a1 1 0 0 0-.2-.61.72.72 0 0 0-.54-.2.68.68 0 0 0-.54.24 1 1 0 0 0-.24.61V149h-1.1v-2.86a2.05 2.05 0 0 1 .51-1.36 1.83 1.83 0 0 1 1.33-.58 1.8 1.8 0 0 1 1.33.54 1.82 1.82 0 0 1 1.33-.54 1.71 1.71 0 0 1 1.33.58 2 2 0 0 1 .54 1.36z"/><path class="cls-9" d="M5.28 151.85h230.2v9.79a6.43 6.43 0 0 1-6.43 6.43H11.7a6.43 6.43 0 0 1-6.43-6.43v-9.79z"/></g></g></svg>