<svg xmlns="http://www.w3.org/2000/svg" viewBox="0 0 175.3 226.37"><defs><style>.cls-1{isolation:isolate}.cls-2,.cls-9{fill:#fff}.cls-2{stroke:#b3b3b3}.cls-10,.cls-12,.cls-13,.cls-14,.cls-2{stroke-miterlimit:10}.cls-3{fill:#e6e6e6}.cls-4{opacity:.3;mix-blend-mode:multiply}.cls-5{fill:#5b5b5b}.cls-6{fill:#f2594b}.cls-7{fill:#fc3}.cls-8{fill:#f15b4e}.cls-10,.cls-13{fill:none;stroke-width:2px}.cls-10,.cls-14{stroke:gray}.cls-11{fill:#b3b3b3}.cls-12,.cls-14{fill:#999}.cls-12{stroke:#999}.cls-13{stroke:#666}.cls-14{stroke-width:.5px}.cls-15{fill:#333}</style></defs><title>img-tool-04</title><g class="cls-1"><g id="レイヤー_2" data-name="レイヤー 2"><g id="_5" data-name="5"><rect class="cls-2" x=".5" y=".5" width="103.18" height="201.1" rx="11.44" ry="11.44"/><path class="cls-3" d="M5.88 25.27h92.41v153.02H5.88z"/><path class="cls-4 cls-5" d="M5.84 25.48h92.41v21.48H5.84z"/><path class="cls-6" d="M5.84 24.48h92.41v21.48H5.84z"/><rect class="cls-7" x="8.05" y="25.85" width="20.88" height="18.75" rx="5" ry="5"/><path class="cls-8" d="M18.5 28.69a6.22 6.22 0 0 0-6.41 6 5.85 5.85 0 0 0 1.75 4.12l-.84 3 2.8-1.63a6.84 6.84 0 0 0 2.66.54 6.22 6.22 0 0 0 6.41-6 6.21 6.21 0 0 0-6.37-6.03zm0 10.72a4.74 4.74 0 1 1 0-9.46 4.74 4.74 0 1 1 0 9.46z"/><path class="cls-8" d="M21.89 36.92h-1.13v-2.85a.79.79 0 0 0-.25-.61.7.7 0 0 0-.58-.24.83.83 0 0 0-.62.24.91.91 0 0 0-.22.61v2.86h-1.17v-2.86a.91.91 0 0 0-.22-.61.8.8 0 0 0-.58-.2.75.75 0 0 0-.58.24.94.94 0 0 0-.25.61V37h-1.17v-2.9a2 2 0 0 1 .55-1.36 2 2 0 0 1 1.42-.58 2 2 0 0 1 1.42.54 2 2 0 0 1 1.42-.54 1.89 1.89 0 0 1 1.42.58 2 2 0 0 1 .58 1.36z"/><path class="cls-9" d="M32.76 31.77a.6.6 0 0 1-.47-.23.76.76 0 0 1-.19-.51 1 1 0 0 1 .08-.41 1.31 1.31 0 0 1 .17-.3 1.08 1.08 0 0 1 .31-.23l.32-.16.38-.14h.07v-.22a.78.78 0 0 0-.07-.37.27.27 0 0 0-.26-.13.27.27 0 0 0-.25.11.6.6 0 0 0-.08.31v.08h-.67a1 1 0 0 1 1.74-.71 1 1 0 0 1 .27.71v1.41a2.85 2.85 0 0 0 .09.78h-.67l-.09-.47-.08.15-.1.13a.58.58 0 0 1-.13.12l-.16.07a.65.65 0 0 1-.21.01zm.33-.51a.27.27 0 0 0 .14 0l.1-.08.08-.1v-.88l-.14.08-.15.09-.14.1a.66.66 0 0 0-.13.12.6.6 0 0 0-.08.14.46.46 0 0 0 0 .17q-.01.35.32.35zM34.89 31.72V28.6h.67v.34l.24-.19a1.1 1.1 0 0 1 .26-.13 1 1 0 0 1 .35-.06.45.45 0 0 1 .35.15.51.51 0 0 1 .13.36v2.66h-.67v-2.35a.44.44 0 0 0 0-.24.23.23 0 0 0-.2-.07.46.46 0 0 0-.17 0l-.13.06-.12.09v2.47zM38.28 31.77a.6.6 0 0 1-.47-.23.76.76 0 0 1-.19-.51 1 1 0 0 1 .08-.41 1.31 1.31 0 0 1 .17-.3 1.08 1.08 0 0 1 .31-.23l.32-.16.38-.14h.07v-.22a.78.78 0 0 0-.07-.37.27.27 0 0 0-.26-.13.27.27 0 0 0-.25.11.6.6 0 0 0-.08.31v.08h-.67a1 1 0 0 1 1.74-.71 1 1 0 0 1 .27.71v1.41a2.85 2.85 0 0 0 .09.78H39l-.09-.47-.08.15-.1.13a.58.58 0 0 1-.13.12l-.16.07a.65.65 0 0 1-.16.01zm.33-.51a.27.27 0 0 0 .14 0l.1-.08.08-.1v-.88l-.14.08-.15.09-.14.1a.66.66 0 0 0-.13.12.6.6 0 0 0-.08.14.46.46 0 0 0 0 .17q-.01.35.32.35zM40.41 31.72v-4.37h.67v4.38zM41.8 32.5V32a1.66 1.66 0 0 0 .32 0 .33.33 0 0 0 .18-.09.28.28 0 0 0 .08-.14 1 1 0 0 0 0-.21l-.76-3h.67l.42 2.19q.05-.33.12-.69l.16-.81.13-.69h.67L43 31.88a.71.71 0 0 1-.35.48 1.63 1.63 0 0 1-.75.14zM45.31 31.77a.76.76 0 0 1-.57-.19.82.82 0 0 1-.18-.57v-1.94h-.33v-.47h.33v-1.1h.67v1.1h.5v.47h-.5v1.82a.54.54 0 0 0 .05.28.24.24 0 0 0 .22.09h.22v.51zM46.45 28.13v-.63h.67v.63zm0 3.59V28.6h.67v3.13zM48.81 31.77a1.08 1.08 0 0 1-.42-.08.77.77 0 0 1-.29-.2.92.92 0 0 1-.17-.31 1.93 1.93 0 0 1-.09-.38 4.06 4.06 0 0 1 0-.44v-.41a4.07 4.07 0 0 1 0-.44 1.88 1.88 0 0 1 .09-.38.94.94 0 0 1 .17-.31.76.76 0 0 1 .29-.2 1.08 1.08 0 0 1 .42-.08 1 1 0 0 1 .76.27 1.24 1.24 0 0 1 .25.79v.08h-.67v-.08a1.5 1.5 0 0 0 0-.21.94.94 0 0 0 0-.18.28.28 0 0 0-.1-.14.29.29 0 0 0-.17 0 .26.26 0 0 0-.17.06.33.33 0 0 0-.1.16 1.15 1.15 0 0 0-.05.21 2 2 0 0 0 0 .25v.91a2.15 2.15 0 0 0 0 .24 1 1 0 0 0 .05.2.32.32 0 0 0 .1.15.27.27 0 0 0 .17.05.34.34 0 0 0 .15 0 .27.27 0 0 0 .1-.08.35.35 0 0 0 .05-.12.87.87 0 0 0 0-.15v-.25h.67v.08a1.71 1.71 0 0 1-.07.44 1 1 0 0 1-.17.33.74.74 0 0 1-.31.22 1.27 1.27 0 0 1-.49 0zM51.33 31.77a.94.94 0 0 1-.66-.23 1.17 1.17 0 0 1-.34-.6l.5-.16q.18.47.5.47a.35.35 0 0 0 .25-.08.3.3 0 0 0 .09-.23.46.46 0 0 0-.17-.36l-.67-.47-.19-.11-.15-.15a.64.64 0 0 1-.12-.2.72.72 0 0 1 0-.24.73.73 0 0 1 .27-.61 1.16 1.16 0 0 1 .73-.21 1.13 1.13 0 0 1 .39.06.82.82 0 0 1 .29.18 1.08 1.08 0 0 1 .2.26 1.34 1.34 0 0 1 .12.32l-.5.16-.07-.16-.1-.15a.43.43 0 0 0-.15-.12.4.4 0 0 0-.19 0 .35.35 0 0 0-.25.08.3.3 0 0 0-.09.23.33.33 0 0 0 .17.26l.67.47.19.16a1.42 1.42 0 0 1 .16.18.76.76 0 0 1 .12.23.89.89 0 0 1 0 .27.73.73 0 0 1-.27.61 1.16 1.16 0 0 1-.73.14zM34.24 38.84a2.64 2.64 0 0 0-.25-.41l-.47-.64-.48.67a2.67 2.67 0 0 0-.23.38h-.86l.37-.45.8-1.05-.73-1-.34-.34h.84a2.32 2.32 0 0 0 .23.38l.41.56.41-.56a2.46 2.46 0 0 0 .23-.38H35c-.17.21-.26.31-.34.43l-.72.94.78 1c.08.1.25.32.4.48zM37.54 38.84a2.64 2.64 0 0 0-.25-.41l-.47-.64-.48.67a2.67 2.67 0 0 0-.23.38h-.86l.37-.45.8-1.05-.73-1-.33-.34h.84a2.32 2.32 0 0 0 .23.38l.41.56.41-.56a2.46 2.46 0 0 0 .23-.38h.83c-.17.21-.26.31-.34.43l-.72.94.78 1c.08.1.25.32.4.48zM40.84 38.84a2.64 2.64 0 0 0-.25-.41l-.47-.64-.48.67a2.67 2.67 0 0 0-.23.38h-.86l.37-.45.8-1.05-.73-1-.33-.34h.84a2.32 2.32 0 0 0 .23.38l.41.56.41-.56a2.46 2.46 0 0 0 .23-.38h.83c-.17.21-.26.31-.34.43l-.72.94.78 1c.08.1.25.32.4.48zM44.15 38.84a2.64 2.64 0 0 0-.25-.41l-.47-.64-.48.67a2.67 2.67 0 0 0-.23.38h-.86l.37-.45.8-1.05-.73-1L42 36h.84a2.32 2.32 0 0 0 .23.38l.41.56.41-.56a2.46 2.46 0 0 0 .23-.38h.83c-.17.21-.26.31-.34.43l-.72.94.78 1c.08.1.25.32.4.48zM47.45 38.84a2.64 2.64 0 0 0-.25-.41l-.47-.64-.48.67a2.67 2.67 0 0 0-.23.38h-.86l.37-.45.8-1.05-.73-1-.34-.34h.84a2.32 2.32 0 0 0 .23.38l.41.56.41-.56a2.46 2.46 0 0 0 .23-.38h.83c-.17.21-.26.31-.34.43l-.72.94.78 1c.08.1.25.32.4.48zM50.75 38.84a2.64 2.64 0 0 0-.25-.41l-.5-.64-.48.67a2.67 2.67 0 0 0-.23.38h-.86l.37-.45.8-1.05-.73-1-.3-.34h.84a2.32 2.32 0 0 0 .23.38l.41.56.41-.56a2.46 2.46 0 0 0 .23-.38h.83c-.17.21-.26.31-.34.43l-.72.94.78 1c.08.1.25.32.4.48zM54.06 38.84a2.64 2.64 0 0 0-.25-.41l-.47-.64-.48.67a2.67 2.67 0 0 0-.23.38h-.86l.37-.45.8-1.05-.73-1-.34-.34h.84a2.32 2.32 0 0 0 .23.38l.41.56.41-.56A2.46 2.46 0 0 0 54 36h.83c-.17.21-.26.31-.34.43l-.72.94.78 1c.08.1.25.32.4.48zM57.36 38.84a2.64 2.64 0 0 0-.25-.41l-.47-.64-.48.67a2.67 2.67 0 0 0-.23.38h-.86l.37-.45.8-1.05-.73-1-.34-.34H56a2.32 2.32 0 0 0 .23.38l.41.56.41-.56a2.46 2.46 0 0 0 .23-.38h.83c-.17.21-.26.31-.34.43l-.72.94.78 1c.08.1.25.32.4.48zM60.66 38.84a2.64 2.64 0 0 0-.25-.41l-.47-.64-.48.67a2.67 2.67 0 0 0-.23.38h-.86l.37-.45.8-1.05-.73-1-.33-.34h.84a2.32 2.32 0 0 0 .23.38l.41.56.41-.56a2.46 2.46 0 0 0 .23-.38h.83c-.17.21-.26.31-.34.43l-.72.94.78 1c.08.1.25.32.4.48zM64 38.84a2.64 2.64 0 0 0-.25-.41l-.47-.64-.48.67a2.67 2.67 0 0 0-.23.38h-.86l.37-.45.8-1.05-.73-1-.37-.34h.84a2.32 2.32 0 0 0 .23.38l.41.56.41-.56a2.46 2.46 0 0 0 .23-.38h.83c-.17.21-.26.31-.34.43l-.72.94.78 1c.08.1.25.32.4.48zM67.27 38.84a2.64 2.64 0 0 0-.25-.41l-.47-.64-.48.67a2.67 2.67 0 0 0-.23.38H65l.37-.45.8-1.05-.73-1-.36-.34h.84a2.32 2.32 0 0 0 .23.38l.41.56.41-.56a2.46 2.46 0 0 0 .23-.38h.8c-.17.21-.26.31-.34.43l-.72.94.78 1c.08.1.25.32.4.48zM70.57 38.84a2.64 2.64 0 0 0-.25-.41l-.47-.64-.48.67a2.67 2.67 0 0 0-.23.38h-.86l.37-.45.8-1.05-.73-1-.33-.34h.84a2.32 2.32 0 0 0 .23.38l.41.56.41-.56a2.46 2.46 0 0 0 .23-.38h.83c-.17.21-.26.31-.34.43l-.72.94.78 1c.08.1.25.32.4.48zM73.88 38.84a2.64 2.64 0 0 0-.25-.41l-.47-.64-.48.67a2.67 2.67 0 0 0-.23.38h-.86l.37-.45.8-1.05-.73-1-.34-.34h.84a2.32 2.32 0 0 0 .23.38l.41.56.41-.56a2.46 2.46 0 0 0 .22-.38h.83c-.17.21-.26.31-.34.43l-.72.94.78 1c.08.1.25.32.4.48zM77.18 38.84a2.64 2.64 0 0 0-.25-.41l-.47-.64-.48.67a2.67 2.67 0 0 0-.23.38h-.86l.37-.45.8-1.05-.73-1L75 36h.84a2.32 2.32 0 0 0 .23.38l.41.56.41-.56a2.46 2.46 0 0 0 .21-.38h.83c-.17.21-.26.31-.34.43l-.72.94.78 1c.08.1.25.32.4.48zM80.48 38.84a2.64 2.64 0 0 0-.25-.41l-.47-.64-.48.67a2.67 2.67 0 0 0-.23.38h-.86l.37-.45.8-1.05-.73-1-.33-.34h.84a2.32 2.32 0 0 0 .23.38l.41.56.41-.56a2.46 2.46 0 0 0 .21-.38h.83c-.17.21-.26.31-.34.43l-.72.94.78 1c.08.1.25.32.4.48z"/><path class="cls-10" d="M43.72 13.46h16.74"/><ellipse class="cls-11" cx="52.09" cy="189.24" rx="7.69" ry="7.18"/><rect class="cls-12" x="71.62" y="24.76" width="103.18" height="201.1" rx="11.44" ry="11.44"/><path class="cls-3" d="M77 49.53h92.41v153.02H77z"/><path class="cls-13" d="M114.83 37.72h16.75"/><ellipse class="cls-14" cx="123.21" cy="213.5" rx="7.69" ry="7.18"/><path class="cls-4 cls-5" d="M77 107.48h92.41v21.48H77z"/><path class="cls-6" d="M77 106.48h92.41v21.48H77z"/><rect class="cls-7" x="79.21" y="107.85" width="20.88" height="18.75" rx="5" ry="5"/><path class="cls-8" d="M89.67 110.69a6.22 6.22 0 0 0-6.41 6 5.85 5.85 0 0 0 1.74 4.1l-.84 3 2.8-1.63a6.84 6.84 0 0 0 2.66.54 6 6 0 1 0 0-12zm0 10.72a4.74 4.74 0 1 1 5.06-4.73 4.89 4.89 0 0 1-5.06 4.73z"/><path class="cls-8" d="M93.06 118.92h-1.13v-2.86a.79.79 0 0 0-.25-.61.7.7 0 0 0-.58-.24.83.83 0 0 0-.62.24.91.91 0 0 0-.22.61v2.86h-1.17v-2.86a.91.91 0 0 0-.22-.61.8.8 0 0 0-.58-.2.75.75 0 0 0-.58.24.94.94 0 0 0-.25.61v2.9h-1.18v-2.9a2 2 0 0 1 .55-1.36 2 2 0 0 1 1.42-.58 2 2 0 0 1 1.42.54 2 2 0 0 1 1.42-.54 1.89 1.89 0 0 1 1.42.58 2 2 0 0 1 .58 1.36z"/><path d="M103.93 113.77a.6.6 0 0 1-.47-.23.76.76 0 0 1-.19-.51 1 1 0 0 1 .08-.41 1.3 1.3 0 0 1 .17-.3 1.1 1.1 0 0 1 .31-.23l.32-.16.38-.14h.07v-.22a.79.79 0 0 0-.07-.37.27.27 0 0 0-.26-.13.28.28 0 0 0-.25.11.6.6 0 0 0-.08.31v.08h-.67a1 1 0 0 1 1.74-.71 1 1 0 0 1 .27.71v1.41a2.86 2.86 0 0 0 .09.78h-.67l-.09-.47-.08.15-.09.13a.59.59 0 0 1-.13.12l-.16.07a.64.64 0 0 1-.22.01zm.33-.51a.26.26 0 0 0 .14 0l.1-.08.08-.1v-.88l-.14.08-.15.09-.14.1a.68.68 0 0 0-.13.12.64.64 0 0 0-.08.14.46.46 0 0 0 0 .17c-.01.23.06.35.32.35zM106.05 113.72v-3.12h.67v.34l.24-.19a1.14 1.14 0 0 1 .26-.13 1 1 0 0 1 .35-.06.45.45 0 0 1 .35.15.51.51 0 0 1 .13.36v2.66h-.67v-2.34a.44.44 0 0 0 0-.24.23.23 0 0 0-.2-.07.46.46 0 0 0-.17 0l-.13.06-.12.09v2.47zM109.45 113.77a.6.6 0 0 1-.47-.23.76.76 0 0 1-.19-.51 1 1 0 0 1 .08-.41 1.3 1.3 0 0 1 .17-.3 1.1 1.1 0 0 1 .31-.23l.32-.16.38-.14h.07v-.22a.79.79 0 0 0-.07-.37.27.27 0 0 0-.26-.13.28.28 0 0 0-.25.11.6.6 0 0 0-.08.31v.08h-.67a1 1 0 0 1 1.74-.71 1 1 0 0 1 .27.71v1.41a2.86 2.86 0 0 0 .09.78h-.67l-.09-.47-.08.15-.09.13a.59.59 0 0 1-.13.12l-.16.07a.64.64 0 0 1-.22.01zm.33-.51a.26.26 0 0 0 .14 0l.1-.08.08-.1v-.88l-.14.08-.15.09-.14.1a.68.68 0 0 0-.13.12.64.64 0 0 0-.08.14.46.46 0 0 0 0 .17c-.01.23.1.35.32.35zM111.58 113.72v-4.37h.67v4.38zM113 114.5v-.5a1.62 1.62 0 0 0 .32 0 .33.33 0 0 0 .18-.09.27.27 0 0 0 .08-.14.94.94 0 0 0 0-.21l-.76-3h.67q.39 2 .42 2.19c0-.22.08-.45.12-.69l.16-.81.13-.69h.68l-.84 3.28a.7.7 0 0 1-.35.48 1.63 1.63 0 0 1-.75.14zM116.48 113.77a.76.76 0 0 1-.57-.19.82.82 0 0 1-.18-.57v-1.94h-.33v-.47h.33v-1.1h.67v1.09h.5v.47h-.5v1.82a.53.53 0 0 0 .05.28.24.24 0 0 0 .22.09h.22v.51zM117.62 110.13v-.62h.67v.63zm0 3.59v-3.12h.67v3.13zM120 113.77a1.09 1.09 0 0 1-.42-.08.79.79 0 0 1-.29-.2.91.91 0 0 1-.17-.31 1.9 1.9 0 0 1-.09-.38 4 4 0 0 1 0-.44v-.41a4 4 0 0 1 0-.44 1.92 1.92 0 0 1 .09-.38.93.93 0 0 1 .17-.31.75.75 0 0 1 .29-.2 1.07 1.07 0 0 1 .42-.08 1 1 0 0 1 .76.27 1.24 1.24 0 0 1 .25.79v.08h-.67v-.09a1.36 1.36 0 0 0 0-.21 1 1 0 0 0 0-.18.28.28 0 0 0-.1-.14.3.3 0 0 0-.17 0 .25.25 0 0 0-.17.05.33.33 0 0 0-.1.16 1.11 1.11 0 0 0-.05.21 2 2 0 0 0 0 .25v.91a2.13 2.13 0 0 0 0 .24 1 1 0 0 0 .05.2.33.33 0 0 0 .1.15.27.27 0 0 0 .17.05.35.35 0 0 0 .15 0 .27.27 0 0 0 .1-.08.38.38 0 0 0 .05-.12.85.85 0 0 0 0-.15v-.25h.63v.08a1.72 1.72 0 0 1-.07.44 1 1 0 0 1-.17.33.74.74 0 0 1-.31.22 1.26 1.26 0 0 1-.45.02zM122.49 113.77a.94.94 0 0 1-.66-.23 1.17 1.17 0 0 1-.34-.6l.5-.16q.18.47.5.47a.35.35 0 0 0 .25-.08.3.3 0 0 0 .09-.23.46.46 0 0 0-.17-.36l-.67-.47-.19-.13-.15-.15a.62.62 0 0 1-.12-.2.81.81 0 0 1 .23-.86 1.16 1.16 0 0 1 .73-.21 1.12 1.12 0 0 1 .39.06.81.81 0 0 1 .29.18 1.08 1.08 0 0 1 .2.26 1.38 1.38 0 0 1 .12.32l-.5.16-.07-.16-.1-.15a.43.43 0 0 0-.14-.12.41.41 0 0 0-.19 0 .35.35 0 0 0-.25.08.3.3 0 0 0-.09.23.33.33 0 0 0 .17.26l.67.47.19.16a1.42 1.42 0 0 1 .16.18.76.76 0 0 1 .11.23.88.88 0 0 1 0 .27.73.73 0 0 1-.27.61 1.17 1.17 0 0 1-.69.17z"/><path class="cls-15" d="M105.4 120.84a2.62 2.62 0 0 0-.25-.41l-.47-.64-.48.67a2.6 2.6 0 0 0-.23.38h-.86l.38-.45.8-1.05-.73-1-.34-.42h.84a2.35 2.35 0 0 0 .22.38l.41.56.41-.56a2.41 2.41 0 0 0 .23-.38h.83c-.17.21-.26.32-.34.43l-.72.94.78 1c.08.1.25.32.4.48zM108.71 120.84a2.62 2.62 0 0 0-.25-.41l-.47-.64-.48.67a2.6 2.6 0 0 0-.23.38h-.86l.38-.45.8-1.05-.73-1-.34-.42h.84a2.35 2.35 0 0 0 .22.38l.41.56.41-.56a2.41 2.41 0 0 0 .23-.38h.83c-.17.21-.26.32-.34.43l-.72.94.78 1c.08.1.25.32.4.48zM112 120.84a2.62 2.62 0 0 0-.25-.41l-.47-.64-.48.67a2.6 2.6 0 0 0-.23.38h-.86l.38-.45.8-1.05-.73-1-.34-.42h.84a2.35 2.35 0 0 0 .22.38l.41.56.41-.56a2.41 2.41 0 0 0 .23-.38h.83c-.17.21-.26.32-.34.43l-.72.94.78 1c.08.1.25.32.4.48zM115.32 120.84a2.62 2.62 0 0 0-.25-.41l-.47-.64-.48.67a2.6 2.6 0 0 0-.23.38H113l.38-.45.8-1.05-.73-1-.34-.42h.89a2.35 2.35 0 0 0 .22.38l.41.56.41-.56a2.41 2.41 0 0 0 .23-.38h.83c-.17.21-.26.32-.34.43l-.72.94.78 1c.08.1.25.32.4.48zM118.62 120.84a2.62 2.62 0 0 0-.25-.41l-.47-.64-.48.67a2.6 2.6 0 0 0-.23.38h-.86l.38-.45.8-1.05-.73-1-.34-.42h.84a2.35 2.35 0 0 0 .22.38l.41.56.41-.56a2.41 2.41 0 0 0 .23-.38h.83c-.17.21-.26.32-.34.43l-.72.94.78 1c.08.1.25.32.4.48zM121.92 120.84a2.62 2.62 0 0 0-.25-.41l-.47-.64-.48.67a2.6 2.6 0 0 0-.23.38h-.86l.38-.45.8-1.05-.73-1-.34-.42h.84a2.35 2.35 0 0 0 .22.38l.41.56.41-.56a2.41 2.41 0 0 0 .23-.38h.83c-.17.21-.26.32-.34.43l-.72.94.78 1c.08.1.25.32.4.48zM125.23 120.84a2.62 2.62 0 0 0-.25-.41l-.47-.64-.48.67a2.6 2.6 0 0 0-.23.38h-.86l.38-.45.8-1.05-.73-1-.39-.34h.84a2.35 2.35 0 0 0 .22.38l.41.56.41-.56a2.41 2.41 0 0 0 .23-.38h.89c-.17.21-.26.32-.34.43l-.72.94.78 1c.08.1.25.32.4.48zM128.53 120.84a2.62 2.62 0 0 0-.25-.41l-.47-.64-.48.67a2.6 2.6 0 0 0-.23.38h-.86l.38-.45.8-1.05-.73-1-.34-.42h.84a2.35 2.35 0 0 0 .22.38l.41.56.41-.56a2.41 2.41 0 0 0 .23-.38h.83c-.17.21-.26.32-.34.43l-.72.94.78 1c.08.1.25.32.4.48zM131.83 120.84a2.62 2.62 0 0 0-.25-.41l-.47-.64-.48.67a2.6 2.6 0 0 0-.23.38h-.86l.38-.45.8-1.05-.73-1-.34-.42h.84a2.35 2.35 0 0 0 .22.38l.41.56.41-.56a2.41 2.41 0 0 0 .23-.38h.83c-.17.21-.26.32-.34.43l-.72.94.78 1c.08.1.25.32.4.48zM135.14 120.84a2.62 2.62 0 0 0-.25-.41l-.47-.64-.48.67a2.6 2.6 0 0 0-.23.38h-.86l.38-.45.8-1.05-.73-1-.3-.34h.84a2.35 2.35 0 0 0 .22.38l.41.56.41-.56a2.41 2.41 0 0 0 .23-.38h.83c-.17.21-.26.32-.34.43l-.72.94.78 1c.08.1.25.32.4.48zM138.44 120.84a2.62 2.62 0 0 0-.25-.41l-.47-.64-.48.67a2.6 2.6 0 0 0-.23.38h-.86l.38-.45.8-1.05-.73-1-.34-.42h.84a2.35 2.35 0 0 0 .22.38l.41.56.41-.56a2.41 2.41 0 0 0 .23-.38h.83c-.17.21-.26.32-.34.43l-.72.94.78 1c.08.1.25.32.4.48zM141.75 120.84a2.62 2.62 0 0 0-.25-.41l-.47-.64-.48.67a2.6 2.6 0 0 0-.23.38h-.86l.38-.45.8-1.05-.73-1-.34-.42h.84a2.35 2.35 0 0 0 .22.38l.41.56.41-.56a2.41 2.41 0 0 0 .23-.38h.83c-.17.21-.26.32-.34.43l-.72.94.78 1c.08.1.25.32.4.48zM145 120.84a2.62 2.62 0 0 0-.25-.41l-.47-.64-.48.67a2.6 2.6 0 0 0-.23.38h-.86l.38-.45.8-1.05-.73-1-.34-.42h.84a2.35 2.35 0 0 0 .22.38l.41.56.41-.56a2.41 2.41 0 0 0 .3-.3h.83c-.17.21-.26.32-.34.43l-.72.94.78 1c.08.1.25.32.4.48zM148.35 120.84a2.62 2.62 0 0 0-.25-.41l-.47-.64-.48.67a2.6 2.6 0 0 0-.23.38h-.86l.38-.45.8-1.05-.73-1-.34-.42h.83a2.35 2.35 0 0 0 .22.38l.41.56.41-.56a2.41 2.41 0 0 0 .23-.38h.83c-.17.21-.26.32-.34.43l-.72.94.78 1c.08.1.25.32.4.48zM151.66 120.84a2.62 2.62 0 0 0-.25-.41l-.47-.64-.48.67a2.6 2.6 0 0 0-.23.38h-.86l.38-.45.8-1.05-.73-1-.34-.42h.84a2.35 2.35 0 0 0 .22.38l.41.56.41-.56a2.41 2.41 0 0 0 .23-.38h.83c-.17.21-.26.32-.34.43l-.72.94.78 1c.08.1.25.32.4.48z"/></g></g></g></svg>