<svg xmlns="http://www.w3.org/2000/svg" viewBox="0 0 205.9 256.56"><defs><style>.cls-1,.cls-7{fill:none;stroke-miterlimit:10}.cls-1{stroke:#999}.cls-2{fill:#999}.cls-3{fill:#e6e6e6}.cls-4{fill:#f2594b}.cls-5{fill:#fff}.cls-6{fill:#333}.cls-7{stroke:gray;stroke-width:2px}.cls-8{fill:gray}.cls-9{fill:#63a69f}.cls-10{fill:#fc3}</style></defs><title>img-tool-07</title><g id="レイヤー_2" data-name="レイヤー 2"><g id="_4" data-name="4"><rect class="cls-1" x=".5" y=".5" width="122.45" height="255.56" rx="11.44" ry="11.44"/><path class="cls-2" d="M6.89 31.97h109.67v194.45H6.89z"/><rect class="cls-3" x="15.58" y="58.2" width="92.29" height="142.14" rx="11.44" ry="11.44"/><rect class="cls-4" x="22.04" y="179.11" width="79.37" height="14" rx="7" ry="7"/><path class="cls-5" d="M51 187a2.75 2.75 0 0 0-.18-.54l-.58-1.37a4.44 4.44 0 0 1-.2-.61v1.94a3.6 3.6 0 0 0 0 .58h-.56a3.75 3.75 0 0 0 0-.58v-2a4 4 0 0 0 0-.59h.73a2.73 2.73 0 0 0 .15.48l.81 2 .81-2a2.24 2.24 0 0 0 .14-.48H53a4.13 4.13 0 0 0 0 .59v2a3.47 3.47 0 0 0 0 .58h-.6a3.66 3.66 0 0 0 0-.58v-1.33-.61a4.94 4.94 0 0 1-.18.58l-.6 1.41a3.27 3.27 0 0 0-.18.53zM56 184.18a1.73 1.73 0 0 1 .45 1.25 1.5 1.5 0 1 1-3 0 1.71 1.71 0 0 1 .46-1.25 1.39 1.39 0 0 1 1-.4 1.4 1.4 0 0 1 1.09.4zm-.11 1.25a1.29 1.29 0 0 0-.32-.93.86.86 0 0 0-.62-.24c-.58 0-.94.46-.94 1.18a1.32 1.32 0 0 0 .32.94.86.86 0 0 0 .62.24c.55 0 .9-.45.9-1.19zM58.91 187a3.28 3.28 0 0 0-.21-.64c-.22-.55-.36-.7-.66-.7h-.6v.82a3.13 3.13 0 0 0 0 .52h-.6a3.13 3.13 0 0 0 0-.52v-2.16a3.57 3.57 0 0 0 0-.52h1.47c.61 0 1 .3 1 .83a.82.82 0 0 1-.2.6.84.84 0 0 1-.44.23c.25.08.33.19.72 1.13l.19.4zm-.66-1.79a.54.54 0 0 0 .38-.14.48.48 0 0 0 .13-.35c0-.29-.16-.44-.49-.44h-.82v.93zM62.25 187.06a3.36 3.36 0 0 0-.52 0H60a3.22 3.22 0 0 0 0-.53v-2.16a3.55 3.55 0 0 0 0-.52h1.72a4.37 4.37 0 0 0 .52 0v.53a3.66 3.66 0 0 0-.52 0h-1.18v.82h1a4.07 4.07 0 0 0 .52 0v.52a3.08 3.08 0 0 0-.52 0h-1v.94h1.2a3.74 3.74 0 0 0 .51 0zM64.65 183.85a3 3 0 0 0 0 .52v2.15a3 3 0 0 0 0 .52H64a3 3 0 0 0 0-.52v-2.15a3 3 0 0 0 0-.52zM67.3 187a4 4 0 0 0-.26-.43L66 185c-.08-.12-.18-.29-.27-.48v1.86a4.41 4.41 0 0 0 0 .6h-.58a4.31 4.31 0 0 0 0-.6v-2.06a3.33 3.33 0 0 0 0-.52h.62a2.17 2.17 0 0 0 .24.42l1 1.52c.1.14.22.35.31.51v-1.85a3.49 3.49 0 0 0 0-.55h.58a3.49 3.49 0 0 0 0 .55v2.12a3 3 0 0 0 0 .52zM69.07 186.45a3.45 3.45 0 0 0 0 .58h-.6a3.37 3.37 0 0 0 0-.57v-2.11a3.46 3.46 0 0 0 0-.52h1.63a4.16 4.16 0 0 0 .55 0v.54a3.73 3.73 0 0 0-.55 0h-1.03v.85h.86a3.85 3.85 0 0 0 .54 0v.53a3.82 3.82 0 0 0-.54 0h-.86zM73.51 184.18a1.73 1.73 0 0 1 .45 1.25 1.5 1.5 0 1 1-3 0 1.71 1.71 0 0 1 .46-1.25 1.39 1.39 0 0 1 1-.4 1.4 1.4 0 0 1 1.09.4zm-.11 1.25a1.29 1.29 0 0 0-.32-.93.86.86 0 0 0-.62-.24c-.58 0-.94.46-.94 1.18a1.32 1.32 0 0 0 .32.94.86.86 0 0 0 .62.24c.54 0 .94-.45.94-1.19z"/><path class="cls-6" d="M32.77 137.11a2.14 2.14 0 0 1-1.41-.51 1.63 1.63 0 0 1-.48-1.1l1-.16a1 1 0 0 0 .26.73.93.93 0 0 0 .64.27v-1.73a3 3 0 0 1-1.18-.42A1.39 1.39 0 0 1 31 133a1.45 1.45 0 0 1 .68-1.25 2.16 2.16 0 0 1 1.09-.32v-.36h.48v.37a1.88 1.88 0 0 1 1.25.49 1.55 1.55 0 0 1 .48.94L34 133a.91.91 0 0 0-.25-.57.81.81 0 0 0-.52-.25v1.55a3 3 0 0 1 1.31.48 1.36 1.36 0 0 1 .55 1.18 1.51 1.51 0 0 1-.71 1.36 2.27 2.27 0 0 1-1.16.31v.58h-.48zm0-4.88a.88.88 0 0 0-.54.18.66.66 0 0 0-.23.59.62.62 0 0 0 .27.53 1.52 1.52 0 0 0 .55.21zm.48 4.12c.57 0 .88-.35.88-.85a.69.69 0 0 0-.22-.55 1.51 1.51 0 0 0-.65-.24zM36.77 137.06a6.39 6.39 0 0 0-.9 0 3.56 3.56 0 0 1 .18-.9 3.45 3.45 0 0 1 1-1.37 9.73 9.73 0 0 1 1.16-.85c.64-.44.84-.67.84-1s-.37-.77-1-.77a1 1 0 0 0-.89.41 1.34 1.34 0 0 0-.22.64l-1-.12a2.1 2.1 0 0 1 .48-1.12 2 2 0 0 1 1.6-.62c1.23 0 2 .59 2 1.55a1.42 1.42 0 0 1-.5 1.12 8.8 8.8 0 0 1-1.18.86 6.17 6.17 0 0 0-.83.7 1.69 1.69 0 0 0-.4.63h2a7.31 7.31 0 0 0 1-.06v.92h-1.06zM45.29 135.82a5.53 5.53 0 0 0-.7 0h-.25v.5a4.31 4.31 0 0 0 .06.8h-1a4.47 4.47 0 0 0 .06-.81v-.48h-2.83v-.86c.24-.26.32-.35.56-.64l1.66-2a6.69 6.69 0 0 0 .58-.77h.95a9.87 9.87 0 0 0 0 1.18V135h.25a4.59 4.59 0 0 0 .71 0zm-1.83-2.29a7.83 7.83 0 0 1 0-.84c-.14.2-.22.31-.48.62L41.67 135h1.79zM46.47 136.61a2 2 0 0 1-.46-.71 4.69 4.69 0 0 1-.27-1.61 4.13 4.13 0 0 1 .43-1.94 2 2 0 0 1 1.79-1 2 2 0 0 1 1.48.57 2 2 0 0 1 .46.71 4.71 4.71 0 0 1 .27 1.63 3.68 3.68 0 0 1-.52 2.07 2 2 0 0 1-1.7.83 2 2 0 0 1-1.48-.55zm2.23-.54a3.54 3.54 0 0 0 0-3.59 1 1 0 0 0-.76-.29.94.94 0 0 0-.78.36 2.61 2.61 0 0 0-.46 1.7 3.15 3.15 0 0 0 .36 1.67 1.12 1.12 0 0 0 1.65.16zM54 131.49l-2.53 6.63h-.86l2.54-6.63zM57.17 137.06a3.74 3.74 0 0 0-.33-.57l-.61-.9-.63.94a3.76 3.76 0 0 0-.3.53h-1.13l.49-.63 1.05-1.43-1-1.33-.45-.59h1.09a3.26 3.26 0 0 0 .29.53l.54.79.53-.79a3.43 3.43 0 0 0 .29-.53h1.09c-.22.29-.34.44-.45.6l-.88 1.32 1 1.43c.1.14.33.44.52.67zM61.49 137.06a3.74 3.74 0 0 0-.33-.57l-.61-.9-.63.94a3.76 3.76 0 0 0-.3.53h-1.13l.49-.63L60 135l-1-1.33-.45-.59h1.09a3.26 3.26 0 0 0 .29.53l.54.79.53-.79a3.43 3.43 0 0 0 .29-.53h1.09c-.22.29-.34.44-.45.6l-.85 1.32 1 1.43c.1.14.33.44.52.67zM65.81 137.06a3.74 3.74 0 0 0-.33-.57l-.61-.9-.63.94a3.76 3.76 0 0 0-.3.53h-1.13l.49-.63 1.05-1.43-1-1.33L63 133h1a3.26 3.26 0 0 0 .29.53l.54.79.53-.79a3.43 3.43 0 0 0 .29-.53h1.09c-.22.29-.34.44-.45.6l-.89 1.4 1 1.43c.1.14.33.44.52.67zM70.13 137.06a3.74 3.74 0 0 0-.33-.57l-.61-.9-.63.94a3.76 3.76 0 0 0-.3.53h-1.13l.49-.63 1.05-1.43-1-1.33-.45-.59h1.09a3.26 3.26 0 0 0 .29.53l.54.79.53-.79A3.43 3.43 0 0 0 70 133h1.09c-.22.29-.34.44-.45.6l-.92 1.4 1 1.43c.1.14.33.44.52.67zM74.45 137.06a3.74 3.74 0 0 0-.33-.57l-.61-.9-.63.94a3.76 3.76 0 0 0-.3.53h-1.13l.49-.63L73 135l-1-1.33-.45-.59h1.09a3.26 3.26 0 0 0 .29.53l.54.79.53-.79a3.43 3.43 0 0 0 .29-.53h1.09c-.22.29-.34.44-.45.6L74 135l1 1.43c.1.14.33.44.52.67zM78.77 137.06a3.74 3.74 0 0 0-.33-.57l-.61-.9-.63.94a3.76 3.76 0 0 0-.3.53h-1.13l.49-.63 1.05-1.43-1-1.33-.45-.59H77a3.26 3.26 0 0 0 .29.53l.54.79.53-.79a3.43 3.43 0 0 0 .29-.53h1.09c-.22.29-.34.44-.45.6l-.94 1.32 1 1.43c.1.14.33.44.52.67zM83.09 137.06a3.74 3.74 0 0 0-.33-.57l-.61-.9-.63.94a3.76 3.76 0 0 0-.3.53h-1.13l.49-.63 1.05-1.43-1-1.33-.45-.59h1.09a3.26 3.26 0 0 0 .29.53l.54.79.53-.79A3.43 3.43 0 0 0 83 133h1.09c-.22.29-.34.44-.45.6l-.97 1.4 1 1.43c.1.14.33.44.52.67zM87.4 137.06a3.74 3.74 0 0 0-.33-.57l-.61-.9-.63.94a3.76 3.76 0 0 0-.3.53h-1.12l.49-.63 1.05-1.43-1-1.33-.45-.59h1.09a3.26 3.26 0 0 0 .29.53l.54.79.53-.79a3.43 3.43 0 0 0 .29-.53h1.09c-.22.29-.34.44-.45.6L87 135l1 1.43c.1.14.33.44.52.67zM91.72 137.06a3.74 3.74 0 0 0-.33-.57l-.61-.9-.63.94a3.76 3.76 0 0 0-.3.53h-1.12l.49-.63 1.05-1.43-1-1.33-.45-.59H90a3.26 3.26 0 0 0 .29.53l.54.79.53-.79a3.43 3.43 0 0 0 .29-.53h1.05c-.22.29-.34.44-.45.6l-.94 1.32 1 1.43c.1.14.33.44.52.67zM30.27 157.06a3.74 3.74 0 0 0-.33-.57l-.61-.9-.63.94a3.76 3.76 0 0 0-.3.53h-1.13l.49-.63 1.05-1.43-1-1.33-.45-.59h1.14a3.26 3.26 0 0 0 .29.53l.54.79.53-.79a3.43 3.43 0 0 0 .29-.53h1.09c-.22.29-.34.44-.45.6l-.93 1.32 1 1.43c.1.14.33.44.52.67zM34.59 157.06a3.74 3.74 0 0 0-.33-.57l-.61-.9-.63.94a3.76 3.76 0 0 0-.3.53h-1.13l.49-.63 1.05-1.43-1-1.33-.45-.59h1.09a3.26 3.26 0 0 0 .29.53l.54.79.53-.79a3.43 3.43 0 0 0 .29-.53h1.09c-.22.29-.34.44-.45.6l-.89 1.32 1 1.43c.1.14.33.44.52.67zM38.91 157.06a3.74 3.74 0 0 0-.33-.57l-.61-.9-.63.94a3.76 3.76 0 0 0-.3.53h-1.13l.49-.63 1.05-1.43-1-1.33L36 153h1.09a3.26 3.26 0 0 0 .29.53l.54.79.53-.79a3.43 3.43 0 0 0 .29-.53h1.09c-.22.29-.34.44-.45.6l-.89 1.4 1 1.43c.1.14.33.44.52.67zM43.22 157.06a3.74 3.74 0 0 0-.33-.57l-.61-.9-.63.94a3.76 3.76 0 0 0-.3.53h-1.12l.49-.63 1.05-1.43-1-1.33-.45-.59h1.09a3.26 3.26 0 0 0 .29.53l.54.79.53-.79a3.43 3.43 0 0 0 .29-.53h1.09c-.22.29-.34.44-.45.6l-.89 1.32 1 1.43c.1.14.33.44.52.67zM47.54 157.06a3.74 3.74 0 0 0-.33-.57l-.61-.9-.63.94a3.76 3.76 0 0 0-.3.53h-1.12l.49-.63 1.05-1.43-1-1.33-.45-.59h1.09a3.26 3.26 0 0 0 .29.53l.54.79.53-.79a3.43 3.43 0 0 0 .29-.53h1.09c-.22.29-.34.44-.45.6l-.89 1.32 1 1.43c.1.14.33.44.52.67zM51.86 157.06a3.74 3.74 0 0 0-.33-.57l-.61-.9-.63.94a3.76 3.76 0 0 0-.3.53h-1.13l.49-.63 1.06-1.43-1-1.33L49 153h1.1a3.26 3.26 0 0 0 .29.53l.54.79.53-.79a3.43 3.43 0 0 0 .29-.53h1.09c-.22.29-.34.44-.45.6l-.94 1.4 1 1.43c.1.14.33.44.52.67zM56.18 157.06a3.74 3.74 0 0 0-.33-.57l-.61-.9-.63.94a3.76 3.76 0 0 0-.3.53h-1.13l.49-.63 1.05-1.43-1-1.33-.45-.59h1.09a3.26 3.26 0 0 0 .29.53l.54.79.53-.79a3.43 3.43 0 0 0 .29-.53h1.09c-.22.29-.34.44-.45.6l-.88 1.32 1 1.43c.1.14.33.44.52.67zM60.5 157.06a3.74 3.74 0 0 0-.33-.57l-.61-.9-.63.94a3.76 3.76 0 0 0-.3.53H57.5l.49-.63L59 155l-1-1.33-.45-.59h1.09a3.26 3.26 0 0 0 .29.53l.54.79.53-.79a3.43 3.43 0 0 0 .29-.53h1.09c-.22.29-.34.44-.45.6l-.84 1.32 1 1.43c.1.14.33.44.52.67zM64.82 157.06a3.74 3.74 0 0 0-.33-.57l-.61-.9-.63.94a3.76 3.76 0 0 0-.3.53h-1.13l.49-.63 1.05-1.43-1-1.33L62 153h1.09a3.26 3.26 0 0 0 .29.53l.54.79.53-.79a3.43 3.43 0 0 0 .29-.53h1.06c-.22.29-.34.44-.45.6l-.94 1.4 1 1.43c.1.14.33.44.52.67zM69.14 157.06a3.74 3.74 0 0 0-.33-.57l-.61-.9-.63.94a3.76 3.76 0 0 0-.3.53h-1.13l.49-.63 1.05-1.43-1-1.33-.45-.59h1.09a3.26 3.26 0 0 0 .29.53l.54.79.53-.79A3.43 3.43 0 0 0 69 153h1.09c-.22.29-.34.44-.45.6l-.92 1.4 1 1.43c.1.14.33.44.52.67zM73.46 157.06a3.74 3.74 0 0 0-.33-.57l-.61-.9-.63.94a3.76 3.76 0 0 0-.3.53h-1.13l.49-.63L72 155l-1-1.33-.4-.67h1.09a3.26 3.26 0 0 0 .29.53l.54.79.53-.79a3.43 3.43 0 0 0 .29-.53h1.09c-.22.29-.34.44-.45.6L73 155l1 1.43c.1.14.33.44.52.67zM77.78 157.06a3.74 3.74 0 0 0-.33-.57l-.61-.9-.63.94a3.76 3.76 0 0 0-.3.53h-1.13l.49-.63 1.05-1.43-1-1.33-.45-.59H76a3.26 3.26 0 0 0 .29.53l.54.79.53-.79a3.43 3.43 0 0 0 .29-.53h1.09c-.22.29-.34.44-.45.6l-.93 1.32 1 1.43c.1.14.33.44.52.67zM82.09 157.06a3.74 3.74 0 0 0-.33-.57l-.61-.9-.63.94a3.76 3.76 0 0 0-.3.53H79.1l.49-.63 1.05-1.43-1-1.33-.45-.59h1.09a3.26 3.26 0 0 0 .29.53l.54.79.53-.79A3.43 3.43 0 0 0 82 153h1.09c-.22.29-.34.44-.45.6l-.96 1.4 1 1.43c.1.14.33.44.52.67zM86.41 157.06a3.74 3.74 0 0 0-.33-.57l-.61-.9-.63.94a3.76 3.76 0 0 0-.3.53h-1.12l.49-.63L85 155l-1-1.33-.45-.59h1.09a3.26 3.26 0 0 0 .29.53l.54.79.53-.79a3.43 3.43 0 0 0 .29-.53h1.09c-.22.29-.34.44-.45.6L86 155l1 1.43c.1.14.33.44.52.67zM90.73 157.06a3.74 3.74 0 0 0-.33-.57l-.61-.9-.63.94a3.76 3.76 0 0 0-.3.53h-1.13l.49-.63 1.06-1.43-1-1.33-.45-.59H89a3.26 3.26 0 0 0 .29.53l.54.79.53-.79a3.43 3.43 0 0 0 .29-.53h1.09c-.22.29-.34.44-.45.6l-.97 1.32 1 1.43c.1.14.33.44.52.67zM95.05 157.06a3.74 3.74 0 0 0-.33-.57l-.61-.9-.63.94a3.76 3.76 0 0 0-.3.53h-1.13l.49-.63 1.05-1.43-1-1.33-.45-.59h1.09a3.26 3.26 0 0 0 .29.53l.54.79.53-.79a3.43 3.43 0 0 0 .29-.53H96c-.22.29-.34.44-.45.6l-.91 1.32 1 1.43c.1.14.33.44.52.67zM30.27 169.31a3.74 3.74 0 0 0-.33-.57l-.61-.9-.63.94a3.76 3.76 0 0 0-.3.53h-1.13l.49-.63 1.05-1.47-1-1.33-.45-.59h1.14a3.26 3.26 0 0 0 .29.53l.54.79.53-.79a3.43 3.43 0 0 0 .29-.53h1.09c-.22.29-.34.44-.45.6l-.95 1.32 1 1.43c.1.14.33.44.52.67zM34.59 169.31a3.74 3.74 0 0 0-.33-.57l-.61-.9-.63.94a3.76 3.76 0 0 0-.3.53h-1.13l.49-.63 1.05-1.47-1-1.33-.45-.59h1.09a3.26 3.26 0 0 0 .29.53l.54.79.53-.79a3.43 3.43 0 0 0 .29-.53h1.09c-.22.29-.34.44-.45.6l-.95 1.32 1 1.43c.1.14.33.44.52.67zM38.91 169.31a3.74 3.74 0 0 0-.33-.57l-.61-.9-.63.94a3.76 3.76 0 0 0-.3.53h-1.13l.49-.63 1.05-1.47-1-1.33-.45-.59h1.09a3.26 3.26 0 0 0 .29.53l.54.79.53-.79a3.43 3.43 0 0 0 .29-.53h1.09c-.22.29-.34.44-.45.6l-.95 1.32 1 1.43c.1.14.33.44.52.67zM43.22 169.31a3.74 3.74 0 0 0-.33-.57l-.61-.9-.63.94a3.76 3.76 0 0 0-.3.53h-1.12l.49-.63 1.05-1.47-1-1.33-.45-.59h1.09a3.26 3.26 0 0 0 .29.53l.54.79.53-.79a3.43 3.43 0 0 0 .29-.53h1.09c-.22.29-.34.44-.45.6l-.95 1.32 1 1.43c.1.14.33.44.52.67zM47.54 169.31a3.74 3.74 0 0 0-.33-.57l-.61-.9-.63.94a3.76 3.76 0 0 0-.3.53h-1.12l.49-.63 1.05-1.47-1-1.33-.45-.59h1.09a3.26 3.26 0 0 0 .29.53l.54.79.53-.79a3.43 3.43 0 0 0 .29-.53h1.09c-.22.29-.34.44-.45.6l-.95 1.32 1 1.43c.1.14.33.44.52.67zM51.86 169.31a3.74 3.74 0 0 0-.33-.57l-.61-.9-.63.94a3.76 3.76 0 0 0-.3.53h-1.13l.49-.63 1.05-1.47-1-1.33-.45-.59h1.15a3.26 3.26 0 0 0 .29.53l.54.79.53-.79a3.43 3.43 0 0 0 .29-.53h1.09c-.22.29-.34.44-.45.6l-.95 1.32 1 1.43c.1.14.33.44.52.67zM56.18 169.31a3.74 3.74 0 0 0-.33-.57l-.61-.9-.63.94a3.76 3.76 0 0 0-.3.53h-1.13l.49-.63 1.05-1.47-1-1.33-.45-.59h1.09a3.26 3.26 0 0 0 .29.53l.54.79.53-.79a3.43 3.43 0 0 0 .29-.53h1.09c-.22.29-.34.44-.45.6l-.95 1.32 1 1.43c.1.14.33.44.52.67zM60.5 169.31a3.74 3.74 0 0 0-.33-.57l-.61-.9-.63.94a3.76 3.76 0 0 0-.3.53H57.5l.49-.63 1.01-1.47-1-1.33-.45-.59h1.09a3.26 3.26 0 0 0 .29.53l.54.79.53-.79a3.43 3.43 0 0 0 .29-.53h1.09c-.22.29-.34.44-.45.6l-.95 1.32 1 1.43c.1.14.33.44.52.67zM64.82 169.31a3.74 3.74 0 0 0-.33-.57l-.61-.9-.63.94a3.76 3.76 0 0 0-.3.53h-1.13l.49-.63 1.05-1.47-1-1.33-.45-.59H63a3.26 3.26 0 0 0 .29.53l.54.79.53-.79a3.43 3.43 0 0 0 .29-.53h1.15c-.22.29-.34.44-.45.6l-.95 1.32 1 1.43c.1.14.33.44.52.67zM69.14 169.31a3.74 3.74 0 0 0-.33-.57l-.61-.9-.63.94a3.76 3.76 0 0 0-.3.53h-1.13l.49-.63 1.05-1.47-1-1.33-.45-.59h1.09a3.26 3.26 0 0 0 .29.53l.54.79.53-.79a3.43 3.43 0 0 0 .29-.53h1.09c-.22.29-.34.44-.45.6l-.95 1.32 1 1.43c.1.14.33.44.52.67zM73.46 169.31a3.74 3.74 0 0 0-.33-.57l-.61-.9-.63.94a3.76 3.76 0 0 0-.3.53h-1.13l.49-.63 1.05-1.47-1-1.33-.45-.59h1.09a3.26 3.26 0 0 0 .29.53l.54.79.53-.79a3.43 3.43 0 0 0 .29-.53h1.09c-.22.29-.34.44-.45.6l-.93 1.32 1 1.43c.1.14.33.44.52.67zM77.78 169.31a3.74 3.74 0 0 0-.33-.57l-.61-.9-.63.94a3.76 3.76 0 0 0-.3.53h-1.13l.49-.63 1.05-1.47-1-1.33-.45-.59H76a3.26 3.26 0 0 0 .29.53l.54.79.53-.79a3.43 3.43 0 0 0 .29-.53h1.09c-.22.29-.34.44-.45.6l-.95 1.32 1 1.43c.1.14.33.44.52.67zM82.09 169.31a3.74 3.74 0 0 0-.33-.57l-.61-.9-.63.94a3.76 3.76 0 0 0-.3.53H79.1l.49-.63 1.05-1.47-1-1.33-.45-.59h1.09a3.26 3.26 0 0 0 .29.53l.54.79.53-.79a3.43 3.43 0 0 0 .29-.53h1.09c-.22.29-.34.44-.45.6l-.95 1.32 1 1.43c.1.14.33.44.52.67zM86.41 169.31a3.74 3.74 0 0 0-.33-.57l-.61-.9-.63.94a3.76 3.76 0 0 0-.3.53h-1.12l.49-.63 1.09-1.47-1-1.33-.45-.59h1.09a3.26 3.26 0 0 0 .29.53l.54.79.53-.79a3.43 3.43 0 0 0 .29-.53h1.09c-.22.29-.34.44-.45.6l-.93 1.32 1 1.43c.1.14.33.44.52.67zM90.73 169.31a3.74 3.74 0 0 0-.33-.57l-.61-.9-.63.94a3.76 3.76 0 0 0-.3.53h-1.13l.49-.63 1.05-1.47-1-1.33-.45-.59H89a3.26 3.26 0 0 0 .29.53l.54.79.53-.79a3.43 3.43 0 0 0 .29-.53h1.09c-.22.29-.34.44-.45.6l-.95 1.32 1 1.43c.1.14.33.44.52.67zM95.05 169.31a3.74 3.74 0 0 0-.33-.57l-.61-.9-.63.94a3.76 3.76 0 0 0-.3.53h-1.13l.49-.63 1.05-1.47-1-1.33-.45-.59h1.09a3.26 3.26 0 0 0 .29.53l.54.79.53-.79a3.43 3.43 0 0 0 .29-.53H96c-.22.29-.34.44-.45.6l-.95 1.32 1 1.43c.1.14.33.44.52.67z"/><path class="cls-7" d="M51.79 16.96h19.87"/><circle class="cls-8" cx="61.72" cy="240.34" r="9.13"/><path d="M60 68.06l27.5 27.5-5.16 5.16-5.14-5.16v22.34H63.45v-10.31h-6.87v10.31H42.83V95.56l-5.16 5.16-5.16-5.16zm0 22.34a3.39 3.39 0 1 0-2.44-1 3.32 3.32 0 0 0 2.44 1z"/><rect class="cls-9" x="66.58" y="34.2" width="92.29" height="142.14" rx="11.44" ry="11.44"/><rect class="cls-4" x="73.04" y="155.11" width="79.37" height="14" rx="7" ry="7"/><path class="cls-5" d="M102 163a2.75 2.75 0 0 0-.18-.54l-.58-1.37a4.44 4.44 0 0 1-.2-.61v1.94a3.6 3.6 0 0 0 0 .58h-.56a3.75 3.75 0 0 0 0-.58v-2a4 4 0 0 0 0-.59h.73a2.73 2.73 0 0 0 .15.48l.81 2 .81-2a2.24 2.24 0 0 0 .14-.48h.88a4.13 4.13 0 0 0 0 .59v2a3.47 3.47 0 0 0 0 .58h-.56a3.66 3.66 0 0 0 0-.58v-1.33-.61a4.94 4.94 0 0 1-.18.58l-.6 1.41a3.27 3.27 0 0 0-.18.53zM107 160.18a1.73 1.73 0 0 1 .45 1.25 1.5 1.5 0 1 1-3 0 1.71 1.71 0 0 1 .46-1.25 1.39 1.39 0 0 1 1-.4 1.4 1.4 0 0 1 1.09.4zm-.11 1.25a1.29 1.29 0 0 0-.32-.93.86.86 0 0 0-.62-.24c-.58 0-.94.46-.94 1.18a1.32 1.32 0 0 0 .32.94.86.86 0 0 0 .62.24c.55 0 .9-.45.9-1.19zM109.91 163a3.31 3.31 0 0 0-.21-.64c-.22-.55-.36-.7-.66-.7h-.6v.82a3.13 3.13 0 0 0 0 .52h-.6a3.13 3.13 0 0 0 0-.52v-2.16a3.57 3.57 0 0 0 0-.52h1.47c.61 0 1 .3 1 .83a.82.82 0 0 1-.2.6.84.84 0 0 1-.44.23c.25.08.33.19.72 1.13l.19.4zm-.66-1.79a.54.54 0 0 0 .38-.14.48.48 0 0 0 .13-.35c0-.29-.16-.44-.49-.44h-.82v.93zM113.25 163.06a3.35 3.35 0 0 0-.52 0H111a3.28 3.28 0 0 0 0-.53v-2.16a3.62 3.62 0 0 0 0-.52h1.71a4.36 4.36 0 0 0 .52 0v.53a3.65 3.65 0 0 0-.52 0h-1.15v.82h1a4.06 4.06 0 0 0 .52 0v.52a3.08 3.08 0 0 0-.52 0h-1v.94h1.2a3.74 3.74 0 0 0 .51 0zM115.65 159.85a2.93 2.93 0 0 0 0 .52v2.15a3 3 0 0 0 0 .52H115a3 3 0 0 0 0-.52v-2.15a2.93 2.93 0 0 0 0-.52zM118.3 163a3.85 3.85 0 0 0-.26-.43L117 161c-.08-.12-.18-.29-.27-.48v1.86a4.49 4.49 0 0 0 0 .6h-.58a4.24 4.24 0 0 0 0-.6v-2.06a3.27 3.27 0 0 0 0-.52h.62a2.2 2.2 0 0 0 .24.42l1 1.52c.1.14.22.35.31.51v-1.85a3.43 3.43 0 0 0 0-.55h.58a3.55 3.55 0 0 0 0 .55v2.12a3.07 3.07 0 0 0 0 .52zM120.07 162.45a3.52 3.52 0 0 0 0 .58h-.6a3.32 3.32 0 0 0 0-.57v-2.11a3.4 3.4 0 0 0 0-.52h1.63a4.15 4.15 0 0 0 .55 0v.54a3.72 3.72 0 0 0-.55 0h-1.06v.85h.86a3.84 3.84 0 0 0 .54 0v.53a3.81 3.81 0 0 0-.54 0h-.86zM124.51 160.18a1.73 1.73 0 0 1 .45 1.25 1.5 1.5 0 1 1-3 0 1.71 1.71 0 0 1 .46-1.25 1.39 1.39 0 0 1 1-.4 1.4 1.4 0 0 1 1.09.4zm-.11 1.25a1.29 1.29 0 0 0-.32-.93.86.86 0 0 0-.62-.24c-.58 0-.94.46-.94 1.18a1.32 1.32 0 0 0 .32.94.86.86 0 0 0 .62.24c.54 0 .94-.45.94-1.19z"/><path class="cls-6" d="M84.6 113.06a3.74 3.74 0 0 0-.33-.57l-.61-.9-.63.94a3.76 3.76 0 0 0-.3.53H81.6l.49-.63 1.05-1.43-1-1.33-.45-.59h1.09a3.26 3.26 0 0 0 .29.53l.54.79.53-.79a3.43 3.43 0 0 0 .29-.53h1.09c-.22.29-.34.44-.45.6l-.89 1.32 1 1.43c.1.14.33.44.52.67zM88.92 113.06a3.74 3.74 0 0 0-.33-.57l-.61-.9-.63.94a3.76 3.76 0 0 0-.3.53h-1.13l.49-.63 1.05-1.43-1-1.33-.45-.59h1.09a3.26 3.26 0 0 0 .29.53l.54.79.53-.79a3.43 3.43 0 0 0 .29-.53h1.15c-.22.29-.34.44-.45.6L88.5 111l1 1.43c.1.14.33.44.52.67zM93.23 113.06a3.74 3.74 0 0 0-.33-.57l-.61-.9-.63.94a3.76 3.76 0 0 0-.3.53h-1.12l.49-.63 1.05-1.43-1-1.33-.45-.59h1.09a3.26 3.26 0 0 0 .29.53l.54.79.53-.79a3.43 3.43 0 0 0 .29-.53h1.09c-.22.29-.34.44-.45.6l-.89 1.32 1 1.43c.1.14.33.44.52.67zM97.55 113.06a3.74 3.74 0 0 0-.33-.57l-.61-.9-.63.94a3.76 3.76 0 0 0-.3.53h-1.12l.49-.63L96.1 111l-1-1.33-.4-.67h1.09a3.26 3.26 0 0 0 .29.53l.54.79.53-.79a3.43 3.43 0 0 0 .29-.53h1.09c-.22.29-.34.44-.45.6l-.94 1.4 1 1.43c.1.14.33.44.52.67zM101.87 113.06a3.74 3.74 0 0 0-.33-.57l-.61-.9-.63.94a3.76 3.76 0 0 0-.3.53h-1.13l.49-.63 1.05-1.47-1-1.33L99 109h1.09a3.26 3.26 0 0 0 .29.53l.54.79.53-.79a3.43 3.43 0 0 0 .29-.53h1.09c-.22.29-.34.44-.45.6l-.95 1.32 1 1.43c.1.14.33.44.52.67zM106.19 113.06a3.74 3.74 0 0 0-.33-.57l-.61-.9-.63.94a3.76 3.76 0 0 0-.3.53h-1.13l.49-.63 1.05-1.47-1-1.33-.45-.59h1.09a3.26 3.26 0 0 0 .29.53l.54.79.53-.79a3.43 3.43 0 0 0 .29-.53h1.09c-.22.29-.34.44-.45.6l-.95 1.32 1 1.43c.1.14.33.44.52.67zM110.51 113.06a3.78 3.78 0 0 0-.33-.57l-.61-.9-.63.94a3.76 3.76 0 0 0-.3.53h-1.13l.49-.63 1.05-1.47-1-1.33-.45-.59h1.09a3.23 3.23 0 0 0 .29.53l.54.79.53-.79a3.46 3.46 0 0 0 .29-.53h1.09c-.22.29-.34.44-.45.6l-.88 1.36 1 1.43c.1.14.33.44.52.67zM114.83 113.06a3.7 3.7 0 0 0-.33-.57l-.61-.9-.63.94a3.76 3.76 0 0 0-.3.53h-1.13l.49-.63 1-1.47-1-1.33-.32-.63h1.09a3.26 3.26 0 0 0 .29.53l.54.79.53-.79a3.39 3.39 0 0 0 .29-.53h1.08c-.22.29-.34.44-.45.6l-.95 1.32 1 1.43c.1.14.33.44.52.67zM119.15 113.06a3.78 3.78 0 0 0-.33-.57l-.61-.9-.63.94a3.76 3.76 0 0 0-.3.53h-1.13l.49-.63 1.05-1.47-1-1.33-.45-.59h1.09a3.27 3.27 0 0 0 .29.53l.54.79.53-.79a3.46 3.46 0 0 0 .31-.57h1.09c-.22.29-.34.44-.45.6l-.95 1.32 1 1.43c.1.14.33.44.52.67zM123.47 113.06a3.7 3.7 0 0 0-.33-.57l-.61-.9-.63.94a3.76 3.76 0 0 0-.3.53h-1.13l.49-.63 1-1.47-1-1.33-.45-.59h1.09a3.26 3.26 0 0 0 .29.53l.54.79.53-.79a3.39 3.39 0 0 0 .29-.53h1.08c-.22.29-.34.44-.45.6l-.95 1.32 1 1.43c.1.14.33.44.52.67zM127.79 113.06a3.78 3.78 0 0 0-.33-.57l-.61-.9-.63.94a3.76 3.76 0 0 0-.3.53h-1.13l.49-.63 1.05-1.47-1-1.33-.45-.59H126a3.27 3.27 0 0 0 .29.53l.54.79.53-.79a3.46 3.46 0 0 0 .29-.53h1.09c-.22.29-.34.44-.45.6l-.95 1.32 1 1.43c.1.14.33.44.52.67zM132.1 113.06a3.7 3.7 0 0 0-.33-.57l-.61-.9-.63.94a3.76 3.76 0 0 0-.3.53h-1.13l.49-.63 1-1.47-1-1.33-.45-.59h1.09a3.26 3.26 0 0 0 .29.53l.54.79.53-.79a3.39 3.39 0 0 0 .41-.57h1.08c-.22.29-.34.44-.45.6l-.95 1.32 1 1.43c.1.14.33.44.52.67zM136.42 113.06a3.78 3.78 0 0 0-.33-.57l-.61-.9-.63.94a3.76 3.76 0 0 0-.3.53h-1.13l.49-.63L135 111l-1-1.33-.45-.59h1.09a3.27 3.27 0 0 0 .29.53l.54.79.53-.79a3.46 3.46 0 0 0 .29-.53h1.09c-.22.29-.34.44-.45.6L136 111l1 1.43c.1.14.33.44.52.67zM140.74 113.06a3.7 3.7 0 0 0-.33-.57l-.61-.9-.63.94a3.76 3.76 0 0 0-.3.53h-1.13l.49-.63 1-1.47-1-1.33-.45-.59H139a3.26 3.26 0 0 0 .29.53l.54.79.53-.79a3.39 3.39 0 0 0 .29-.53h1.08c-.22.29-.34.44-.45.6l-.95 1.32 1 1.43c.1.14.33.44.52.67zM145.06 113.06a3.78 3.78 0 0 0-.33-.57l-.61-.9-.63.94a3.76 3.76 0 0 0-.3.53h-1.13l.49-.63 1.05-1.43-1-1.33-.45-.59h1.09a3.27 3.27 0 0 0 .29.53l.54.79.53-.79a3.46 3.46 0 0 0 .4-.61h1c-.22.29-.34.44-.45.6l-.95 1.32 1 1.43c.1.14.33.44.52.67zM81.27 133.06a3.74 3.74 0 0 0-.33-.57l-.61-.9-.63.94a3.76 3.76 0 0 0-.3.53h-1.13l.49-.63 1.05-1.43-1-1.33-.45-.59h1.14a3.26 3.26 0 0 0 .29.53l.54.79.53-.79a3.43 3.43 0 0 0 .29-.53h1.09c-.22.29-.34.44-.45.6l-.93 1.32 1 1.43c.1.14.33.44.52.67zM85.59 133.06a3.74 3.74 0 0 0-.33-.57l-.61-.9-.63.94a3.76 3.76 0 0 0-.3.53h-1.13l.49-.63 1.05-1.43-1-1.33-.45-.59h1.09a3.26 3.26 0 0 0 .29.53l.54.79.53-.79a3.43 3.43 0 0 0 .29-.53h1.09c-.22.29-.34.44-.45.6l-.89 1.32 1 1.43c.1.14.33.44.52.67zM89.91 133.06a3.74 3.74 0 0 0-.33-.57l-.61-.9-.63.94a3.76 3.76 0 0 0-.3.53h-1.13l.49-.63 1.05-1.43-1-1.33L87 129h1.09a3.26 3.26 0 0 0 .29.53l.54.79.53-.79a3.43 3.43 0 0 0 .29-.53h1.09c-.22.29-.34.44-.45.6l-.89 1.4 1 1.43c.1.14.33.44.52.67zM94.22 133.06a3.74 3.74 0 0 0-.33-.57l-.61-.9-.63.94a3.76 3.76 0 0 0-.3.53h-1.12l.49-.63 1.05-1.43-1-1.33-.45-.59h1.09a3.26 3.26 0 0 0 .29.53l.54.79.53-.79a3.43 3.43 0 0 0 .29-.53h1.09c-.22.29-.34.44-.45.6l-.89 1.32 1 1.43c.1.14.33.44.52.67zM98.54 133.06a3.74 3.74 0 0 0-.33-.57l-.61-.9-.63.94a3.76 3.76 0 0 0-.3.53h-1.12l.49-.63 1.05-1.43-1-1.33-.45-.59h1.09a3.26 3.26 0 0 0 .29.53l.54.79.53-.79a3.43 3.43 0 0 0 .29-.53h1.09c-.22.29-.34.44-.45.6l-.89 1.32 1 1.43c.1.14.33.44.52.67zM102.86 133.06a3.74 3.74 0 0 0-.33-.57l-.61-.9-.63.94a3.76 3.76 0 0 0-.3.53h-1.13l.49-.63 1.05-1.47-1-1.33-.4-.63h1.09a3.26 3.26 0 0 0 .29.53l.54.79.53-.79a3.43 3.43 0 0 0 .29-.53h1.09c-.22.29-.34.44-.45.6l-.95 1.32 1 1.43c.1.14.33.44.52.67zM107.18 133.06a3.74 3.74 0 0 0-.33-.57l-.61-.9-.63.94a3.76 3.76 0 0 0-.3.53h-1.13l.49-.63 1.05-1.47-1-1.33-.45-.59h1.09a3.26 3.26 0 0 0 .29.53l.54.79.53-.79a3.43 3.43 0 0 0 .29-.53h1.09c-.22.29-.34.44-.45.6l-.95 1.32 1 1.43c.1.14.33.44.52.67zM111.5 133.06a3.7 3.7 0 0 0-.33-.57l-.61-.9-.63.94a3.76 3.76 0 0 0-.3.53h-1.13l.49-.63 1-1.47-1-1.33-.45-.59h1.09a3.26 3.26 0 0 0 .29.53l.54.79.53-.79a3.39 3.39 0 0 0 .29-.53h1.08c-.22.29-.34.44-.45.6l-.95 1.32 1 1.43c.1.14.33.44.52.67zM115.82 133.06a3.78 3.78 0 0 0-.33-.57l-.61-.9-.63.94a3.76 3.76 0 0 0-.3.53h-1.13l.49-.63 1.05-1.47-1-1.33-.36-.63h1.09a3.27 3.27 0 0 0 .29.53l.54.79.53-.79a3.46 3.46 0 0 0 .29-.53h1.09c-.22.29-.34.44-.45.6l-.95 1.32 1 1.43c.1.14.33.44.52.67zM120.14 133.06a3.7 3.7 0 0 0-.33-.57l-.61-.9-.63.94a3.76 3.76 0 0 0-.3.53h-1.13l.49-.63 1-1.47-1-1.33-.45-.59h1.09a3.26 3.26 0 0 0 .29.53l.54.79.53-.79a3.39 3.39 0 0 0 .37-.57h1.08c-.22.29-.34.44-.45.6l-.95 1.32 1 1.43c.1.14.33.44.52.67zM124.46 133.06a3.78 3.78 0 0 0-.33-.57l-.61-.9-.63.94a3.76 3.76 0 0 0-.3.53h-1.13l.49-.63L123 131l-1-1.33-.45-.59h1.09a3.27 3.27 0 0 0 .29.53l.54.79.53-.79a3.46 3.46 0 0 0 .29-.53h1.09c-.22.29-.34.44-.45.6L124 131l1 1.43c.1.14.33.44.52.67zM128.78 133.06a3.7 3.7 0 0 0-.33-.57l-.61-.9-.63.94a3.76 3.76 0 0 0-.3.53h-1.13l.49-.63 1-1.47-1-1.33-.45-.59H127a3.26 3.26 0 0 0 .29.53l.54.79.53-.79a3.39 3.39 0 0 0 .29-.53h1.08c-.22.29-.34.44-.45.6l-.95 1.32 1 1.43c.1.14.33.44.52.67zM133.09 133.06a3.78 3.78 0 0 0-.33-.57l-.61-.9-.63.94a3.76 3.76 0 0 0-.3.53h-1.12l.49-.63 1.05-1.47-1-1.33-.45-.59h1.09a3.27 3.27 0 0 0 .29.53l.54.79.53-.79a3.46 3.46 0 0 0 .36-.57h1.09c-.22.29-.34.44-.45.6l-.95 1.32 1 1.43c.1.14.33.44.52.67zM137.41 133.06a3.7 3.7 0 0 0-.33-.57l-.61-.9-.63.94a3.76 3.76 0 0 0-.3.53h-1.13l.49-.63 1-1.47-1-1.33-.45-.59h1.09a3.26 3.26 0 0 0 .29.53l.54.79.53-.79a3.39 3.39 0 0 0 .29-.53h1.08c-.22.29-.34.44-.45.6L137 131l1 1.43c.1.14.33.44.52.67zM141.73 133.06a3.78 3.78 0 0 0-.33-.57l-.61-.9-.63.94a3.76 3.76 0 0 0-.3.53h-1.13l.49-.63 1.05-1.47-1-1.33-.45-.59H140a3.27 3.27 0 0 0 .29.53l.54.79.53-.79a3.46 3.46 0 0 0 .29-.53h1.09c-.22.29-.34.44-.45.6l-.95 1.32 1 1.43c.1.14.33.44.52.67zM146.05 133.06a3.7 3.7 0 0 0-.33-.57l-.61-.9-.63.94a3.76 3.76 0 0 0-.3.53h-1.13l.49-.63 1-1.47-1-1.33-.45-.59h1.09a3.26 3.26 0 0 0 .29.53l.54.79.53-.79a3.39 3.39 0 0 0 .29-.53H147c-.22.29-.34.44-.45.6l-.95 1.32 1 1.43c.1.14.33.44.52.67zM81.27 145.31a3.74 3.74 0 0 0-.33-.57l-.61-.9-.63.94a3.76 3.76 0 0 0-.3.53h-1.13l.49-.63 1.05-1.47-1-1.33-.45-.59h1.14a3.26 3.26 0 0 0 .29.53l.54.79.53-.79a3.43 3.43 0 0 0 .29-.53h1.09c-.22.29-.34.44-.45.6l-.95 1.32 1 1.43c.1.14.33.44.52.67zM85.59 145.31a3.74 3.74 0 0 0-.33-.57l-.61-.9-.63.94a3.76 3.76 0 0 0-.3.53h-1.13l.49-.63 1.05-1.47-1-1.33-.45-.59h1.09a3.26 3.26 0 0 0 .29.53l.54.79.53-.79a3.43 3.43 0 0 0 .29-.53h1.09c-.22.29-.34.44-.45.6l-.95 1.32 1 1.43c.1.14.33.44.52.67zM89.91 145.31a3.74 3.74 0 0 0-.33-.57l-.61-.9-.63.94a3.76 3.76 0 0 0-.3.53h-1.13l.49-.63 1.05-1.47-1-1.33-.45-.59h1.09a3.26 3.26 0 0 0 .29.53l.54.79.53-.79a3.43 3.43 0 0 0 .29-.53h1.09c-.22.29-.34.44-.45.6l-.95 1.32 1 1.43c.1.14.33.44.52.67zM94.22 145.31a3.74 3.74 0 0 0-.33-.57l-.61-.9-.63.94a3.76 3.76 0 0 0-.3.53h-1.12l.49-.63 1.05-1.47-1-1.33-.45-.59h1.09a3.26 3.26 0 0 0 .29.53l.54.79.53-.79a3.43 3.43 0 0 0 .29-.53h1.09c-.22.29-.34.44-.45.6l-.95 1.32 1 1.43c.1.14.33.44.52.67zM98.54 145.31a3.74 3.74 0 0 0-.33-.57l-.61-.9-.63.94a3.76 3.76 0 0 0-.3.53h-1.12l.49-.63 1.05-1.47-1-1.33-.45-.59h1.09a3.26 3.26 0 0 0 .29.53l.54.79.53-.79a3.43 3.43 0 0 0 .29-.53h1.09c-.22.29-.34.44-.45.6l-.95 1.32 1 1.43c.1.14.33.44.52.67zM102.86 145.31a3.74 3.74 0 0 0-.33-.57l-.61-.9-.63.94a3.76 3.76 0 0 0-.3.53h-1.13l.49-.63 1.05-1.47-1-1.33-.45-.59h1.09a3.26 3.26 0 0 0 .29.53l.54.79.53-.79a3.43 3.43 0 0 0 .29-.53h1.09c-.22.29-.34.44-.45.6l-.95 1.32 1 1.43c.1.14.33.44.52.67zM107.18 145.31a3.74 3.74 0 0 0-.33-.57l-.61-.9-.63.94a3.76 3.76 0 0 0-.3.53h-1.13l.49-.63 1.05-1.47-1-1.33-.45-.59h1.09a3.26 3.26 0 0 0 .29.53l.54.79.53-.79a3.43 3.43 0 0 0 .29-.53h1.09c-.22.29-.34.44-.45.6l-.95 1.32 1 1.43c.1.14.33.44.52.67zM111.5 145.31a3.7 3.7 0 0 0-.33-.57l-.61-.9-.63.94a3.76 3.76 0 0 0-.3.53h-1.13l.49-.63 1-1.47-1-1.33-.45-.59h1.09a3.26 3.26 0 0 0 .29.53l.54.79.53-.79a3.39 3.39 0 0 0 .29-.53h1.08c-.22.29-.34.44-.45.6l-.95 1.32 1 1.43c.1.14.33.44.52.67zM115.82 145.31a3.78 3.78 0 0 0-.33-.57l-.61-.9-.63.94a3.76 3.76 0 0 0-.3.53h-1.13l.49-.63 1.05-1.47-1-1.33-.45-.59H114a3.27 3.27 0 0 0 .29.53l.54.79.53-.79a3.46 3.46 0 0 0 .29-.53h1.09c-.22.29-.34.44-.45.6l-.95 1.32 1 1.43c.1.14.33.44.52.67zM120.14 145.31a3.7 3.7 0 0 0-.33-.57l-.61-.9-.63.94a3.76 3.76 0 0 0-.3.53h-1.13l.49-.63 1-1.47-1-1.33-.45-.59h1.09a3.26 3.26 0 0 0 .29.53l.54.79.53-.79a3.39 3.39 0 0 0 .29-.53H121c-.22.29-.34.44-.45.6l-.95 1.32 1 1.43c.1.14.33.44.52.67zM124.46 145.31a3.78 3.78 0 0 0-.33-.57l-.61-.9-.63.94a3.76 3.76 0 0 0-.3.53h-1.13l.49-.63 1.05-1.47-1-1.33-.45-.59h1.09a3.27 3.27 0 0 0 .29.53l.54.79.53-.79a3.46 3.46 0 0 0 .29-.53h1.09c-.22.29-.34.44-.45.6l-.95 1.32 1 1.43c.1.14.33.44.52.67zM128.78 145.31a3.7 3.7 0 0 0-.33-.57l-.61-.9-.63.94a3.76 3.76 0 0 0-.3.53h-1.13l.49-.63 1-1.47-1-1.33-.45-.59H127a3.26 3.26 0 0 0 .29.53l.54.79.53-.79a3.39 3.39 0 0 0 .29-.53h1.08c-.22.29-.34.44-.45.6l-.95 1.32 1 1.43c.1.14.33.44.52.67zM133.09 145.31a3.78 3.78 0 0 0-.33-.57l-.61-.9-.63.94a3.76 3.76 0 0 0-.3.53h-1.12l.49-.63 1.05-1.47-1-1.33-.45-.59h1.09a3.27 3.27 0 0 0 .29.53l.54.79.53-.79a3.46 3.46 0 0 0 .29-.53h1.09c-.22.29-.34.44-.45.6l-.95 1.32 1 1.43c.1.14.33.44.52.67zM137.41 145.31a3.7 3.7 0 0 0-.33-.57l-.61-.9-.63.94a3.76 3.76 0 0 0-.3.53h-1.13l.49-.63 1-1.47-1-1.33-.45-.59h1.09a3.26 3.26 0 0 0 .29.53l.54.79.53-.79a3.39 3.39 0 0 0 .29-.53h1.08c-.22.29-.34.44-.45.6l-.95 1.32 1 1.43c.1.14.33.44.52.67zM141.73 145.31a3.78 3.78 0 0 0-.33-.57l-.61-.9-.63.94a3.76 3.76 0 0 0-.3.53h-1.13l.49-.63 1.05-1.47-1-1.33-.45-.59H140a3.27 3.27 0 0 0 .29.53l.54.79.53-.79a3.46 3.46 0 0 0 .29-.53h1.09c-.22.29-.34.44-.45.6l-.95 1.32 1 1.43c.1.14.33.44.52.67zM146.05 145.31a3.7 3.7 0 0 0-.33-.57l-.61-.9-.63.94a3.76 3.76 0 0 0-.3.53h-1.13l.49-.63 1-1.47-1-1.33-.45-.59h1.09a3.26 3.26 0 0 0 .29.53l.54.79.53-.79a3.39 3.39 0 0 0 .29-.53H147c-.22.29-.34.44-.45.6l-.95 1.32 1 1.43c.1.14.33.44.52.67z"/><path class="cls-5" d="M125 59.53h10.1v13.75h-3.44v24.06H90.39V73.28H87V59.53h11.61a23.31 23.31 0 0 1-2-1.29 18.36 18.36 0 0 1-1.83-1.5 8.57 8.57 0 0 1-2.55-5.45A6.3 6.3 0 0 1 94 46.15a6.39 6.39 0 0 1 2.09-1.32 6.66 6.66 0 0 1 2.42-.46 7.94 7.94 0 0 1 3.17.67 9.13 9.13 0 0 1 2.85 2 16.65 16.65 0 0 1 3.76 5.61 36.79 36.79 0 0 1 1.93 5.88 47.67 47.67 0 0 1 2.5-6 23 23 0 0 1 4.27-6 13.19 13.19 0 0 1 3.73-2.58 9.63 9.63 0 0 1 4-.91 7.32 7.32 0 0 1 2.6.46 5.44 5.44 0 0 1 2.07 1.37 6.18 6.18 0 0 1 1.61 2.68 7.61 7.61 0 0 1 .1 3.45 11.66 11.66 0 0 1-1.18 3.28 12.47 12.47 0 0 1-2.2 3 17.16 17.16 0 0 1-1.34 1.21zm-17.4 10.31V63H90.39v6.88zm0 24.06V71.56H93.83V93.9zM96.08 51a4.25 4.25 0 0 0 .43 1.58 5.19 5.19 0 0 0 1 1.42 15 15 0 0 0 3.52 2.44 24.74 24.74 0 0 0 4.86 1.85.18.18 0 0 0 .13.05.44.44 0 0 1 .19.05l-.08-.16a.38.38 0 0 1 0-.16 24.89 24.89 0 0 0-1.85-4.86 14.17 14.17 0 0 0-2.5-3.52 5.09 5.09 0 0 0-1.56-1.07 4.27 4.27 0 0 0-1.72-.38 3.28 3.28 0 0 0-.86.13 2.34 2.34 0 0 0-.91.51 2.3 2.3 0 0 0-.59 1.12 3.1 3.1 0 0 0-.06 1zm23.63-1.77a19.47 19.47 0 0 0-3.6 5.13 41.25 41.25 0 0 0-2.11 5.17h2.74a36.38 36.38 0 0 0 4.27-2 17.88 17.88 0 0 0 4-3 8.06 8.06 0 0 0 2.23-3.81 3 3 0 0 0-.56-3.12 2.07 2.07 0 0 0-1-.56 4.07 4.07 0 0 0-1-.13 6 6 0 0 0-2.55.62 8.67 8.67 0 0 0-2.41 1.68zm11.92 20.63V63h-17.18v6.88zM128.2 93.9V71.56h-13.75V93.9z"/><rect class="cls-10" x="113.61" y="12.2" width="92.29" height="142.14" rx="11.44" ry="11.44"/><rect class="cls-4" x="120.07" y="133.11" width="79.37" height="14" rx="7" ry="7"/><path class="cls-5" d="M149.07 141a2.78 2.78 0 0 0-.18-.54l-.58-1.37a4.52 4.52 0 0 1-.2-.61v1.94a3.6 3.6 0 0 0 0 .58h-.56a3.81 3.81 0 0 0 0-.58v-2a4 4 0 0 0 0-.59h.73a2.77 2.77 0 0 0 .15.48l.81 2 .81-2a2.3 2.3 0 0 0 .14-.48h.81a4.2 4.2 0 0 0 0 .59v2a3.52 3.52 0 0 0 0 .58h-.56a3.66 3.66 0 0 0 0-.58v-1.33-.61a4.93 4.93 0 0 1-.18.58l-.6 1.41a3.26 3.26 0 0 0-.18.53zM154 138.18a1.73 1.73 0 0 1 .45 1.25 1.5 1.5 0 1 1-3 0 1.71 1.71 0 0 1 .46-1.25 1.39 1.39 0 0 1 1-.4 1.4 1.4 0 0 1 1.09.4zm-.11 1.25a1.29 1.29 0 0 0-.32-.93.86.86 0 0 0-.62-.24c-.58 0-.94.46-.94 1.18a1.32 1.32 0 0 0 .32.94.86.86 0 0 0 .62.24c.58 0 .94-.45.94-1.19zM156.95 141a3.31 3.31 0 0 0-.21-.64c-.22-.55-.36-.7-.66-.7h-.6v.82a3.07 3.07 0 0 0 0 .52h-.6a3.18 3.18 0 0 0 0-.52v-2.16a3.64 3.64 0 0 0 0-.52h1.47c.61 0 1 .3 1 .83a.82.82 0 0 1-.2.6.84.84 0 0 1-.44.23c.25.08.33.19.72 1.13l.19.4zm-.66-1.79a.54.54 0 0 0 .38-.14.48.48 0 0 0 .13-.35c0-.29-.16-.44-.49-.44h-.82v.93zM160.28 141.06a3.35 3.35 0 0 0-.52 0H158a3.28 3.28 0 0 0 0-.53v-2.16a3.62 3.62 0 0 0 0-.52h1.71a4.36 4.36 0 0 0 .52 0v.53a3.65 3.65 0 0 0-.52 0h-1.15v.82h1a4.06 4.06 0 0 0 .52 0v.52a3.08 3.08 0 0 0-.52 0h-1v.94h1.2a3.74 3.74 0 0 0 .51 0zM162.69 137.85a2.93 2.93 0 0 0 0 .52v2.15a3 3 0 0 0 0 .52h-.61a3 3 0 0 0 0-.52v-2.15a2.93 2.93 0 0 0 0-.52zM165.33 141a3.85 3.85 0 0 0-.26-.43L164 139c-.08-.12-.18-.29-.27-.48v1.86a4.49 4.49 0 0 0 0 .6h-.58a4.24 4.24 0 0 0 0-.6v-2.06a3.27 3.27 0 0 0 0-.52h.62a2.2 2.2 0 0 0 .24.42l1 1.52c.1.14.22.35.31.51v-1.85a3.43 3.43 0 0 0 0-.55h.68a3.55 3.55 0 0 0 0 .55v2.12a3.07 3.07 0 0 0 0 .52zM167.1 140.45a3.52 3.52 0 0 0 0 .58h-.6a3.32 3.32 0 0 0 0-.57v-2.11a3.4 3.4 0 0 0 0-.52h1.63a4.15 4.15 0 0 0 .55 0v.54a3.72 3.72 0 0 0-.55 0h-1.03v.85h.9a3.84 3.84 0 0 0 .54 0v.53a3.81 3.81 0 0 0-.54 0h-.86zM171.55 138.18a1.73 1.73 0 0 1 .45 1.25 1.5 1.5 0 1 1-3 0 1.71 1.71 0 0 1 .46-1.25 1.39 1.39 0 0 1 1-.4 1.4 1.4 0 0 1 1.09.4zm-.11 1.25a1.29 1.29 0 0 0-.32-.93.86.86 0 0 0-.62-.24c-.58 0-.94.46-.94 1.18a1.32 1.32 0 0 0 .32.94.86.86 0 0 0 .62.24c.58 0 .93-.45.93-1.19z"/><path class="cls-6" d="M130.46 91.06a3.78 3.78 0 0 0-.33-.57l-.61-.9-.63.94a3.76 3.76 0 0 0-.3.53h-1.13l.49-.63L129 89l-1-1.33-.4-.67h1.09a3.27 3.27 0 0 0 .29.53l.54.79.53-.79a3.46 3.46 0 0 0 .29-.53h1.09c-.22.29-.34.44-.45.6L130 89l1 1.43c.1.14.33.44.52.67zM134.78 91.06a3.7 3.7 0 0 0-.33-.57l-.61-.9-.63.94a3.76 3.76 0 0 0-.3.53h-1.13l.49-.63 1-1.47-1-1.33-.45-.59H133a3.26 3.26 0 0 0 .29.53l.54.79.53-.79a3.39 3.39 0 0 0 .29-.53h1.08c-.22.29-.34.44-.45.6l-.91 1.36 1 1.43c.1.14.33.44.52.67zM139.1 91.06a3.78 3.78 0 0 0-.33-.57l-.61-.9-.63.94a3.76 3.76 0 0 0-.3.53h-1.13l.49-.63 1.05-1.43-1-1.33-.45-.59h1.09a3.27 3.27 0 0 0 .29.53l.54.79.53-.79A3.46 3.46 0 0 0 139 87h1.09c-.22.29-.34.44-.45.6l-.96 1.4 1 1.43c.1.14.33.44.52.67zM143.42 91.06a3.7 3.7 0 0 0-.33-.57l-.61-.9-.63.94a3.76 3.76 0 0 0-.3.53h-1.13l.49-.63L142 89l-1-1.33-.45-.59h1.09a3.26 3.26 0 0 0 .29.53l.54.79.53-.79a3.39 3.39 0 0 0 .29-.53h1.08c-.22.29-.34.44-.45.6L143 89l1 1.43c.1.14.33.44.52.67zM147.74 91.06a3.78 3.78 0 0 0-.33-.57l-.61-.9-.63.94a3.76 3.76 0 0 0-.3.53h-1.13l.49-.63 1.05-1.43-1-1.33-.45-.59H146a3.27 3.27 0 0 0 .29.53l.54.79.53-.79a3.46 3.46 0 0 0 .29-.53h1.09c-.22.29-.34.44-.45.6l-.97 1.32 1 1.43c.1.14.33.44.52.67zM152.05 91.06a3.7 3.7 0 0 0-.33-.57l-.61-.9-.63.94a3.76 3.76 0 0 0-.3.53h-1.13l.49-.63 1-1.47-1-1.33-.34-.63h1.09a3.26 3.26 0 0 0 .29.53l.54.79.53-.79a3.39 3.39 0 0 0 .29-.53H153c-.22.29-.34.44-.45.6l-.91 1.4 1 1.43c.1.14.33.44.52.67zM156.37 91.06a3.78 3.78 0 0 0-.33-.57l-.61-.9-.63.94a3.76 3.76 0 0 0-.3.53h-1.13l.49-.63 1.06-1.43-1-1.33-.45-.59h1.09a3.27 3.27 0 0 0 .29.53l.54.79.53-.79a3.46 3.46 0 0 0 .29-.53h1.09c-.22.29-.34.44-.45.6L156 89l1 1.43c.1.14.33.44.52.67zM160.69 91.06a3.7 3.7 0 0 0-.33-.57l-.61-.9-.63.94a3.76 3.76 0 0 0-.3.53h-1.13l.49-.63 1-1.47-1-1.33-.45-.59h1.09a3.26 3.26 0 0 0 .29.53l.54.79.53-.79a3.39 3.39 0 0 0 .29-.53h1.08c-.22.29-.34.44-.45.6l-.82 1.36 1 1.43c.1.14.33.44.52.67zM165 91.06a3.78 3.78 0 0 0-.33-.57l-.61-.9-.63.94a3.76 3.76 0 0 0-.3.53H162l.49-.63 1.06-1.43-1-1.33-.45-.59h1.09a3.27 3.27 0 0 0 .29.53l.54.79.53-.79a3.46 3.46 0 0 0 .29-.53H166c-.22.29-.34.44-.45.6L164.6 89l1 1.43c.1.14.33.44.52.67zM169.33 91.06a3.7 3.7 0 0 0-.33-.57l-.61-.9-.63.94a3.76 3.76 0 0 0-.3.53h-1.13l.49-.63 1-1.47-1-1.33-.45-.59h1.09a3.26 3.26 0 0 0 .29.53l.54.79.53-.79a3.39 3.39 0 0 0 .29-.53h1.08c-.22.29-.34.44-.45.6l-.82 1.36 1 1.43c.1.14.33.44.52.67zM173.65 91.06a3.78 3.78 0 0 0-.33-.57l-.61-.9-.63.94a3.76 3.76 0 0 0-.3.53h-1.13l.49-.63 1.05-1.43-1-1.33-.45-.59h1.09a3.27 3.27 0 0 0 .29.53l.54.79.53-.79a3.46 3.46 0 0 0 .29-.53h1.09c-.22.29-.34.44-.45.6l-.88 1.32 1 1.43c.1.14.33.44.52.67zM178 91.06a3.7 3.7 0 0 0-.33-.57l-.61-.9-.63.94a3.76 3.76 0 0 0-.3.53H175l.49-.63 1-1.47-1-1.33-.45-.59h1.09a3.26 3.26 0 0 0 .29.53l.54.79.53-.79a3.39 3.39 0 0 0 .29-.53h1.08c-.22.29-.34.44-.45.6l-.86 1.36 1 1.43c.1.14.33.44.52.67zM182.29 91.06a3.78 3.78 0 0 0-.33-.57l-.61-.9-.63.94a3.76 3.76 0 0 0-.3.53h-1.13l.49-.63 1.05-1.43-1-1.33-.45-.59h1.09a3.27 3.27 0 0 0 .29.53l.54.79.53-.79a3.46 3.46 0 0 0 .29-.53h1.09c-.22.29-.34.44-.45.6l-.89 1.32 1 1.43c.1.14.33.44.52.67zM186.6 91.06a3.7 3.7 0 0 0-.33-.57l-.61-.9-.63.94a3.76 3.76 0 0 0-.3.53h-1.13l.49-.63 1-1.47-1-1.33-.45-.59h1.09a3.26 3.26 0 0 0 .29.53l.54.79.53-.79a3.39 3.39 0 0 0 .29-.53h1.08c-.22.29-.34.44-.45.6l-.82 1.36 1 1.43c.1.14.33.44.52.67zM190.92 91.06a3.78 3.78 0 0 0-.33-.57l-.61-.9-.63.94a3.76 3.76 0 0 0-.3.53h-1.13l.49-.63 1.06-1.43-1-1.33-.45-.59h1.09a3.27 3.27 0 0 0 .29.53l.54.79.53-.79a3.46 3.46 0 0 0 .29-.53h1.09c-.22.29-.34.44-.45.6l-.89 1.32 1 1.43c.1.14.33.44.52.67zM128.3 111.06a3.78 3.78 0 0 0-.33-.57l-.61-.9-.63.94a3.76 3.76 0 0 0-.3.53h-1.13l.49-.63 1.05-1.47-1-1.33-.45-.59h1.09a3.27 3.27 0 0 0 .29.53l.54.79.53-.79a3.46 3.46 0 0 0 .29-.53h1.09c-.22.29-.34.44-.45.6l-.95 1.32 1 1.43c.1.14.33.44.52.67zM132.62 111.06a3.7 3.7 0 0 0-.33-.57l-.61-.9-.63.94a3.76 3.76 0 0 0-.3.53h-1.13l.49-.63 1-1.47-1-1.33-.45-.59h1.09a3.26 3.26 0 0 0 .29.53l.54.79.53-.79a3.39 3.39 0 0 0 .29-.53h1.08c-.22.29-.34.44-.45.6l-.95 1.32 1 1.43c.1.14.33.44.52.67zM136.94 111.06a3.78 3.78 0 0 0-.33-.57l-.61-.9-.63.94a3.76 3.76 0 0 0-.3.53h-1.13l.49-.63 1.05-1.47-1-1.33-.45-.59h1.09a3.27 3.27 0 0 0 .29.53l.54.79.53-.79a3.46 3.46 0 0 0 .29-.53h1.09c-.22.29-.34.44-.45.6l-.95 1.32 1 1.43c.1.14.33.44.52.67zM141.26 111.06a3.7 3.7 0 0 0-.33-.57l-.61-.9-.63.94a3.76 3.76 0 0 0-.3.53h-1.13l.49-.63 1-1.47-1-1.33-.45-.59h1.09a3.26 3.26 0 0 0 .29.53l.54.79.53-.79a3.39 3.39 0 0 0 .29-.53h1.08c-.22.29-.34.44-.45.6l-.95 1.32 1 1.43c.1.14.33.44.52.67zM145.58 111.06a3.78 3.78 0 0 0-.33-.57l-.61-.9-.63.94a3.76 3.76 0 0 0-.3.53h-1.13l.49-.63 1.05-1.47-1-1.33-.45-.59h1.09a3.27 3.27 0 0 0 .29.53l.54.79.53-.79a3.46 3.46 0 0 0 .29-.53h1.09c-.22.29-.34.44-.45.6l-.95 1.32 1 1.43c.1.14.33.44.52.67zM149.89 111.06a3.7 3.7 0 0 0-.33-.57l-.61-.9-.63.94a3.76 3.76 0 0 0-.3.53h-1.12l.49-.63 1-1.47-1-1.33-.39-.63h1.09a3.26 3.26 0 0 0 .29.53l.54.79.53-.79a3.39 3.39 0 0 0 .29-.53h1.08c-.22.29-.34.44-.45.6l-.95 1.32 1 1.43c.1.14.33.44.52.67zM154.21 111.06a3.78 3.78 0 0 0-.33-.57l-.61-.9-.63.94a3.76 3.76 0 0 0-.3.53h-1.13l.49-.63 1.05-1.47-1-1.33-.45-.59h1.09a3.27 3.27 0 0 0 .29.53l.54.79.53-.79a3.46 3.46 0 0 0 .29-.53h1.09c-.22.29-.34.44-.45.6l-.88 1.36 1 1.43c.1.14.33.44.52.67zM158.53 111.06a3.7 3.7 0 0 0-.33-.57l-.61-.9-.63.94a3.76 3.76 0 0 0-.3.53h-1.13l.49-.63 1-1.47-1-1.33-.45-.59h1.09a3.26 3.26 0 0 0 .29.53l.54.79.53-.79a3.39 3.39 0 0 0 .29-.53h1.08c-.22.29-.34.44-.45.6l-.95 1.32 1 1.43c.1.14.33.44.52.67zM162.85 111.06a3.78 3.78 0 0 0-.33-.57l-.61-.9-.63.94a3.76 3.76 0 0 0-.3.53h-1.13l.49-.63 1.05-1.47-1-1.33-.39-.63h1.09a3.27 3.27 0 0 0 .29.53l.54.79.53-.79a3.46 3.46 0 0 0 .29-.53h1.09c-.22.29-.34.44-.45.6l-.95 1.32 1 1.43c.1.14.33.44.52.67zM167.17 111.06a3.7 3.7 0 0 0-.33-.57l-.61-.9-.63.94a3.76 3.76 0 0 0-.3.53h-1.13l.49-.63 1-1.47-1-1.33-.45-.59h1.09a3.26 3.26 0 0 0 .29.53l.54.79.53-.79a3.39 3.39 0 0 0 .29-.53h1.08c-.22.29-.34.44-.45.6l-.95 1.32 1 1.43c.1.14.33.44.52.67zM171.49 111.06a3.78 3.78 0 0 0-.33-.57l-.61-.9-.63.94a3.76 3.76 0 0 0-.3.53h-1.13l.49-.63L170 109l-1-1.33-.45-.59h1.09a3.27 3.27 0 0 0 .29.53l.54.79.53-.79a3.46 3.46 0 0 0 .29-.53h1.09c-.22.29-.34.44-.45.6l-.95 1.32 1 1.43c.1.14.33.44.52.67zM175.81 111.06a3.7 3.7 0 0 0-.33-.57l-.61-.9-.63.94a3.76 3.76 0 0 0-.3.53h-1.13l.49-.63 1-1.47-1-1.33-.3-.63h1a3.26 3.26 0 0 0 .29.53l.54.79.53-.79a3.39 3.39 0 0 0 .29-.53h1.08c-.22.29-.34.44-.45.6l-.95 1.32 1 1.43c.1.14.33.44.52.67zM180.13 111.06a3.78 3.78 0 0 0-.33-.57l-.61-.9-.63.94a3.76 3.76 0 0 0-.3.53h-1.13l.49-.63 1.05-1.47-1-1.33-.45-.59h1.09a3.27 3.27 0 0 0 .29.53l.54.79.53-.79a3.46 3.46 0 0 0 .33-.57h1.09c-.22.29-.34.44-.45.6l-.95 1.32 1 1.43c.1.14.33.44.52.67zM184.45 111.06a3.7 3.7 0 0 0-.33-.57l-.61-.9-.63.94a3.76 3.76 0 0 0-.3.53h-1.13l.49-.63 1-1.47-1-1.33-.45-.59h1.09a3.26 3.26 0 0 0 .29.53l.54.79.53-.79a3.39 3.39 0 0 0 .29-.53h1.08c-.22.29-.34.44-.45.6L184 109l1 1.43c.1.14.33.44.52.67zM188.76 111.06a3.78 3.78 0 0 0-.33-.57l-.61-.9-.63.94a3.76 3.76 0 0 0-.3.53h-1.13l.49-.63 1.05-1.47-1-1.33-.45-.59H187a3.27 3.27 0 0 0 .29.53l.54.79.53-.79a3.46 3.46 0 0 0 .29-.53h1.09c-.22.29-.34.44-.45.6l-.95 1.32 1 1.43c.1.14.33.44.52.67zM193.08 111.06a3.7 3.7 0 0 0-.33-.57l-.61-.9-.63.94a3.76 3.76 0 0 0-.3.53h-1.13l.49-.63 1-1.47-1-1.33-.45-.59h1.09a3.26 3.26 0 0 0 .29.53l.54.79.53-.79a3.39 3.39 0 0 0 .43-.57h1.08c-.22.29-.34.44-.45.6l-.95 1.32 1 1.43c.1.14.33.44.52.67zM128.3 123.31a3.78 3.78 0 0 0-.33-.57l-.61-.9-.63.94a3.76 3.76 0 0 0-.3.53h-1.13l.49-.63 1.05-1.47-1-1.33-.45-.59h1.09a3.27 3.27 0 0 0 .29.53l.54.79.53-.79a3.46 3.46 0 0 0 .29-.53h1.09c-.22.29-.34.44-.45.6l-.95 1.32 1 1.43c.1.14.33.44.52.67zM132.62 123.31a3.7 3.7 0 0 0-.33-.57l-.61-.9-.63.94a3.76 3.76 0 0 0-.3.53h-1.13l.49-.63 1-1.47-1-1.33-.45-.59h1.09a3.26 3.26 0 0 0 .29.53l.54.79.53-.79a3.39 3.39 0 0 0 .29-.53h1.08c-.22.29-.34.44-.45.6l-.95 1.32 1 1.43c.1.14.33.44.52.67zM136.94 123.31a3.78 3.78 0 0 0-.33-.57l-.61-.9-.63.94a3.76 3.76 0 0 0-.3.53h-1.13l.49-.63 1.05-1.47-1-1.33-.45-.59h1.09a3.27 3.27 0 0 0 .29.53l.54.79.53-.79a3.46 3.46 0 0 0 .29-.53h1.09c-.22.29-.34.44-.45.6l-.95 1.32 1 1.43c.1.14.33.44.52.67zM141.26 123.31a3.7 3.7 0 0 0-.33-.57l-.61-.9-.63.94a3.76 3.76 0 0 0-.3.53h-1.13l.49-.63 1-1.47-1-1.33-.45-.59h1.09a3.26 3.26 0 0 0 .29.53l.54.79.53-.79a3.39 3.39 0 0 0 .29-.53h1.08c-.22.29-.34.44-.45.6l-.95 1.32 1 1.43c.1.14.33.44.52.67zM145.58 123.31a3.78 3.78 0 0 0-.33-.57l-.61-.9-.63.94a3.76 3.76 0 0 0-.3.53h-1.13l.49-.63 1.05-1.47-1-1.33-.45-.59h1.09a3.27 3.27 0 0 0 .29.53l.54.79.53-.79a3.46 3.46 0 0 0 .29-.53h1.09c-.22.29-.34.44-.45.6l-.95 1.32 1 1.43c.1.14.33.44.52.67zM149.89 123.31a3.7 3.7 0 0 0-.33-.57l-.61-.9-.63.94a3.76 3.76 0 0 0-.3.53h-1.12l.49-.63 1-1.47-1-1.33-.45-.59h1.09a3.26 3.26 0 0 0 .29.53l.54.79.53-.79a3.39 3.39 0 0 0 .29-.53h1.08c-.22.29-.34.44-.45.6l-.95 1.32 1 1.43c.1.14.33.44.52.67zM154.21 123.31a3.78 3.78 0 0 0-.33-.57l-.61-.9-.63.94a3.76 3.76 0 0 0-.3.53h-1.13l.49-.63 1.05-1.47-1-1.33-.45-.59h1.09a3.27 3.27 0 0 0 .29.53l.54.79.53-.79a3.46 3.46 0 0 0 .29-.53h1.09c-.22.29-.34.44-.45.6l-.95 1.32 1 1.43c.1.14.33.44.52.67zM158.53 123.31a3.7 3.7 0 0 0-.33-.57l-.61-.9-.63.94a3.76 3.76 0 0 0-.3.53h-1.13l.49-.63 1-1.47-1-1.33-.45-.59h1.09a3.26 3.26 0 0 0 .29.53l.54.79.53-.79a3.39 3.39 0 0 0 .29-.53h1.08c-.22.29-.34.44-.45.6l-.95 1.32 1 1.43c.1.14.33.44.52.67zM162.85 123.31a3.78 3.78 0 0 0-.33-.57l-.61-.9-.63.94a3.76 3.76 0 0 0-.3.53h-1.13l.49-.63 1.05-1.47-1-1.33-.45-.59h1.09a3.27 3.27 0 0 0 .29.53l.54.79.53-.79a3.46 3.46 0 0 0 .29-.53h1.09c-.22.29-.34.44-.45.6l-.95 1.32 1 1.43c.1.14.33.44.52.67zM167.17 123.31a3.7 3.7 0 0 0-.33-.57l-.61-.9-.63.94a3.76 3.76 0 0 0-.3.53h-1.13l.49-.63 1-1.47-1-1.33-.45-.59h1.09a3.26 3.26 0 0 0 .29.53l.54.79.53-.79a3.39 3.39 0 0 0 .29-.53h1.08c-.22.29-.34.44-.45.6l-.95 1.32 1 1.43c.1.14.33.44.52.67zM171.49 123.31a3.78 3.78 0 0 0-.33-.57l-.61-.9-.63.94a3.76 3.76 0 0 0-.3.53h-1.13l.49-.63 1.05-1.47-1-1.33-.45-.59h1.09a3.27 3.27 0 0 0 .29.53l.54.79.53-.79a3.46 3.46 0 0 0 .29-.53h1.09c-.22.29-.34.44-.45.6l-.95 1.32 1 1.43c.1.14.33.44.52.67zM175.81 123.31a3.7 3.7 0 0 0-.33-.57l-.61-.9-.63.94a3.76 3.76 0 0 0-.3.53h-1.13l.49-.63 1-1.47-1-1.33-.45-.59H174a3.26 3.26 0 0 0 .29.53l.54.79.53-.79a3.39 3.39 0 0 0 .29-.53h1.08c-.22.29-.34.44-.45.6l-.95 1.32 1 1.43c.1.14.33.44.52.67zM180.13 123.31a3.78 3.78 0 0 0-.33-.57l-.61-.9-.63.94a3.76 3.76 0 0 0-.3.53h-1.13l.49-.63 1.05-1.47-1-1.33-.45-.59h1.09a3.27 3.27 0 0 0 .29.53l.54.79.53-.79a3.46 3.46 0 0 0 .29-.53h1.09c-.22.29-.34.44-.45.6l-.95 1.32 1 1.43c.1.14.33.44.52.67zM184.45 123.31a3.7 3.7 0 0 0-.33-.57l-.61-.9-.63.94a3.76 3.76 0 0 0-.3.53h-1.13l.49-.63 1-1.47-1-1.33-.45-.59h1.09a3.26 3.26 0 0 0 .29.53l.54.79.53-.79a3.39 3.39 0 0 0 .29-.53h1.08c-.22.29-.34.44-.45.6l-.95 1.32 1 1.43c.1.14.33.44.52.67zM188.76 123.31a3.78 3.78 0 0 0-.33-.57l-.61-.9-.63.94a3.76 3.76 0 0 0-.3.53h-1.13l.49-.63 1.05-1.47-1-1.33-.45-.59H187a3.27 3.27 0 0 0 .29.53l.54.79.53-.79a3.46 3.46 0 0 0 .29-.53h1.09c-.22.29-.34.44-.45.6l-.95 1.32 1 1.43c.1.14.33.44.52.67zM193.08 123.31a3.7 3.7 0 0 0-.33-.57l-.61-.9-.63.94a3.76 3.76 0 0 0-.3.53h-1.13l.49-.63 1-1.47-1-1.33-.45-.59h1.09a3.26 3.26 0 0 0 .29.53l.54.79.53-.79a3.39 3.39 0 0 0 .29-.53h1.08c-.22.29-.34.44-.45.6l-.95 1.32 1 1.43c.1.14.33.44.52.67z"/><path class="cls-5" d="M135.23 48.83l-3.46 3.38.81 4.76-4.27-2.24L124 57l.81-4.76-3.46-3.38 4.78-.69 2.13-4.34 2.13 4.34zM140.85 50.54a2.18 2.18 0 0 0-.38-.74 1.53 1.53 0 0 0-1.26-.56c-1.2 0-1.94.94-1.94 2.45s.76 2.47 2 2.47a1.64 1.64 0 0 0 1.4-.68 1.7 1.7 0 0 0 .24-.61l1.51.31a3.42 3.42 0 0 1-.51 1 3.17 3.17 0 0 1-2.69 1.23 3.4 3.4 0 0 1-3.54-3.71 4 4 0 0 1 1-2.82 3.34 3.34 0 0 1 2.45-.93 3.16 3.16 0 0 1 2.73 1.32 4.13 4.13 0 0 1 .43.89zM143.32 51.71a3.63 3.63 0 1 1 7.25 0 3.63 3.63 0 1 1-7.25 0zm1.58 0c0 1.5.78 2.43 2.05 2.43s2.05-.92 2.05-2.4-.75-2.48-2-2.48-2.11.92-2.11 2.45zM158.48 48.19a8.79 8.79 0 0 0-.1 1.59v3.83a10 10 0 0 0 .1 1.59h-1.66v-.65-.52a3.1 3.1 0 0 1-4 1 2.28 2.28 0 0 1-1-2.11v-3.14a11.29 11.29 0 0 0-.1-1.59h1.77a10.92 10.92 0 0 0-.09 1.59v2.71a1.49 1.49 0 0 0 .56 1.39 1.52 1.52 0 0 0 .67.17c.88 0 1.58-.6 2.12-1.81v-2.46a13 13 0 0 0-.1-1.59zM161.63 48.79v.43a2.84 2.84 0 0 1 2.49-1.2 3.15 3.15 0 0 1 2.32.85 3.8 3.8 0 0 1 1 2.81c0 2.25-1.23 3.6-3.31 3.6a2.85 2.85 0 0 1-2.47-1.17V56a12.26 12.26 0 0 0 .08 1.62H160a13.77 13.77 0 0 0 .09-1.61v-6.18a12.69 12.69 0 0 0-.09-1.64h1.62zm2.19.54a2.35 2.35 0 0 0 0 4.68c1.2 0 1.94-.9 1.94-2.34s-.76-2.34-1.95-2.34zM168.35 51.71a3.63 3.63 0 1 1 7.25 0 3.63 3.63 0 1 1-7.25 0zm1.57 0c0 1.5.78 2.43 2.05 2.43s2.05-.92 2.05-2.4-.74-2.48-2-2.48-2.09.92-2.09 2.45zM176.83 55.2a10.13 10.13 0 0 0 .1-1.59v-3.83a10 10 0 0 0-.1-1.59h1.66v.65a4.77 4.77 0 0 1 0 .52 2.79 2.79 0 0 1 2.51-1.29 2.41 2.41 0 0 1 2 .93 2.71 2.71 0 0 1 .42 1.71v2.93a9.65 9.65 0 0 0 .1 1.59h-1.77a13.07 13.07 0 0 0 .08-1.59V50.9a2 2 0 0 0-.21-1.07 1.15 1.15 0 0 0-1-.5c-.88 0-1.6.61-2.14 1.82v2.47a10.86 10.86 0 0 0 .1 1.59zM198.12 48.83l-3.46 3.38.81 4.76-4.27-2.24-4.27 2.27.81-4.76-3.46-3.38 4.78-.69 2.13-4.34 2.13 4.34zM134.62 71.3a11.25 11.25 0 0 0-1.58.06 6.26 6.26 0 0 1 .32-1.56 6 6 0 0 1 1.64-2.4 16.87 16.87 0 0 1 2-1.48c1.12-.77 1.46-1.17 1.46-1.79 0-.83-.65-1.34-1.68-1.34a1.73 1.73 0 0 0-1.55.72 2.32 2.32 0 0 0-.38 1.12l-1.75-.21a3.66 3.66 0 0 1 .84-2 3.55 3.55 0 0 1 2.79-1.09c2.14 0 3.46 1 3.46 2.7a2.48 2.48 0 0 1-.87 2 15.2 15.2 0 0 1-2.05 1.5 10.7 10.7 0 0 0-1.45 1.22 3 3 0 0 0-.7 1.1h3.42a12.84 12.84 0 0 0 1.78-.1v1.61c-.57 0-1.06-.07-1.84-.07zM142.84 70.5a3.42 3.42 0 0 1-.8-1.23 8.15 8.15 0 0 1-.48-2.81 7.19 7.19 0 0 1 .74-3.38 3.47 3.47 0 0 1 3.11-1.7 3.55 3.55 0 0 1 2.58 1 3.42 3.42 0 0 1 .8 1.23 8.19 8.19 0 0 1 .48 2.83 6.42 6.42 0 0 1-.9 3.61 3.46 3.46 0 0 1-3 1.44 3.52 3.52 0 0 1-2.53-.99zm3.89-.94a4.71 4.71 0 0 0 .85-3.14 4.74 4.74 0 0 0-.85-3.13 1.76 1.76 0 0 0-1.33-.51 1.64 1.64 0 0 0-1.37.62 4.55 4.55 0 0 0-.81 3 5.49 5.49 0 0 0 .62 2.91 1.94 1.94 0 0 0 2.88.28zM150.95 66.23a2.9 2.9 0 0 1-.71-2.11c0-1.71.88-2.72 2.37-2.72a2.28 2.28 0 0 1 1.65.62 3.49 3.49 0 0 1 0 4.21 2.51 2.51 0 0 1-3.31 0zm8.05-4.94l.63.49-7.69 9.84-.62-.5zm-7.51 2.81c0 1.12.39 1.73 1.11 1.73s1.11-.61 1.11-1.71a2.69 2.69 0 0 0-.21-1.12.94.94 0 0 0-.89-.55c-.71-.02-1.11.55-1.11 1.64zm5.2 6.77a3.49 3.49 0 0 1 0-4.21 2.33 2.33 0 0 1 1.66-.62 2.28 2.28 0 0 1 1.65.62 3.49 3.49 0 0 1 0 4.21 2.51 2.51 0 0 1-3.31 0zm.88-3.41a2.12 2.12 0 0 0-.33 1.27c0 1.12.39 1.73 1.11 1.73s1.11-.61 1.11-1.79a2.16 2.16 0 0 0-.33-1.22.88.88 0 0 0-.78-.38.85.85 0 0 0-.77.39zM169.48 62.61a5.26 5.26 0 0 1 1.37 3.81c0 3.09-1.79 5.09-4.57 5.09s-4.55-2-4.55-5.09a5.23 5.23 0 0 1 1.39-3.81 4.23 4.23 0 0 1 3.15-1.22 4.28 4.28 0 0 1 3.21 1.22zm-.34 3.81a3.94 3.94 0 0 0-1-2.84 2.63 2.63 0 0 0-1.88-.74c-1.76 0-2.87 1.39-2.87 3.6a4 4 0 0 0 1 2.88 2.63 2.63 0 0 0 1.89.74c1.72-.01 2.86-1.4 2.86-3.65zM174 69.54a10.53 10.53 0 0 0 .1 1.76h-1.82a10.4 10.4 0 0 0 .1-1.73v-6.44a10.67 10.67 0 0 0-.1-1.59h4.97a12.5 12.5 0 0 0 1.67-.09v1.65a11.67 11.67 0 0 0-1.67-.09H174v2.59h2.61a12 12 0 0 0 1.66-.09v1.62a11.93 11.93 0 0 0-1.66-.09H174zM181.86 69.54a10.53 10.53 0 0 0 .1 1.76h-1.82a10.4 10.4 0 0 0 .1-1.73v-6.44a10.67 10.67 0 0 0-.1-1.59h4.97a12.5 12.5 0 0 0 1.67-.09v1.65a11.67 11.67 0 0 0-1.67-.09h-3.25v2.59h2.61a12 12 0 0 0 1.66-.09v1.62a11.93 11.93 0 0 0-1.66-.09h-2.61z"/></g></g></svg>