<svg xmlns="http://www.w3.org/2000/svg" viewBox="0 0 267.5 180.58"><defs><style>.cls-1{fill:#4d4d4d}.cls-2{fill:gray;stroke:gray}.cls-11,.cls-2,.cls-4,.cls-7{stroke-miterlimit:10}.cls-2,.cls-4,.cls-7{stroke-width:.5px}.cls-3{fill:#f2594b}.cls-4{fill:#b3b3b3}.cls-4,.cls-7{stroke:#b3b3b3}.cls-5{fill:#9ee0d9}.cls-6{fill:#63a69f}.cls-11,.cls-14,.cls-7{fill:none}.cls-8{fill:#fff}.cls-9{fill:#6cecf8}.cls-10{fill:#7fc4e0}.cls-11{stroke:#f2594b}.cls-12{fill:#fc3}.cls-13{fill:#e0ad7f}.cls-14{stroke:#fff;stroke-width:.25px}</style></defs><title>img-tool-06</title><g id="レイヤー_2" data-name="レイヤー 2"><g id="_7" data-name="7"><path class="cls-1" d="M33.74 8.22a.87.87 0 0 1 .88.88v4.39h-.88v5.27h-1.1v-5.27h-.44v5.27h-1.1v-5.27h-.88V9.1a.87.87 0 0 1 .88-.88zm0-2.2a1.32 1.32 0 1 0-2.25.98 1.32 1.32 0 0 0 2.25-1zM42.94 5.85a1.45 1.45 0 0 1 1.46 1.47v7.32h-1.46v8.78h-1.83v-8.78h-.73v8.78h-1.83v-8.78h-1.46V7.32a1.45 1.45 0 0 1 1.46-1.46zm0-3.66A2.12 2.12 0 0 0 42.3.64a2.21 2.21 0 0 0-3.11 0 2.12 2.12 0 0 0-.64 1.56 2.12 2.12 0 0 0 .64 1.56 2.21 2.21 0 0 0 3.11 0 2.12 2.12 0 0 0 .64-1.56zM50.79 8.22a.87.87 0 0 1 .88.88v4.39h-.88v5.27h-1.1v-5.27h-.44v5.27h-1.1v-5.27h-.88V9.1a.87.87 0 0 1 .88-.88zm0-2.2a1.32 1.32 0 1 0-2.25.98 1.32 1.32 0 0 0 2.25-1z"/><path class="cls-2" d="M33.41 108.64l6.68 6.38 6-6.38v-4.81l-6.34 5.59-6.34-5.59v4.81z"/><path class="cls-3" d="M39 71.89v-1.73l-.08-.07a4.05 4.05 0 1 1 5.8-.08v1.79a5.44 5.44 0 1 0-5.73.09z"/><path class="cls-3" d="M47.59 77.09a28.68 28.68 0 0 1-2.19 2.28 1.1 1.1 0 0 1-1.86-.8V67.14v.21a1.65 1.65 0 0 0-3.3 0v8.28l-6.71 1.73a3.91 3.91 0 0 0-2.16 4.85L33 88.55v3.28h10.88v-3.28s5.63-8.49 6.21-9.31c1.03-1.46-.78-4.05-2.5-2.15z"/><path class="cls-2" d="M31.44 38.45h16.63v2.75H31.44z"/><path class="cls-2" transform="rotate(90 39.75 39.83)" d="M31.44 38.45h16.63v2.75H31.44z"/><path class="cls-4" d="M3.45 124.58H76a3.2 3.2 0 0 1 3.2 3.2v4.91H.25v-4.91a3.2 3.2 0 0 1 3.2-3.2z"/><path class="cls-5" d="M10.19 137h3.9v43.33h-3.9z"/><path class="cls-6" d="M10.19 150.26h3.9v30.07h-3.9z"/><path class="cls-5" d="M16.19 143.33h3.9v37h-3.9z"/><path class="cls-6" d="M16.19 161.23h3.9v19.1h-3.9z"/><path class="cls-5" d="M22.19 150.26h3.9v30.07h-3.9z"/><path class="cls-6" d="M22.19 159.79h3.9v20.54h-3.9z"/><path class="cls-5" d="M28.19 146.23h3.9v34.1h-3.9z"/><path class="cls-6" d="M28.19 163.47h3.9v16.86h-3.9z"/><path class="cls-5" d="M34.19 160.34h3.9v19.99h-3.9z"/><path class="cls-6" d="M34.19 166.98h3.9v13.35h-3.9z"/><path class="cls-5" d="M40.19 152.99h3.9v27.34h-3.9z"/><path class="cls-6" d="M40.19 157.09h3.9v23.24h-3.9z"/><path class="cls-5" d="M46.19 139.95h3.9v40.38h-3.9z"/><path class="cls-6" d="M46.19 152.99h3.9v27.34h-3.9z"/><path class="cls-5" d="M52.19 149.04h3.9v31.29h-3.9z"/><path class="cls-6" d="M52.19 158.66h3.9v21.67h-3.9z"/><path class="cls-5" d="M58.19 146.23h3.9v34.1h-3.9z"/><path class="cls-6" d="M58.19 164.22h3.9v16.11h-3.9z"/><path class="cls-5" d="M64.19 149.04h3.9v31.29h-3.9z"/><path class="cls-6" d="M64.19 158.66h3.9v21.67h-3.9z"/><rect class="cls-7" x=".25" y="124.58" width="79" height="55.75" rx="3.2" ry="3.2"/><circle class="cls-8" cx="4.19" cy="128.39" r="1.06"/><circle class="cls-8" cx="7.19" cy="128.39" r="1.06"/><circle class="cls-8" cx="10.19" cy="128.39" r="1.06"/><path class="cls-1" d="M128.74 8.22a.87.87 0 0 1 .88.88v4.39h-.88v5.27h-1.1v-5.27h-.44v5.27h-1.1v-5.27h-.88V9.1a.87.87 0 0 1 .88-.88zm0-2.2a1.32 1.32 0 1 0-2.25.93 1.32 1.32 0 0 0 2.25-.95zM137.94 5.85a1.45 1.45 0 0 1 1.46 1.46v7.32h-1.46v8.78h-1.83v-8.77h-.73v8.78h-1.83v-8.78h-1.46V7.32a1.45 1.45 0 0 1 1.46-1.46zm0-3.66a2.12 2.12 0 0 0-.64-1.55 2.21 2.21 0 0 0-3.11 0 2.12 2.12 0 0 0-.64 1.56 2.12 2.12 0 0 0 .64 1.56 2.21 2.21 0 0 0 3.11 0 2.12 2.12 0 0 0 .64-1.56zM145.79 8.22a.87.87 0 0 1 .88.88v4.39h-.88v5.27h-1.1v-5.27h-.44v5.27h-1.1v-5.27h-.88V9.1a.87.87 0 0 1 .88-.88zm0-2.2a1.32 1.32 0 1 0-2.25.93 1.32 1.32 0 0 0 2.25-.95z"/><path class="cls-2" d="M128.41 108.64l6.68 6.38 6-6.38v-4.81l-6.34 5.59-6.34-5.59v4.81zM126.44 38.45h16.63v2.75h-16.63z"/><path class="cls-2" transform="rotate(90 134.75 39.83)" d="M126.44 38.45h16.63v2.75h-16.63z"/><path class="cls-4" d="M98.45 124.58H171a3.2 3.2 0 0 1 3.2 3.2v4.91h-79v-4.91a3.2 3.2 0 0 1 3.25-3.2z"/><path class="cls-9" d="M105.19 137h3.9v43.33h-3.9z"/><path class="cls-10" d="M105.19 150.26h3.9v30.07h-3.9z"/><path class="cls-9" d="M111.19 143.33h3.9v37h-3.9z"/><path class="cls-10" d="M111.19 161.23h3.9v19.1h-3.9z"/><path class="cls-9" d="M117.19 150.26h3.9v30.07h-3.9z"/><path class="cls-10" d="M117.19 159.79h3.9v20.54h-3.9z"/><path class="cls-9" d="M123.19 146.23h3.9v34.1h-3.9z"/><path class="cls-10" d="M123.19 163.47h3.9v16.86h-3.9z"/><path class="cls-9" d="M129.19 160.34h3.9v19.99h-3.9z"/><path class="cls-10" d="M129.19 166.98h3.9v13.35h-3.9z"/><path class="cls-9" d="M135.19 152.99h3.9v27.34h-3.9z"/><path class="cls-10" d="M135.19 157.09h3.9v23.24h-3.9z"/><path class="cls-9" d="M141.19 139.95h3.9v40.38h-3.9z"/><path class="cls-10" d="M141.19 152.99h3.9v27.34h-3.9z"/><path class="cls-9" d="M147.19 149.04h3.9v31.29h-3.9z"/><path class="cls-10" d="M147.19 158.66h3.9v21.67h-3.9z"/><path class="cls-9" d="M153.19 146.23h3.9v34.1h-3.9z"/><path class="cls-10" d="M153.19 164.22h3.9v16.11h-3.9z"/><path class="cls-9" d="M159.19 149.04h3.9v31.29h-3.9z"/><path class="cls-10" d="M159.19 158.66h3.9v21.67h-3.9z"/><rect class="cls-7" x="95.25" y="124.58" width="79" height="55.75" rx="3.2" ry="3.2"/><circle class="cls-8" cx="99.19" cy="128.39" r="1.06"/><circle class="cls-8" cx="102.19" cy="128.39" r="1.06"/><circle class="cls-8" cx="105.19" cy="128.39" r="1.06"/><path class="cls-11" d="M146.62 91.4l-11.19-6.87-11.19 6.87V55.28h22.38V91.4z"/><path class="cls-3" d="M142.93 68.2l-3.75 3.66.88 5.16-4.63-2.43L130.8 77l.88-5.16-3.75-3.66 5.19-.75 2.31-4.7 2.31 4.7zm-7.5 5.21l3.27 1.73-.62-3.65 2.65-2.58-3.66-.53-1.64-3.33-1.64 3.33-3.66.53 2.65 2.58-.62 3.65z"/><path class="cls-1" d="M221.74 8.22a.87.87 0 0 1 .88.88v4.39h-.88v5.27h-1.1v-5.27h-.44v5.27h-1.1v-5.27h-.88V9.1a.87.87 0 0 1 .88-.88zm0-2.2a1.32 1.32 0 1 0-2.25.93 1.32 1.32 0 0 0 2.25-.95zM230.94 5.85a1.45 1.45 0 0 1 1.46 1.46v7.32h-1.46v8.78h-1.83v-8.77h-.73v8.78h-1.83v-8.78h-1.46V7.32a1.45 1.45 0 0 1 1.46-1.46zm0-3.66a2.12 2.12 0 0 0-.64-1.55 2.21 2.21 0 0 0-3.11 0 2.12 2.12 0 0 0-.64 1.56 2.12 2.12 0 0 0 .64 1.56 2.21 2.21 0 0 0 3.11 0 2.12 2.12 0 0 0 .64-1.56zM238.79 8.22a.87.87 0 0 1 .88.88v4.39h-.88v5.27h-1.1v-5.27h-.44v5.27h-1.1v-5.27h-.88V9.1a.87.87 0 0 1 .88-.88zm0-2.2a1.32 1.32 0 1 0-2.25.93 1.32 1.32 0 0 0 2.25-.95z"/><path class="cls-2" d="M221.41 108.64l6.68 6.38 6-6.38v-4.81l-6.34 5.59-6.34-5.59v4.81zM219.44 38.45h16.63v2.75h-16.63z"/><path class="cls-2" transform="rotate(90 227.75 39.83)" d="M219.44 38.45h16.63v2.75h-16.63z"/><path class="cls-4" d="M191.45 124.58H264a3.2 3.2 0 0 1 3.2 3.2v4.91h-79v-4.91a3.2 3.2 0 0 1 3.25-3.2z"/><path class="cls-12" d="M198.19 137h3.9v43.33h-3.9z"/><path class="cls-13" d="M198.19 150.26h3.9v30.07h-3.9z"/><path class="cls-12" d="M204.19 143.33h3.9v37h-3.9z"/><path class="cls-13" d="M204.19 161.23h3.9v19.1h-3.9z"/><path class="cls-12" d="M210.19 150.26h3.9v30.07h-3.9z"/><path class="cls-13" d="M210.19 159.79h3.9v20.54h-3.9z"/><path class="cls-12" d="M216.19 146.23h3.9v34.1h-3.9z"/><path class="cls-13" d="M216.19 163.47h3.9v16.86h-3.9z"/><path class="cls-12" d="M222.19 160.34h3.9v19.99h-3.9z"/><path class="cls-13" d="M222.19 166.98h3.9v13.35h-3.9z"/><path class="cls-12" d="M228.19 152.99h3.9v27.34h-3.9z"/><path class="cls-13" d="M228.19 157.09h3.9v23.24h-3.9z"/><path class="cls-12" d="M234.19 139.95h3.9v40.38h-3.9z"/><path class="cls-13" d="M234.19 152.99h3.9v27.34h-3.9z"/><path class="cls-12" d="M240.19 149.04h3.9v31.29h-3.9z"/><path class="cls-13" d="M240.19 158.66h3.9v21.67h-3.9z"/><path class="cls-12" d="M246.19 146.23h3.9v34.1h-3.9z"/><path class="cls-13" d="M246.19 164.22h3.9v16.11h-3.9z"/><path class="cls-12" d="M252.19 149.04h3.9v31.29h-3.9z"/><path class="cls-13" d="M252.19 158.66h3.9v21.67h-3.9z"/><rect class="cls-7" x="188.25" y="124.58" width="79" height="55.75" rx="3.2" ry="3.2"/><circle class="cls-8" cx="192.19" cy="128.39" r="1.06"/><circle class="cls-8" cx="195.19" cy="128.39" r="1.06"/><circle class="cls-8" cx="198.19" cy="128.39" r="1.06"/><path class="cls-8" d="M212.97 65.68V81l10.89 3.41 9.66-16.75v-2.85l-20.55.87z"/><path class="cls-3" d="M233.52 81.84a1.83 1.83 0 0 1-.16.73 3.59 3.59 0 0 1-1.13 1.34 10.61 10.61 0 0 1-3.68 1.69 20.45 20.45 0 0 1-5.31.67 18.05 18.05 0 0 1-7.49-1.46 6.64 6.64 0 0 1-2.12-1.47 2.86 2.86 0 0 1-.51-.76 1.83 1.83 0 0 1-.16-.73V79a10.52 10.52 0 0 0 3.88 2.08 21.28 21.28 0 0 0 6.39.93 19.46 19.46 0 0 0 8.11-1.6 8.7 8.7 0 0 0 2.18-1.41v2.82zm0-4.8a3.14 3.14 0 0 1-.51.76 8.57 8.57 0 0 1-3.75 2.13 20.06 20.06 0 0 1-6 .87 18.26 18.26 0 0 1-7.58-1.48 6.84 6.84 0 0 1-2.18-1.52 3.15 3.15 0 0 1-.5-.8v-3.65a10.52 10.52 0 0 0 3.88 2.08 21.3 21.3 0 0 0 6.39.93 19.46 19.46 0 0 0 8.11-1.6 8.7 8.7 0 0 0 2.16-1.41V77zm0-5.68a3.13 3.13 0 0 1-.51.76 8.57 8.57 0 0 1-3.75 2.13 20.05 20.05 0 0 1-6 .87 18.27 18.27 0 0 1-7.58-1.48 6.85 6.85 0 0 1-2.18-1.52 3.13 3.13 0 0 1-.51-.76v-3.69a10.52 10.52 0 0 0 3.88 2.08 21.26 21.26 0 0 0 6.39.93 19.45 19.45 0 0 0 8.11-1.6 8.7 8.7 0 0 0 2.16-1.41v3.7zm0-5.68a3.14 3.14 0 0 1-.51.76 8.57 8.57 0 0 1-3.75 2.13 20.06 20.06 0 0 1-6 .87 18.26 18.26 0 0 1-7.6-1.44 6.85 6.85 0 0 1-2.18-1.52 3.14 3.14 0 0 1-.51-.76v-.92a1.83 1.83 0 0 1 .16-.73 3.59 3.59 0 0 1 1.13-1.34 10.6 10.6 0 0 1 3.68-1.73 20.42 20.42 0 0 1 5.31-.67 18.05 18.05 0 0 1 7.5 1.46 6.63 6.63 0 0 1 2.12 1.47 2.86 2.86 0 0 1 .51.76 1.83 1.83 0 0 1 .16.73z"/><path class="cls-8" d="M222.85 76.7v9.63l8.96 5 10.44-4.08.9-2.3.37-9.14-20.67.89z"/><path class="cls-3" d="M243.52 88a3.14 3.14 0 0 1-.51.76 8.57 8.57 0 0 1-3.75 2.13 20.06 20.06 0 0 1-6 .87 18.26 18.26 0 0 1-7.58-1.48 6.84 6.84 0 0 1-2.18-1.52 3.15 3.15 0 0 1-.5-.76v-3.65a10.52 10.52 0 0 0 3.88 2.08 21.3 21.3 0 0 0 6.39.93 19.46 19.46 0 0 0 8.11-1.6 8.7 8.7 0 0 0 2.16-1.41V88zm0-5.68a3.13 3.13 0 0 1-.51.76 8.57 8.57 0 0 1-3.75 2.13 20.05 20.05 0 0 1-6 .87 18.27 18.27 0 0 1-7.58-1.48 6.85 6.85 0 0 1-2.18-1.52 3.13 3.13 0 0 1-.51-.76v-3.65a10.52 10.52 0 0 0 3.88 2.08 21.26 21.26 0 0 0 6.39.93 19.45 19.45 0 0 0 8.11-1.6 8.7 8.7 0 0 0 2.16-1.41v3.7zm0-5.68a3.14 3.14 0 0 1-.51.76 8.57 8.57 0 0 1-3.75 2.13 20.06 20.06 0 0 1-6 .87 18.26 18.26 0 0 1-7.6-1.4 6.85 6.85 0 0 1-2.18-1.52 3.14 3.14 0 0 1-.51-.76v-.92a1.83 1.83 0 0 1 .16-.73 3.59 3.59 0 0 1 1.13-1.34 10.6 10.6 0 0 1 3.68-1.73 20.42 20.42 0 0 1 5.31-.67 18.05 18.05 0 0 1 7.5 1.46 6.63 6.63 0 0 1 2.12 1.47 2.86 2.86 0 0 1 .51.76 1.83 1.83 0 0 1 .16.73z"/><path class="cls-14" d="M243.52 88a3.14 3.14 0 0 1-.51.76 8.57 8.57 0 0 1-3.75 2.13 20.06 20.06 0 0 1-6 .87 18.26 18.26 0 0 1-7.58-1.48 6.84 6.84 0 0 1-2.18-1.52 3.15 3.15 0 0 1-.5-.76v-3.65a10.52 10.52 0 0 0 3.88 2.08 21.3 21.3 0 0 0 6.39.93 19.46 19.46 0 0 0 8.11-1.6 8.7 8.7 0 0 0 2.16-1.41V88zm0-5.68a3.13 3.13 0 0 1-.51.76 8.57 8.57 0 0 1-3.75 2.13 20.05 20.05 0 0 1-6 .87 18.27 18.27 0 0 1-7.58-1.48 6.85 6.85 0 0 1-2.18-1.52 3.13 3.13 0 0 1-.51-.76v-3.65a10.52 10.52 0 0 0 3.88 2.08 21.26 21.26 0 0 0 6.39.93 19.45 19.45 0 0 0 8.11-1.6 8.7 8.7 0 0 0 2.16-1.41v3.7zm0-5.68a3.14 3.14 0 0 1-.51.76 8.57 8.57 0 0 1-3.75 2.13 20.06 20.06 0 0 1-6 .87 18.26 18.26 0 0 1-7.6-1.4 6.85 6.85 0 0 1-2.18-1.52 3.14 3.14 0 0 1-.51-.76v-.92a1.83 1.83 0 0 1 .16-.73 3.59 3.59 0 0 1 1.13-1.34 10.6 10.6 0 0 1 3.68-1.73 20.42 20.42 0 0 1 5.31-.67 18.05 18.05 0 0 1 7.5 1.46 6.63 6.63 0 0 1 2.12 1.47 2.86 2.86 0 0 1 .51.76 1.83 1.83 0 0 1 .16.73z"/></g></g></svg>