<svg xmlns="http://www.w3.org/2000/svg" viewBox="0 0 240.55 178.57"><defs><style>.cls-1{fill:#9ee0d9;stroke:#63a69f;stroke-width:.75px}.cls-1,.cls-12,.cls-7,.cls-8,.cls-9{stroke-miterlimit:10}.cls-2{fill:#fc3}.cls-3{fill:#d897d4}.cls-4{fill:#999}.cls-5{fill:#fff}.cls-6{fill:#f15b4e}.cls-12,.cls-7,.cls-8{fill:none}.cls-7{stroke:#999;stroke-width:12px}.cls-8,.cls-9{stroke:#b3b3b3;stroke-width:5px}.cls-9{fill:#b3b3b3}.cls-10{fill:#ccc}.cls-11{fill:#666}.cls-12{stroke:gray;stroke-width:2px}</style></defs><title>img-tool-03</title><g id="レイヤー_2" data-name="レイヤー 2"><g id="_3" data-name="3"><path class="cls-1" d="M5.34 121.87l30.78-17.89 23.28 8.95 13.18-8.95 5.44 13.42 45-46.95 40.34 10.44 41.12-3.73 26.38 9.69v69.3H5.34v-34.28z"/><path class="cls-2" d="M10.76 134.54l29.48-12.67 19.4 6.33h20.95l50.43-37.63 37.24 10.19h38.02l25.6 15.52.78 39.12-225.78 3.73 3.88-24.59z"/><path class="cls-3" d="M8.43 137.52l44.23-5.22 20.17 2.61 17.07-2.61h37.24l6.21-20.49 29.48 19.75 17.07-6.9 17.07 5.4 35.69 2.24-.78 28.42-225-6.06 1.55-17.14z"/><path class="cls-4" d="M2.5 26.53H238v31a6.43 6.43 0 0 1-6.43 6.43H8.93a6.43 6.43 0 0 1-6.43-6.47v-31 .04z" transform="rotate(180 120.275 45.225)"/><rect class="cls-2" x="21.26" y="35" width="25.98" height="24.98" rx="5" ry="5"/><rect class="cls-5" x="114.26" y="35" width="102.69" height="24.98" rx=".16" ry=".16"/><path class="cls-6" d="M34.27 38.79a8 8 0 0 0-5.8 13.46l-1 3.94L30.92 54a8 8 0 1 0 3.35-15.23zm0 14.28a6.3 6.3 0 1 1 6.3-6.3 6.29 6.29 0 0 1-6.3 6.29z"/><path class="cls-6" d="M38.49 49.76h-1.41v-3.81a1.09 1.09 0 0 0-.32-.82.85.85 0 0 0-.73-.32 1 1 0 0 0-.77.32 1.27 1.27 0 0 0-.27.82v3.81h-1.44v-3.81a1.27 1.27 0 0 0-.27-.82 1 1 0 0 0-.73-.27.9.9 0 0 0-.73.32 1.3 1.3 0 0 0-.32.82v3.8h-1.44V46a2.74 2.74 0 0 1 .68-1.81 2.44 2.44 0 0 1 1.77-.77 2.39 2.39 0 0 1 1.77.73 2.42 2.42 0 0 1 1.72-.74 2.28 2.28 0 0 1 1.77.77 2.69 2.69 0 0 1 .76 1.82z"/><path class="cls-7" d="M6.36 25.03h226.3v136.22H6.36z"/><path class="cls-8" d="M7.51 2.5h224.11A6.43 6.43 0 0 1 238 8.93v160.71a6.43 6.43 0 0 1-6.43 6.43H8.93a6.43 6.43 0 0 1-6.43-6.43V7.51A5 5 0 0 1 7.51 2.5z"/><path class="cls-9" d="M2.5 163.56H238v6.08a6.43 6.43 0 0 1-6.43 6.43H8.93a6.43 6.43 0 0 1-6.43-6.43v-6.08z"/><path class="cls-9" d="M2.5 2.53H238v8.37a6.43 6.43 0 0 1-6.43 6.43H8.93A6.43 6.43 0 0 1 2.5 10.9V2.53z" transform="rotate(180 120.275 9.93)"/><circle class="cls-5" cx="13.23" cy="10.38" r="2.38"/><circle class="cls-5" cx="19.23" cy="10.38" r="2.38"/><circle class="cls-5" cx="25.23" cy="10.38" r="2.38"/><path class="cls-4" d="M5.28 151.85h230.2v9.79a6.43 6.43 0 0 1-6.43 6.43H11.7a6.43 6.43 0 0 1-6.43-6.43v-9.79z"/><path d="M118.1 44.88c.25-.29.53-.62.78-.92l3-3.79a13.3 13.3 0 0 0 .9-1.22h.9a20 20 0 0 0-.07 2v3.95h.46a8.06 8.06 0 0 0 1.25-.08v1a8.28 8.28 0 0 0-1.26-.08h-.44v1a6.86 6.86 0 0 0 .1 1.3h-1.09a6.93 6.93 0 0 0 .1-1.3v-1h-4.64zm4.65-3a14.45 14.45 0 0 1 .07-1.63c-.25.36-.55.76-.9 1.2l-2.76 3.48h3.59zM127.69 46.87v1.19h-1.19v-1.19zM130.57 48.05a8.62 8.62 0 0 0-1.32.06 5.52 5.52 0 0 1 .35-1.58 5.27 5.27 0 0 1 1.56-2.06 16.42 16.42 0 0 1 1.84-1.32c1.19-.8 1.58-1.33 1.58-2.06 0-.91-.77-1.5-2-1.5a2 2 0 0 0-1.74.78 2.43 2.43 0 0 0-.42 1.21l-1-.17a3.26 3.26 0 0 1 .75-1.73 3.07 3.07 0 0 1 2.41-.92c1.81 0 3 .91 3 2.33a2.5 2.5 0 0 1-.71 1.7 9.47 9.47 0 0 1-2 1.55 6.53 6.53 0 0 0-1.73 1.48 3.35 3.35 0 0 0-.68 1.39h3.83a10.47 10.47 0 0 0 1.46-.08v1a13.54 13.54 0 0 0-1.48-.07z"/><path class="cls-2" d="M146.67 42.22l-1.36 1.33.32 1.87-1.68-.88-1.68.88.32-1.87-1.36-1.33 1.88-.27.84-1.7.84 1.7zM154.71 42.22l-1.36 1.33.32 1.87-1.67-.89-1.68.88.32-1.87-1.36-1.33 1.88-.27.84-1.7.84 1.7zM162.75 42.22l-1.36 1.33.32 1.87-1.71-.89-1.68.88.32-1.87-1.36-1.33 1.88-.27.84-1.7.84 1.7zM170.79 42.22l-1.36 1.33.32 1.87-1.68-.88-1.68.88.32-1.87-1.36-1.33 1.88-.27.84-1.7.84 1.7z"/><path class="cls-10" d="M178.83 42.22l-1.36 1.33.32 1.87-1.68-.88-1.68.88.32-1.87-1.36-1.33 1.88-.27.84-1.7.84 1.7zM53.69 37.79h26.33v20.38H53.69z"/><path class="cls-11" d="M79.69 37.79h26.33v20.38H79.69z"/><path class="cls-5" d="M61.82 46.93a.95.95 0 0 1 .93.93v3.73a.93.93 0 0 1-1.86 0v-3.73a.94.94 0 0 1 .93-.93zm1.4 5.12v-5.12h8.38v5.12a1.39 1.39 0 0 1-1.4 1.4v1.86a.93.93 0 0 1-1.86 0v-1.86h-1.87v1.86a.93.93 0 0 1-1.86 0v-1.86a1.39 1.39 0 0 1-1.4-1.4zM71.57 46v.47h-8.33V46a4 4 0 0 1 .6-1.75 4.29 4.29 0 0 1 1.27-1.3l-.46-.95a.44.44 0 0 1 0-.36.47.47 0 0 1 .24-.27.43.43 0 0 1 .36 0 .47.47 0 0 1 .27.24l.47.93h.12a5.09 5.09 0 0 1 .65-.16 4 4 0 0 1 1.35 0 5.09 5.09 0 0 1 .65.16h.12l.47-.93a.47.47 0 0 1 .27-.24.43.43 0 0 1 .36 0 .47.47 0 0 1 .24.27.44.44 0 0 1 0 .36l-.47.93A4.29 4.29 0 0 1 71 44.24a4 4 0 0 1 .57 1.76zM66 45.06a.47.47 0 1 0-.33-.14.45.45 0 0 0 .33.14zm2.79 0a.47.47 0 1 0-.33-.14.45.45 0 0 0 .34.14zM73 46.93a.94.94 0 0 1 .93.93v3.73a.93.93 0 0 1-1.86 0v-3.73a.94.94 0 0 1 .93-.93zM97.15 48a2.94 2.94 0 0 0 .32 1.37 3.68 3.68 0 0 0 .66.9 2.8 2.8 0 0 0 .65.49l.31.15-.25.67a6.55 6.55 0 0 1-.75 1.39 10.4 10.4 0 0 1-1 1.21 1.68 1.68 0 0 1-1.25.56 1.87 1.87 0 0 1-1.13-.28 2.15 2.15 0 0 0-1.25-.3 2.27 2.27 0 0 0-1.25.28 2.14 2.14 0 0 1-1.11.31 1.59 1.59 0 0 1-1.26-.57 10.64 10.64 0 0 1-1-1.26 8.33 8.33 0 0 1-.84-1.59 9 9 0 0 1-.56-1.9 7.36 7.36 0 0 1-.08-2 4.41 4.41 0 0 1 .64-1.79 3.69 3.69 0 0 1 1.27-1.3 3.32 3.32 0 0 1 1.71-.5 2.7 2.7 0 0 1 1.32.31 2.42 2.42 0 0 0 1.06.32 2.87 2.87 0 0 0 1.17-.37 2.85 2.85 0 0 1 1.59-.29 5.71 5.71 0 0 1 1.18.25 2.73 2.73 0 0 1 1.46 1.17s-.31.25-.81.7a2.6 2.6 0 0 0-.8 2.07zm-1.8-5.35a3.12 3.12 0 0 1-1 .75 2.17 2.17 0 0 1-1.18.26 2.35 2.35 0 0 1 .16-1.22 3.41 3.41 0 0 1 .6-1 3.15 3.15 0 0 1 1-.77 2.81 2.81 0 0 1 1.14-.33 2.66 2.66 0 0 1-.15 1.24 3.93 3.93 0 0 1-.57 1.05z"/><path class="cls-12" d="M119.51 51.67h46.72M119.51 54.67h34.91M119.51 57.67h19.35"/></g></g></svg>