<svg xmlns="http://www.w3.org/2000/svg" viewBox="0 0 434.78 78.39"><defs><style>.cls-1{fill:#f15a4e}</style></defs><title>ttl-tool-01</title><g id="レイヤー_2" data-name="レイヤー 2"><g id="Layer_1" data-name="Layer 1"><g id="metaps_analytics_logo"><path class="cls-1" d="M35.48.65a35.47 35.47 0 0 0-25.63 60L5.18 78.18l15.55-9.79A35.48 35.48 0 1 0 35.48.65zm0 63.7A28.22 28.22 0 1 1 63.7 36.13a28.22 28.22 0 0 1-28.22 28.22z"/><path class="cls-1" d="M54.39 49.57h-6.32v-17A5.07 5.07 0 0 0 46.71 29a4.13 4.13 0 0 0-3.28-1.48A4.27 4.27 0 0 0 40 28.83a5.36 5.36 0 0 0-1.25 3.7v17h-6.3v-17a5.32 5.32 0 0 0-1.28-3.71 4.11 4.11 0 0 0-3.31-1.35A4.1 4.1 0 0 0 24.61 29a5 5 0 0 0-1.36 3.56v17h-6.33v-17a11.43 11.43 0 0 1 3.15-8 10.56 10.56 0 0 1 7.81-3.39 10.35 10.35 0 0 1 7.76 3.21 10.81 10.81 0 0 1 15.57.19 11.4 11.4 0 0 1 3.17 8zM132.28 62.35h-6.73V55.7q-7.4 8.15-17 8.15A22.11 22.11 0 0 1 92 56.73a23.57 23.57 0 0 1-6.86-17A23.22 23.22 0 0 1 92 22.9a22.7 22.7 0 0 1 16.83-7q9.93 0 16.67 8.06V17h6.73zM109 57.44a16.23 16.23 0 0 0 11.89-5 16.87 16.87 0 0 0 5-12.43A17.16 17.16 0 0 0 121 27.56a16.13 16.13 0 0 0-12-5 15.88 15.88 0 0 0-12 5.2 17.67 17.67 0 0 0 0 24.49 16 16 0 0 0 12 5.19zM183.65 62.35h-6.82V40.73q0-7.48-.71-10.18A13.37 13.37 0 0 0 174 26a8.38 8.38 0 0 0-3.49-2.78 13 13 0 0 0-5.15-.91 12.86 12.86 0 0 0-5.94 1.5 14.94 14.94 0 0 0-5 4.16 15.61 15.61 0 0 0-2.87 5.65q-.79 3-.79 12v16.73h-6.9V17h6.9v6.82q6.73-8 16-8a16.25 16.25 0 0 1 8.89 2.54 15.69 15.69 0 0 1 6 7q2 4.45 2 13.67zM239.76 62.35H233V55.7q-7.4 8.15-17 8.15a22.1 22.1 0 0 1-16.5-7.11 23.57 23.57 0 0 1-6.86-17 23.22 23.22 0 0 1 6.9-16.87 22.7 22.7 0 0 1 16.83-7q9.93 0 16.67 8.06V17h6.73zm-23.28-4.91a16.23 16.23 0 0 0 11.89-5 16.87 16.87 0 0 0 5-12.43 17.16 17.16 0 0 0-4.9-12.47 16.13 16.13 0 0 0-12-5 15.88 15.88 0 0 0-12 5.2 17.67 17.67 0 0 0 .08 24.52 16 16 0 0 0 11.93 5.18zM257.38 62.35h-6.82V0h6.82zM306.68 17l-26.85 61.39h-7.15l8.73-20L263 17h7.15l14.88 33.17L299.45 17zM333.44 23h-9v31.78q0 1.75.5 2.12a5 5 0 0 0 2.49.37h4v5.9a40 40 0 0 1-6.07.66q-4 0-5.9-2t-1.91-6.19V23h-7.81v-6h7.81V0h6.9v17h9zM343.34 0a5.25 5.25 0 0 1 5.32 5.28A5.09 5.09 0 0 1 347.12 9a5.09 5.09 0 0 1-3.74 1.54A5 5 0 0 1 339.64 9a5.12 5.12 0 0 1-1.54-3.7 5.13 5.13 0 0 1 1.54-3.7 5 5 0 0 1 3.7-1.6zm3.49 62.35h-6.9V17h6.9zM401.69 53.12a23.14 23.14 0 0 1-9.35 8 28.8 28.8 0 0 1-12.51 2.74 24 24 0 0 1-17.5-6.9 22.74 22.74 0 0 1-7-16.88A23.36 23.36 0 0 1 362.37 23q7.06-7.11 18.29-7.11a26.24 26.24 0 0 1 12.26 2.91 21.66 21.66 0 0 1 8.77 8.15l-5.4 3.41a19.09 19.09 0 0 0-15.88-7.9 18.16 18.16 0 0 0-13 4.95 16.19 16.19 0 0 0-5.24 12.26 17.26 17.26 0 0 0 5.15 12.55 17.54 17.54 0 0 0 13.05 5.24q9.48 0 16-8zM434.78 22.36l-4.41 4.57q-4.91-4.57-9-4.57a6.11 6.11 0 0 0-4.3 1.64 5.23 5.23 0 0 0-1.75 4 5.48 5.48 0 0 0 2 4.16 35.36 35.36 0 0 0 6.94 4.41 25.72 25.72 0 0 1 7.69 5.78 11.49 11.49 0 0 1 2.7 7.73 13.26 13.26 0 0 1-4 9.81 13.58 13.58 0 0 1-9.93 4q-8.23 0-13.72-7l4.25-4.89q4.49 5.24 9.14 5.24a7.67 7.67 0 0 0 5.4-2.08 6.43 6.43 0 0 0 2.21-4.83 6.06 6.06 0 0 0-2-4.66 32.66 32.66 0 0 0-7-4.36 23.21 23.21 0 0 1-7.48-5.53 12 12 0 0 1-2.53-8 11.3 11.3 0 0 1 3.62-8.44 13.18 13.18 0 0 1 9.56-3.49q5.95.03 12.61 6.51z"/></g></g></g></svg>