<svg version="1" xmlns="http://www.w3.org/2000/svg" width="693.333" height="693.333" viewBox="0 0 520.000000 520.000000"><path d="M237.9 13.4c-.2.2-3.3.7-6.9 1-22.7 2.4-51.1 11.2-74.7 23.2-11 5.6-31.9 18.7-37 23.2-1 .9-4.7 4.1-8.1 7-26.2 22.4-48.5 53.1-61.7 84.7-4.7 11.2-11.5 33.8-13.1 43.5-.2 1.4-.7 3.6-1 5-.3 1.4-.8 4.3-1 6.5-.3 2.2-.9 6.7-1.4 10-.9 6.3-.5 43 .5 50 1.4 9.7 3 18.6 4.6 25 .5 2.2 1.2 5.1 1.5 6.3 1 4.7 7.4 23 10.9 31.2 9.3 21.8 24.8 45.7 41.4 63.9 1.7 1.9 3.1 3.6 3.1 3.8 0 .6-18.9 71.7-21 79.3-1.1 3.6-2.1 7.6-2.4 9-.8 4-5.6 21.1-6.2 22.1-.3.5-.1.9.5.9.5 0 23.1-13.9 50.1-30.9l49.1-31 6.4 2.9c12.4 5.6 37.5 12.9 50.1 14.6 2.7.3 5.1.7 5.4.9 1.4.9 19.3 1.9 32.5 1.9 21.8 0 30.2-.9 53.9-5.9 12.1-2.6 32.5-10.1 47.6-17.6 56.4-28 99-78.6 116.9-138.7 6.6-22.2 8.9-39 8.9-65.2 0-20.2-.9-29.7-4.4-46.8-15-73.6-69.3-137.7-139.8-164.9-28.3-10.9-50.9-15.1-83.2-15.2-11.6 0-21.3.1-21.5.3zm44.6 47c1.7.3 4.4.7 6 1 1.7.3 4.6.8 6.5 1.1 6.4 1.1 24.2 6.5 32.7 10.1 24.2 10 41.5 21.5 59.8 39.9 23.9 23.8 39.3 50.8 47.6 83 2.3 8.8 2.4 9.3 3.3 15 1.7 11.6 2 15.2 2 29 0 16.2-.6 23.3-2.9 35-.3 1.4-.7 3.7-1 5.2-7.8 39.1-34.9 80.8-68.5 105.5-27.7 20.4-54.6 30.8-91 35.3-4.8.6-28.6.7-33.5.1-16-1.8-24.7-3.6-38-7.7-43.7-13.5-81.4-44.2-104-84.8-11.8-21-19-44-22.1-69.6-1.7-14.5 0-45.3 3-55.3.3-.9.7-2.8 1-4.2 1.5-9 8.3-27.7 14.8-40.5C125.1 105 180.8 66.2 239 60.4c3.6-.3 6.6-.7 6.8-.9.5-.4 33.3.4 36.7.9z"/><path d="M200 144.7c-4.4.7-15.1 4.3-20.4 7-16.6 8.4-32 27.6-36.5 45.8-2.1 8.2-2.4 16.3-2.5 71.2l-.1 56.3h7c23.6.2 32.8.1 33.1-.2.2-.2.4-26.7.6-58.8l.3-58.5 2.8-5.5c3.6-6.9 8.5-12 14.5-15.1 3.7-1.8 6.3-2.3 12.2-2.3 12.4.1 20.7 5.3 25.9 16.3l2.6 5.6.3 59c.2 32.4.4 59.1.6 59.2.6.6 38.8.4 39.4-.1.3-.3.5-26.6.6-58.3.1-53.9.3-58.2 2-63.3 2.7-7.7 10.2-15.1 17.6-17.2 6.9-1.9 15.7-1.5 21.2 1 8.7 4 16.1 14 17.6 23.9.4 2.6.7 29.3.7 59.3v54.5l11.5.5c6.3.3 15.4.4 20.2.2l8.7-.3-.1-58c-.1-60.4-.3-64.6-4.5-75.9-8.2-22.1-27.5-39.7-49.3-45.1-8-1.9-27.1-1.7-34.5.4-11.2 3.3-20.6 8.4-27.8 15.1-1.5 1.4-3 2.6-3.3 2.6-.3 0-2.7-1.8-5.2-4.1-7.6-6.7-19.1-12.3-29.7-14.4-3.5-.8-21.8-1.3-25.5-.8z"/></svg>